/* XPM */ 
static const char* const analyze_goto_small_xpm[] = {
"16 16 14 1",
" 	c None",
"!	c black",
"#	c #7E8ACB",
"$	c #5C6BBD",
"%	c #4A5BB5",
"&	c #AFB7DF",
"'	c #A5AAD7",
"(	c #929DD0",
")	c #808BCB",
"*	c #4453A7",
"+	c #B5BDE2",
",	c #A5AFDD",
"-	c #959DD6",
".	c #828DCD",
"                ",
"                ",
"                ",
"                ",
"       #        ",
"       #$       ",
"       #$%      ",
"   &'()#$%*     ",
"   +,-.#$%*     ",
"       #$%      ",
"       #$       ",
"       #        ",
"                ",
"                ",
"                ",
"                "};