/* XPM */ 
static const char* const analyze_small_xpm[] = {
"16 16 6 1",
" 	c None",
"!	c black",
"#	c #4453A7",
"$	c #4A5BB5",
"%	c #5C6BBD",
"&	c #7E8ACB",
"                ",
"                ",
"                ",
"       ##       ",
"      $$$$      ",
"     %%%%%%     ",
"    &&&&&&&&    ",
"                ",
"                ",
"    &&&&&&&&    ",
"     %%%%%%     ",
"      $$$$      ",
"       ##       ",
"                ",
"                ",
"                "};