/* XPM */ 
static const char* const app_small_xpm[] = {
"16 16 201 2",
"  	c None",
"! 	c #4A72A2",
"# 	c #446DA0",
"$ 	c #476FA1",
"% 	c #567BA8",
"& 	c #6D8EB5",
"' 	c #829EC0",
"( 	c #7795B9",
") 	c #6C8CB3",
"* 	c #698AB2",
"+ 	c #6486AF",
", 	c #5E82AC",
"- 	c #5D81AB",
". 	c #436DA0",
"0 	c #3F6A9D",
"1 	c #466FA0",
"2 	c #5A7EAA",
"3 	c #7695B9",
"4 	c #99AFCA",
"5 	c #A1B5CE",
"6 	c #AABCD3",
"7 	c #B8C7DA",
"8 	c #C3CFDF",
"9 	c #C7D4E2",
": 	c #CBD6E4",
"; 	c #CED7E5",
"< 	c #3F699D",
"= 	c #406A9D",
"> 	c #4971A2",
"? 	c #6D8DB4",
"@ 	c #9BB0CB",
"A 	c #C5D2E1",
"B 	c #E6ECF2",
"C 	c #F6F8FA",
"D 	c #FDFDFE",
"E 	c #FCFDFD",
"F 	c #FAFBFC",
"G 	c #F9FAFC",
"H 	c #F8F9FB",
"I 	c #F7F9FB",
"J 	c #436CA0",
"K 	c #4B73A2",
"L 	c #7E9BBD",
"M 	c #F7F8FA",
"N 	c #FCFCFD",
"O 	c #F8FAFB",
"P 	c #F3F5F9",
"Q 	c #EAEEF4",
"R 	c #DDE4ED",
"S 	c #D1DBE7",
"T 	c #C3D0E0",
"U 	c #BAC9DB",
"V 	c #456EA1",
"W 	c #416B9E",
"X 	c #456FA0",
"Y 	c #CED8E6",
"Z 	c #F3F5F8",
"[ 	c #DFE6EE",
"] 	c #C4D1E0",
"^ 	c #9EB3CD",
"_ 	c #87A1C1",
"` 	c #7C98BB",
"a 	c #7392B7",
"b 	c #6284AE",
"c 	c #547AA7",
"d 	c #567CA8",
"e 	c #4F76A5",
"f 	c #5279A6",
"g 	c #89A3C2",
"h 	c #F7F8FB",
"i 	c #F2F5F8",
"j 	c #C5D1D8",
"k 	c #AFBBB7",
"l 	c #A2AFB5",
"m 	c #7793B5",
"n 	c #6184AE",
"o 	c #5D81AC",
"p 	c #597DAA",
"q 	c #4C73A3",
"r 	c #456EA0",
"s 	c #4C74A4",
"t 	c #466EA0",
"u 	c #4972A2",
"v 	c #7997BA",
"w 	c #E1E7EF",
"x 	c #F9FAF3",
"y 	c #F0EEB7",
"z 	c #F3E363",
"{ 	c #E6CA6D",
"| 	c #B0B3B0",
"} 	c #7291B7",
"~ 	c #6083AE",
" !	c #577CA9",
"!!	c #4C74A3",
"#!	c #466FA1",
"$!	c #4B74A3",
"%!	c #4870A1",
"&!	c #6587B0",
"'!	c #A5B8D1",
"(!	c #E9ECD4",
")!	c #F9F469",
"*!	c #F4E81F",
"+!	c #EAC81C",
",!	c #D3B47F",
"-!	c #ABBDD3",
".!	c #7493B7",
"0!	c #597EAA",
"1!	c #4F76A4",
"2!	c #4770A1",
"3!	c #4B72A3",
"4!	c #6688B1",
"5!	c #6C8CB4",
"6!	c #B1C1BC",
"7!	c #EEED7A",
"8!	c #F5EA3F",
"9!	c #EBC826",
":!	c #E8C294",
";!	c #E4EAF1",
"<!	c #A3B7CF",
"=!	c #5077A5",
">!	c #4770A2",
"?!	c #4A73A3",
"@!	c #6083AD",
"A!	c #7C99B8",
"B!	c #A2B4A8",
"C!	c #CBCC77",
"D!	c #D1C487",
"E!	c #E2DDDA",
"F!	c #FBFCFD",
"G!	c #D4DDE9",
"H!	c #7D99BC",
"I!	c #557AA8",
"J!	c #7896B9",
"K!	c #6889B1",
"L!	c #6A8BB3",
"M!	c #91AAC7",
"N!	c #B2C3D7",
"O!	c #D7DFEA",
"P!	c #D6DFEA",
"Q!	c #7E9ABD",
"R!	c #6F8EB5",
"S!	c #6F8FB5",
"T!	c #88A2C2",
"U!	c #98AFCA",
"V!	c #8DA6C4",
"W!	c #92AAC7",
"X!	c #9AB0CB",
"Y!	c #ACBED4",
"Z!	c #C4D1E1",
"[!	c #E2E8F0",
"]!	c #E9EEF3",
"^!	c #B4C5D9",
"_!	c #7794B9",
"`!	c #6E8EB5",
"a!	c #7896BA",
"b!	c #7997BB",
"c!	c #C6D3E1",
"d!	c #D8E0EB",
"e!	c #D7E0EB",
"f!	c #DAE2EB",
"g!	c #EDF1F6",
"h!	c #ECF0F5",
"i!	c #D3DCE8",
"j!	c #A8BBD2",
"k!	c #7594B8",
"l!	c #5278A6",
"m!	c #416B9D",
"n!	c #5B80AB",
"o!	c #7593B8",
"p!	c #F4F6F9",
"q!	c #F1F4F7",
"r!	c #E8EDF3",
"s!	c #E0E7EF",
"t!	c #D6DFE9",
"u!	c #C6D3E2",
"v!	c #96ADC9",
"w!	c #7190B6",
"x!	c #577CA8",
"y!	c #3F699C",
"z!	c #B1C1D7",
"{!	c #AABDD3",
"|!	c #A5B9D0",
"}!	c #9BB2CC",
"~!	c #8FA7C5",
" #	c #839EBF",
"!#	c #557BA8",
"##	c #4B73A3",
"$#	c #446E9F",
"%#	c #436D9F",
"&#	c #426C9E",
"'#	c #4E75A4",
"(#	c #5B7FAB",
")#	c #7996BB",
"*#	c #7090B5",
"+#	c #6E8EB3",
",#	c #6588B0",
"-#	c #5C7FAB",
".#	c #5278A7",
"0#	c #4E76A4",
"1#	c #4771A1",
"2#	c #4F75A5",
"! # # # # $ % & ' ( ) * + , - - ",
". 0 0 0 0 1 2 3 4 5 6 7 8 9 : ; ",
". < < = > ? @ A B C D E F G H I ",
"J < < K L : M N O P Q R S T U 7 ",
"V W X ? Y N Z [ ] ^ _ ` a b % c ",
"d e f g h i j k l m n o p q r . ",
"s t u v w x y z { | } ~  !!!#!. ",
"$!r %!&!'!(!)!*!+!,!-!.!0!1!2!. ",
"$!r 3!4!5!6!7!8!9!:!;!<!+ =!3!>!",
"?!2!, ) @!A!B!C!D!E!F!G!H!o @!2 ",
"$!I!J!K!L!n 4!M!N!O!F P!_ v Q!R!",
"S!T!U!V!W!X!Y!Z![!H ]!^!_!`!a!b!",
"c!d!e!f![ g!O O h!i!j!k!l!m!n!o!",
"p!q!g!r!s!t!u!N!v!w!x!2!= y!e n ",
"z!{!|!}!~! #w!n !###1 $#%#&#'#(#",
")#*#+#,#-#2 .#0#$!?!u 1#2!t 2#(#"};