/* XPM */ 
static const char *const autoreload_small_xpm[] = {
"10 10 13 1",
" 	c None",
"!	c black",
"#	c #6C6B6B",
"$	c #6B6A6A",
"%	c #787777",
"&	c #787878",
"'	c #777777",
"(	c #858585",
")	c #DEDEDE",
"*	c #868686",
"+	c #919191",
",	c #EBEBEB",
"-	c #767676",
"          ",
"  ##$$$## ",
"  %%&&&'' ",
"  (())**  ",
"  ++,,++  ",
"  ++,,++  ",
"  (())((  ",
" --&&&&&  ",
" $$$$$$$  ",
"          "};