/* XPM */ 
static const char* const bookmark_small_xpm[] = {
"10 10 6 1",
" 	c None",
"!	c black",
"#	c #335077",
"$	c #4D77B0",
"%	c #5981B7",
"&	c #6389BC",
" ######## ",
" #$%&&%$# ",
" #$%&&%$# ",
" #$%&&%$# ",
" #$%&&%$# ",
" #$%&&%$# ",
" #$%&&%$# ",
" #$%##%$# ",
" #$#  #$# ",
" ##    ## "};