/* XPM */
static const char* const bookmark_prev_small_xpm[] = {
"16 16 10 1 0 0",
"  c #3C6BB3",
"! c #5A86C8",
"# c #658ECC",
"$ c #4577C1",
"% c #E2CA89",
"& c #2F5D9A",
"' c #7499D1",
"( c #6488B7",
") c #5687BB",
"* c None",
"****************",
"**** ***********",
"*** !***********",
"** #!$$  %&&&***",
"* '#!$$  %((&***",
"* '#!$$  %((&***",
"** #!$$  %((&***",
"*** !%%%%%((&***",
"***% %))))((&***",
"***%%%))))((&***",
"***&((&&&&((&***",
"***&(&****&(&***",
"***&&******&&***",
"****************",
"****************",
"****************"
};
