/* XPM */
static const char* const bookmark_next_small_xpm[] = {
"16 16 10 1 0 0",
"  c #3C6BB3",
"! c #5A86C8",
"# c #2F5D9A",
"$ c #E8D19E",
"% c #4577C1",
"& c #658ECC",
"' c #6488B7",
"( c #5687BB",
") c #7499D1",
"* c None",
"****************",
"************ ***",
"************! **",
"***####$  %%!& *",
"***#''($  %%!&) ",
"***#''($  %%!&) ",
"***#''($  %%!& *",
"***#''($$$$$! **",
"***#''(((('$ ***",
"***#''(((('$$***",
"***#''####''#***",
"***#'#****#'#***",
"***##******##***",
"****************",
"****************",
"****************"
};
