/* XPM */
static const char* const bookmark_add_small_xpm[] = {
"16 16 4 1 0 0",
"  c #2F5D9A",
"! c #6488B7",
"# c #5687BB",
"$ c None",
"$$$$$$$$$$$$$$$$",
"$$$$$$$$$$$$$$$$",
"$$$$$$$$$$$$$$$$",
"$$$          $$$",
"$$$ !!####!! $$$",
"$$$ !!####!! $$$",
"$$$ !!####!! $$$",
"$$$ !!####!! $$$",
"$$$ !!####!! $$$",
"$$$ !!####!! $$$",
"$$$ !!    !! $$$",
"$$$ ! $$$$ ! $$$",
"$$$  $$$$$$  $$$",
"$$$$$$$$$$$$$$$$",
"$$$$$$$$$$$$$$$$",
"$$$$$$$$$$$$$$$$"
};
