/* XPM */ 
static const char* const bookmark_list_small_xpm[] = {
"16 16 9 1",
" 	c None",
"!	c black",
"#	c #2F5D9A",
"$	c #6488B7",
"%	c #5687BB",
"&	c #5C6BBD",
"'	c #4A5BB5",
"(	c #4453A7",
")	c #3D4B96",
"                ",
"                ",
"                ",
"   ##########   ",
"   #$$%%%%$$#   ",
"   #$$%%%%$$#   ",
"   #$$%%%%$$#   ",
"   #$$%%%%$$#   ",
"   #$$%%%%$$#   ",
"   #$$%&'())('& ",
"   #$$#         ",
"   #$# &'())('& ",
"   ##   '())('  ",
"         ())(   ",
"          ))    ",
"                "};