/* XPM */ 
static const char *const  bookmarkdlg_small_xpm[] = {
"16 16 57 1",
" 	c None",
"!	c black",
"#	c #568CCC",
"$	c #4781C7",
"%	c #4982C8",
"&	c #578CCD",
"'	c #3D75B7",
"(	c #2B68B0",
")	c #2D6AB1",
"*	c #2C69B0",
"+	c #2C69B1",
",	c #557DAD",
"-	c #446FA5",
".	c #4671A7",
"0	c #4571A6",
"1	c #4671A6",
"2	c #4470A6",
"3	c #537CAB",
"4	c #AEBCCD",
"5	c #C8D7F0",
"6	c #ADBCCD",
"7	c #C8D6EF",
"8	c #406BA3",
"9	c #4D75AA",
":	c #4876AC",
";	c #4676AD",
"<	c #4976AC",
"=	c #3F6AA2",
">	c #C8D5EE",
"?	c #4B74A9",
"@	c #5F85B5",
"A	c #5886B8",
"B	c #5586B9",
"C	c #4972A7",
"D	c #CCD8EE",
"E	c #4C75AA",
"F	c #6186B6",
"G	c #5987B9",
"H	c #5687BA",
"I	c #5A87B9",
"J	c #4A73A8",
"K	c #D0DCF0",
"L	c #D5DFF3",
"M	c #5481B5",
"N	c #4F80B5",
"O	c #DAE3F5",
"P	c #567DAF",
"Q	c #4671A8",
"R	c #3C69A3",
"S	c #4771A8",
"T	c #4871A7",
"U	c #DFE6F7",
"V	c #3D69A1",
"W	c #456FA5",
"X	c #C5D2E9",
"Y	c #CCD7ED",
"Z	c #466FA5",
"                ",
"                ",
"#$%%%%%%%%%%%%$&",
"'()*)*)+)*)*)*('",
",-.0.010.0.0.023",
"4555555555555556",
"677789:;;<9=7776",
"6>>>?@ABBA@C>>>6",
"6DDDEFGHHIFJDDD6",
"6KKKEFGHHIFJKKK6",
"6LLLEFMNNMFJLLL6",
"6OOOJPQRRSPTOOO6",
"6UUUVWXYYXZVUUU6",
"6666666666666666",
"                ",
"                "};