/* XPM */ 
static const char *const  bookmark_deleteall_small_xpm[] = {
"16 16 61 1",
" 	c None",
"!	c black",
"#	c #CE3331",
"$	c #CD3634",
"%	c #CC3231",
"&	c #CC2D2C",
"'	c #CE302F",
"(	c #CB2E2C",
")	c #CE3735",
"*	c #CD3333",
"+	c #C43534",
",	c #C86765",
"-	c #D17878",
".	c #C03432",
"0	c #BF2625",
"1	c #C85854",
"2	c #D2827F",
"3	c #C33E3D",
"4	c #2F5D9A",
"5	c #BC3532",
"6	c #C36966",
"7	c #E0C1C1",
"8	c #D49A97",
"9	c #CC7A79",
":	c #DDBEBD",
";	c #D19C9A",
"<	c #BB3D39",
"=	c #6488B7",
">	c #B52D29",
"?	c #AD1F1A",
"@	c #BD6463",
"A	c #EEEDEC",
"B	c #F8FDFD",
"C	c #D4AEAD",
"D	c #AB2A29",
"E	c #B12523",
"F	c #AC2D2B",
"G	c #BA625F",
"H	c #DCBEBD",
"I	c #CE9F9C",
"J	c #C58381",
"K	c #DEC2C0",
"L	c #CC9190",
"M	c #AC3433",
"N	c #A22C27",
"O	c #B36360",
"P	c #BC7A78",
"Q	c #A22C26",
"R	c #9E1C17",
"S	c #B15753",
"T	c #C08380",
"U	c #A53632",
"V	c #9A2520",
"W	c #9A2521",
"X	c #9A221C",
"Y	c #9A221D",
"Z	c #9B231F",
"[	c #99211B",
"]	c #9A241F",
"^	c #9A2320",
"_	c #5687BB",
"                ",
"                ",
"  #$%&'()*      ",
"  +,-.0123444   ",
"  56789:;<==4   ",
"  >?@ABCDE==4   ",
"  FGHIJKLM==4   ",
"  NOPQRSTU==4   ",
"  VWXYZ[]^==4   ",
"   4==____==4   ",
"   4==4444==4   ",
"   4=4    4=4   ",
"   44      44   ",
"                ",
"                ",
"                "};