/* XPM */
static const char* const breakpoint_add_small_xpm[] = {
"16 16 46 1 0 0",
"  c #F4BF70",
"! c #FFDE7B",
"# c #FFDE73",
"$ c #FFD67B",
"% c #FFD6AD",
"& c #F7D6B5",
"' c #FFCE8C",
"( c #FFC67B",
") c #94BDF7",
"* c #C6FFFF",
"+ c #94D6FF",
", c #D6AD8C",
"- c #FFD673",
". c #FFCE6B",
"/ c #6B7B9C",
"0 c #63A5F7",
"1 c #6BADFF",
"2 c #3973B5",
"3 c #FFAD6B",
"4 c #104A8C",
"5 c #296BB5",
"6 c #18529C",
"7 c #84634A",
"8 c #EF9C5A",
"9 c #00316B",
": c #185AA5",
"; c #003973",
"< c #5A4229",
"= c #FFC66B",
"> c #FFA552",
"? c #001042",
"@ c #00104A",
"A c #8C5221",
"B c #FFBD63",
"C c #FFB55A",
"D c #633921",
"E c #000000",
"F c #F79442",
"G c #FFBD5A",
"H c #5A3110",
"I c #081018",
"J c #210800",
"K c #C67329",
"L c #D67B29",
"M c #EF8C39",
"N c None",
"NNNNNNNNNNNNNNNN",
"NNNNNNNNNNNNNNNN",
"NNNNNNNNNNNNNNNN",
"NN            NN",
"NN !#!$%&'#$# NN",
"NN $#()**+,-! NN",
"NN -./010023- NN",
"NN -34555567- NN",
"NN .8966:6;<= NN",
"NN =>?;44;@A= NN",
"NN BCD?99@EFB NN",
"NN CGFHIIJKCB NN",
"NN CCCFLKM>CC NN",
"NN            NN",
"NNNNNNNNNNNNNNNN",
"NNNNNNNNNNNNNNNN"
};
