/* XPM */ 
static const char* const breakpoint_small_xpm[] = {
"10 10 54 1",
" 	c None",
"!	c black",
"#	c #D79128",
"$	c #DA9836",
"%	c #DC9F45",
"&	c #DFA957",
"'	c #FDD876",
"(	c #FED874",
")	c #E0CC9E",
"*	c #DEE1CB",
"+	c #DCE3D0",
",	c #D8CDA7",
"-	c #F7CE78",
".	c #FED975",
"0	c #FED471",
"1	c #C9AE7B",
"2	c #6F98CF",
"3	c #75B7F8",
"4	c #73B6F4",
"5	c #6099D9",
"6	c #AE9783",
"7	c #FBCD6F",
"8	c #FFC86B",
"9	c #8C7970",
":	c #1555A0",
";	c #2565B2",
"<	c #2566B3",
"=	c #195AA7",
">	c #475163",
"?	c #DBAE5F",
"@	c #FFC164",
"A	c #88644F",
"B	c #022D6C",
"C	c #0E498E",
"D	c #0E4B90",
"E	c #023070",
"F	c #413537",
"G	c #DDA455",
"H	c #FEBD60",
"I	c #C78544",
"J	c #392932",
"K	c #022451",
"L	c #002252",
"M	c #151129",
"N	c #995F2C",
"O	c #FBB65C",
"P	c #FDB75B",
"Q	c #FFB156",
"R	c #CA7D38",
"S	c #814F23",
"T	c #754721",
"U	c #AF662A",
"V	c #F4A54E",
"W	c #FEB85E",
"          ",
"##$%&&%$##",
"#'()*+,-.#",
"$01234567$",
"%89:;<=>?%",
"%@ABCDEFG%",
"$HIJKLMNO$",
"#PQRSTUVW#",
"##$%&&%$##",
"          "};