/* XPM */
static const char* const clear_small_xpm[] = {
"16 16 23 1",
" 	c None",
".	c #274E81",
"+	c #4D82CA",
"@	c #3A74C0",
"#	c #366AB1",
"$	c #3263A5",
"%	c #2D5893",
"&	c #9EBBE2",
"*	c #AAC4E6",
"=	c #B9CEEA",
"-	c #CBDAEF",
";	c #DAE4F3",
">	c #E7EDF8",
",	c #FCFDFE",
"'	c #F3FAFF",
")	c #D23432",
"!	c #D02E2C",
"~	c #D02E2D",
"{	c #D23433",
"]	c #D23534",
"^	c #D23231",
"/	c #D02D2B",
"(	c #D03332",
"                ",
"                ",
"  .++@@##$$%..  ",
"  +&*=-;>,,,,+  ",
"  +&*=-;>,,,,+  ",
"  +&*=-;>,,,'+  ",
"  @&*=-;>,,,,@  ",
"  @&)!~{]^/(,@  ",
"  #&)!~{]^/(,#  ",
"  #&*=-;>,,,,#  ",
"  $&*=-;>,,,,$  ",
"  $&*=-;>,,,,$  ",
"  %&*=-;>,,,,%  ",
"  .&*=-;>,,,,.  ",
"  .++@@##$$%..  ",
"                "};
