/* XPM */ 
static const char* const code_small_xpm[] = {
"16 16 52 1",
" 	c None",
"!	c black",
"#	c #6298CA",
"$	c #4B8AC2",
"%	c #3D7BB4",
"&	c #326492",
"'	c #D1A23D",
"(	c #72A3CF",
")	c #FFE15D",
"*	c #85AFD6",
"+	c #FFD461",
",	c #FFD659",
"-	c #FFD855",
".	c #FFDB53",
"0	c #D9B05E",
"1	c #FFE49C",
"2	c #FFDD97",
"3	c #FFDE97",
"4	c #FFEA91",
"5	c #FFE196",
"6	c #FFDA90",
"7	c #FFDB90",
"8	c #FFEA89",
"9	c #DCB86B",
":	c #FFDF8F",
";	c #FFD788",
"<	c #FFD888",
"=	c #FFE782",
">	c #FFF2C8",
"?	c #FFE9BD",
"@	c #FFEABC",
"A	c #FFFBBB",
"B	c #DFBE7B",
"C	c #FFF0C1",
"D	c #FFE6B5",
"E	c #FFE8B4",
"F	c #FAF7B6",
"G	c #FFE7B4",
"H	c #FFF8B4",
"I	c #FFECC1",
"J	c #FFE2B5",
"K	c #FFE2B4",
"L	c #FFF4B4",
"M	c #E2C689",
"N	c #FFFFC1",
"O	c #FFFFB5",
"P	c #FFFFB4",
"Q	c #FFFFC2",
"R	c #FFFFB6",
"S	c #99BDDD",
"T	c #E8D1A2",
"U	c #FFFFCC",
"                ",
"    #$%&&%$#    ",
"  ''(#$%%$#(''  ",
"  ')*(#$$#(*)'  ",
"  '+,-.+,+,-.'  ",
"  012343434340  ",
"  056######780  ",
"  9:;<=<=<=<=9  ",
"  9>?@(((((@A9  ",
"  BCDEFGHGHGHB  ",
"  BIJE*****KLB  ",
"  MNOPPPPPPPPM  ",
"  MQRSSSSSSOOM  ",
"  TUNNQNQNQNQT  ",
"  TMMBB99BBMMT  ",
"                "};