/* XPM */ 
static const char *const  colors_small_xpm[] = {
"16 16 144 2",
"  	c None",
"! 	c black",
"# 	c #3CAE3B",
"$ 	c #21B622",
"% 	c #20C92D",
"& 	c #1FD941",
"' 	c #26DE57",
"( 	c #40E56F",
") 	c #63EB88",
"* 	c #7DF19E",
"+ 	c #9CFAB1",
", 	c #B6FECA",
"- 	c #CEFFDC",
". 	c #E3FFF3",
"0 	c #21A325",
"1 	c #02AE13",
"2 	c #01C229",
"3 	c #01D23F",
"4 	c #0ADA53",
"5 	c #29E46C",
"6 	c #50EC85",
"7 	c #6DF29B",
"8 	c #8EF9AF",
"9 	c #ACFEC9",
": 	c #CAFFDA",
"; 	c #20A33A",
"< 	c #01AE31",
"= 	c #00C946",
"> 	c #00D85E",
"? 	c #0DDF70",
"@ 	c #2BE986",
"A 	c #4EF09B",
"B 	c #6FF7B0",
"C 	c #8EFDC0",
"D 	c #ABFFD2",
"E 	c #CCFFE5",
"F 	c #E5FFF6",
"G 	c #20A65A",
"H 	c #01B555",
"I 	c #00D06F",
"J 	c #00DC80",
"K 	c #10E194",
"L 	c #32ECA4",
"M 	c #53F0B3",
"N 	c #6FF7C4",
"O 	c #90FDD1",
"P 	c #ADFFDF",
"Q 	c #CAFFF0",
"R 	c #E4FFFA",
"S 	c #20AA74",
"T 	c #01B878",
"U 	c #00D094",
"V 	c #00DDA2",
"W 	c #12E9AF",
"X 	c #34EEBD",
"Y 	c #56F3C6",
"Z 	c #72FAD3",
"[ 	c #90FEDE",
"] 	c #B0FEEC",
"^ 	c #C7FEF9",
"_ 	c #E3FFFB",
"` 	c #20AD8E",
"a 	c #01BD99",
"b 	c #00D6B5",
"c 	c #02E3C0",
"d 	c #15EACB",
"e 	c #34EFD2",
"f 	c #56F7E2",
"g 	c #76FDE7",
"h 	c #92FEEB",
"i 	c #B0FDF9",
"j 	c #CAFCFD",
"k 	c #E4FFFF",
"l 	c #20A9A4",
"m 	c #01BAB4",
"n 	c #00D5D1",
"o 	c #02E2DE",
"p 	c #16E9E6",
"q 	c #38EFEB",
"r 	c #5BEEF3",
"s 	c #76F7F4",
"t 	c #92FAFB",
"u 	c #B0FEFF",
"v 	c #CAFEFF",
"w 	c #208BA2",
"x 	c #0193AD",
"y 	c #00ADCA",
"z 	c #00B9D5",
"{ 	c #0CC2DC",
"| 	c #2BD0E5",
"} 	c #50D5EC",
"~ 	c #6CE5F6",
" !	c #8CEEFB",
"!!	c #ADF7FE",
"#!	c #C7FAFF",
"$!	c #E3FEFF",
"%!	c #206998",
"&!	c #01629E",
"'!	c #0078B4",
"(!	c #0086C0",
")!	c #0194C6",
"*!	c #15A7D1",
"+!	c #3DB8E0",
",!	c #60C5E7",
"-!	c #7ED0EB",
".!	c #A3E5F8",
"0!	c #C5F0FF",
"1!	c #E3FCFF",
"2!	c #204994",
"3!	c #013B95",
"4!	c #004CA8",
"5!	c #005DB0",
"6!	c #0072B8",
"7!	c #0B82C1",
"8!	c #3098D2",
"9!	c #56A6DB",
":!	c #76BCE5",
";!	c #9CD2F3",
"<!	c #C1E4FD",
"=!	c #E3F6FF",
">!	c #213B97",
"?!	c #032296",
"@!	c #022BA2",
"A!	c #023AA5",
"B!	c #024AAB",
"C!	c #055DB6",
"D!	c #2378C1",
"E!	c #4A91CF",
"F!	c #70A7DC",
"G!	c #98C3ED",
"H!	c #BDDAF8",
"I!	c #E2F3FD",
"J!	c #5C66BB",
"K!	c #4750B7",
"L!	c #4656BD",
"M!	c #465FC1",
"N!	c #4565C1",
"O!	c #4678C7",
"P!	c #5A8DCD",
"Q!	c #779FD7",
"R!	c #94B1E3",
"S!	c #B3CFEF",
"T!	c #CDE1FA",
"U!	c #E3F3FE",
"                                ",
"                                ",
"    # $ % & ' ( ) * + , - .     ",
"    0 1 2 3 4 5 6 7 8 9 : .     ",
"    ; < = > ? @ A B C D E F     ",
"    G H I J K L M N O P Q R     ",
"    S T U V W X Y Z [ ] ^ _     ",
"    ` a b c d e f g h i j k     ",
"    l m n o p q r s t u v k     ",
"    w x y z { | } ~  !!!#!$!    ",
"    %!&!'!(!)!*!+!,!-!.!0!1!    ",
"    2!3!4!5!6!7!8!9!:!;!<!=!    ",
"    >!?!@!A!B!C!D!E!F!G!H!I!    ",
"    J!K!L!M!N!O!P!Q!R!S!T!U!    ",
"                                ",
"                                "};