/* XPM */
static const char* const comment_small_xpm[] = {
"16 16 61 1",
" 	c None",
".	c #356A9B",
"+	c #3871A5",
"@	c #3C78B0",
"#	c #4987C2",
"$	c #508CC4",
"%	c #CAC9D1",
"&	c #B5CBFF",
"*	c #BAD5FF",
"=	c #B6D0FF",
"-	c #B6D2FF",
";	c #B8D2FF",
">	c #A2B8E6",
",	c #5B93C8",
"'	c #DBD6DC",
")	c #BFD1FB",
"!	c #4BCC58",
"~	c #B4CDFF",
"{	c #B4CEFF",
"]	c #B0CBFC",
"^	c #B9CBFB",
"/	c #6097C9",
"(	c #BCD1FF",
"_	c #42C44E",
":	c #BBD1FF",
"<	c #BAD1FE",
"[	c #BBD3FF",
"}	c #CCDFFF",
"|	c #C6D5FE",
"1	c #C0D5FF",
"2	c #39BC45",
"3	c #23A12F",
"4	c #D2E1FF",
"5	c #CDD9FF",
"6	c #C6D9FF",
"7	c #34B541",
"8	c #C5D8FF",
"9	c #28A634",
"0	c #D4E2FF",
"a	c #D4E3FF",
"b	c #D3DDFE",
"c	c #CBDDFF",
"d	c #2DAB39",
"e	c #D7E4FF",
"f	c #D9E6FF",
"g	c #DAE3FD",
"h	c #D2E0FF",
"i	c #D1E0FF",
"j	c #DCE7FF",
"k	c #DFEAFF",
"l	c #E5EBFF",
"m	c #D9E7FE",
"n	c #D9E6FE",
"o	c #E4EDFF",
"p	c #E6ECFF",
"q	c #E5F0FF",
"r	c #EEF6FF",
"s	c #E5EEFF",
"t	c #F0F7FF",
"u	c #F1F8FF",
"v	c #FFFFFF",
"                ",
"  ...+@@###$%   ",
"  .&**=-;;=>,'  ",
"  .))!!!!~{]^/  ",
"  +)(__(::<[}$  ",
"  @|122113344$  ",
"  @567768990a@  ",
"  #bcddccddef@  ",
"  #gh99hi77jk+  ",
"  $lm33nn22jo+  ",
"  $pqqqqq__or+  ",
"  $pppp!!!!rr+  ",
"  $stutttttuv.  ",
"  ,$$$##@@++..  ",
"                ",
"                "};
