/* XPM */ 
static const char *const  console_small_xpm[] = {
"16 16 72 1",
" 	c None",
"!	c black",
"#	c #568CCC",
"$	c #4781C7",
"%	c #4982C8",
"&	c #578CCD",
"'	c #3D75B7",
"(	c #2B68B0",
")	c #2D6AB1",
"*	c #2C69B0",
"+	c #2C69B1",
",	c #557DAD",
"-	c #446FA5",
".	c #4671A7",
"0	c #4571A6",
"1	c #4671A6",
"2	c #4470A6",
"3	c #537CAB",
"4	c #AEBCCD",
"5	c #C8D6EF",
"6	c #C8D7F0",
"7	c #ADBCCD",
"8	c #C8D5EE",
"9	c #8CA7D2",
":	c #AFC4E8",
";	c #C7D8F8",
"<	c #4870A1",
"=	c #5378A7",
">	c #7694BE",
"?	c #9FB5DA",
"@	c #BDD2F2",
"A	c #CBD7EE",
"B	c #98B1D7",
"C	c #6B8DBA",
"D	c #466B9D",
"E	c #476E9D",
"F	c #6D8FBB",
"G	c #C1D1ED",
"H	c #CCD8EE",
"I	c #CEDAEE",
"J	c #B1C6EA",
"K	c #8EA9D4",
"L	c #5E7FAE",
"M	c #3C6396",
"N	c #577BAA",
"O	c #B8CBEB",
"P	c #D0DCF0",
"Q	c #D4DEF2",
"R	c #5C81AE",
"S	c #4A6FA2",
"T	c #5277A4",
"U	c #7695BF",
"V	c #A6BCDF",
"W	c #D5E3FC",
"X	c #D5DFF3",
"Y	c #52739E",
"Z	c #486E9C",
"[	c #D9E2F4",
"]	c #6385B4",
"^	c #87A2CC",
"_	c #B0C3E6",
"`	c #DCE6FF",
"a	c #DAE3F5",
"b	c #B3C7EA",
"c	c #DDE4F5",
"d	c #CCDCF8",
"e	c #D7E4FC",
"f	c #E1EDFF",
"g	c #E4EDFF",
"h	c #E3ECFF",
"i	c #EBF3FF",
"j	c #DFE6F7",
"                ",
"                ",
"#$%%%%%%%%%%%%$&",
"'()*)*)+)*)*)*('",
",-.0.010.0.0.023",
"4555555555566667",
"7889:;5555555557",
"788<=>?@88888887",
"7AABCDEFGHHHHHH7",
"7IIJKLMNOPPPPPP7",
"7QQRSTUVWXYZZYX7",
"7[[]^_```abbbba7",
"7ccdefghijjjjjj7",
"7777777777777777",
"                ",
"                "};