/* XPM */ 
static const char* const copy_small_xpm[] = {
"16 16 89 1",
" 	c None",
"!	c black",
"#	c #356A9B",
"$	c #3871A5",
"%	c #3C78B0",
"&	c #4987C2",
"'	c #D1CBD1",
"(	c #ADC2FA",
")	c #BBD4FF",
"*	c #C2D9FF",
"+	c #C6DDFF",
",	c #C7DDFF",
"-	c #B8CDFF",
".	c #5B93C8",
"0	c #E8E3E6",
"1	c #D4D4DF",
"2	c #B9CEFE",
"3	c #C4DAFF",
"4	c #508CC4",
"5	c #CAC9D1",
"6	c #C0D2FC",
"7	c #D0E0FF",
"8	c #B5CBFF",
"9	c #BAD5FF",
":	c #B6D0FF",
";	c #B6D2FF",
"<	c #B8D2FF",
"=	c #A2B8E6",
">	c #DBD6DC",
"?	c #C7D6FF",
"@	c #D6E7FF",
"A	c #B7CCFC",
"B	c #B7D1FF",
"C	c #B4CDFF",
"D	c #B4CEFF",
"E	c #B0CBFC",
"F	c #B9CBFB",
"G	c #6097C9",
"H	c #CEDAFF",
"I	c #DDECFF",
"J	c #BFD1FB",
"K	c #BFD2FF",
"L	c #BCD0FE",
"M	c #BCD1FF",
"N	c #BBD1FF",
"O	c #BAD1FE",
"P	c #BBD3FF",
"Q	c #CCDFFF",
"R	c #D4DEFF",
"S	c #E5F0FF",
"T	c #C6D5FE",
"U	c #C3D8FF",
"V	c #C0D5FF",
"W	c #C1D5FF",
"X	c #D2E1FF",
"Y	c #DCE4FD",
"Z	c #ECF4FF",
"[	c #CDD9FF",
"]	c #C9DCFF",
"^	c #C6D9FF",
"_	c #C5D8FF",
"`	c #C6D8FF",
"a	c #C6DBFF",
"b	c #D6E4FF",
"c	c #E6ECFF",
"d	c #F3F9FF",
"e	c #D3DDFE",
"f	c #CFE0FF",
"g	c #CCDDFE",
"h	c #CBDDFF",
"i	c #CCDCFF",
"j	c #CCDDFF",
"k	c #DEE9FF",
"l	c white",
"m	c #DAE3FD",
"n	c #D5E3FF",
"o	c #D2E0FD",
"p	c #D2E0FF",
"q	c #D1E0FF",
"r	c #E5EEFF",
"s	c #E5EBFF",
"t	c #DCE8FF",
"u	c #D9E6FF",
"v	c #D9E7FE",
"w	c #D9E6FE",
"x	c #DAE7FE",
"y	c #EEF6FF",
"z	c #F1F8FF",
"{	c #F0F7FF",
"                ",
"                ",
"  ##$$%%&&'     ",
"  #()*+,,-.01   ",
"  $23##$%%&&45  ",
"  $67#89:;<:=.> ",
"  %?@$ABCCCDEFG ",
"  %HI$JKLMNOPQ4 ",
"  &RS%TUVVWWWX4 ",
"  &YZ%[]^^_`ab% ",
"  4cd&efghhijk% ",
"  4ll&mnopqpXr$ ",
"  .$$4stuvwwxy$ ",
"     4lz{{{{zl# ",
"     .44&&%$$## ",
"                "};