/* XPM */
static const char* const cut_small_xpm[] = {
"16 16 33 1",
" 	c None",
".	c #356A9B",
"+	c #3871A5",
"@	c #3C78B0",
"#	c #4987C2",
"$	c #CAC9D1",
"%	c #B5CBFF",
"&	c #5B93C8",
"*	c #DBD6DC",
"=	c #BFD1FB",
"-	c #6097C9",
";	c #6C88BE",
">	c #C6D5FE",
",	c #CDD9FF",
"'	c #F287A0",
")	c #EE819B",
"!	c #E9708D",
"~	c #E75174",
"{	c #D5D6F6",
"]	c #EA8CA2",
"^	c #D3DDFE",
"/	c #D5D6F7",
"(	c #FAA3B7",
"_	c #F596AC",
":	c #DBDBF5",
"<	c #E76987",
"[	c #DAE3FD",
"}	c #DBDAF4",
"|	c #508CC4",
"1	c #E5E3F7",
"2	c #E5EBFF",
"3	c #E6ECFF",
"4	c #E5EEFF",
"                ",
"  ...+@@###$    ",
"  .%%%%%%%%&*   ",
"  .=========-   ",
"  +=========;   ",
"  @>>>>>>>>>&   ",
"  @,,,,,,,,,')!~",
"  #{]]^]]/(_')!~",
"  #:<<[<<}(_')!~",
"  |1~~2~~2(_')!~",
"  |333333333&   ",
"  |333333333+   ",
"  |444444444.   ",
"  &|||##@@+..   ",
"                ",
"                "};
