/* XPM */ 
static const char *const  debug_small_xpm[] = {
"16 16 89 1",
" 	c None",
"!	c black",
"#	c #568CCC",
"$	c #4781C7",
"%	c #4982C8",
"&	c #578CCD",
"'	c #3D75B7",
"(	c #2B68B0",
")	c #2D6AB1",
"*	c #2C69B0",
"+	c #2C69B1",
",	c #557DAD",
"-	c #446FA5",
".	c #4671A7",
"0	c #4571A6",
"1	c #4671A6",
"2	c #4470A6",
"3	c #537CAB",
"4	c #AEBCCD",
"5	c #C8D7F0",
"6	c #F5C26F",
"7	c #F7C971",
"8	c #F8C876",
"9	c #F7C882",
":	c #F6C785",
";	c #F7C777",
"<	c #F7C772",
"=	c #F4C070",
">	c #ADBCCD",
"?	c #C8D6EF",
"@	c #F7C870",
"A	c #F7D378",
"B	c #DFCD9E",
"C	c #D7D9C8",
"D	c #D5DBCC",
"E	c #D7C9A1",
"F	c #F3CC7B",
"G	c #F5C270",
"H	c #C8D5EE",
"I	c #F2C06F",
"J	c #CBB17F",
"K	c #7799C2",
"L	c #72B1EF",
"M	c #70B3EE",
"N	c #6694C7",
"O	c #BA9D7D",
"P	c #EFBA6D",
"Q	c #CCD8EE",
"R	c #EBB26C",
"S	c #9C8472",
"T	c #1F589D",
"U	c #2969B6",
"V	c #2869B6",
"W	c #1C59A1",
"X	c #635C5E",
"Y	c #DEAD66",
"Z	c #D0DCF0",
"[	c #EBAE65",
"]	c #987055",
"^	c #093169",
"_	c #0D468B",
"`	c #032D67",
"a	c #5D463A",
"b	c #DEAA62",
"c	c #D5DFF3",
"d	c #F3B665",
"e	c #C48749",
"f	c #43353A",
"g	c #08264E",
"h	c #03214C",
"i	c #231F2C",
"j	c #AA6D38",
"k	c #EFB467",
"l	c #DAE3F5",
"m	c #F7BB67",
"n	c #F4AB53",
"o	c #C27B3A",
"p	c #83532A",
"q	c #7A4C27",
"r	c #AF6B30",
"s	c #EDA24F",
"t	c #F5BB6B",
"u	c #DFE6F7",
"v	c #F4BD6E",
"w	c #F6BB6A",
"x	c #F4B867",
"y	c #EEB161",
"z	c #ECB061",
"{	c #F3B666",
"                ",
"                ",
"#$%%%%%%%%%%%%$&",
"'()*)*)+)*)*)*('",
",-.0.010.0.0.023",
"45556789:;<=555>",
">HHH@ABCDEFGHHH>",
">HHHIJKLMNOPHHH>",
">QQQRSTUVWXYQQQ>",
">ZZZ[]^__`abZZZ>",
">cccdefghijkccc>",
">lllmnopqrstlll>",
">uuuvwxyz{wvuuu>",
">>>>>>>>>>>>>>>>",
"                ",
"                "};