/* XPM */
static const char* const error_small_xpm[] = {
"6 12 7 1 0 0",
"  c #FB7777",
"! c #FA6666",
"# c #F94545",
"$ c #F92A2A",
"% c #F80C0C",
"& c #E40707",
"' c None",
"      ",
"!!!!!!",
"######",
"$$$$$$",
"%%%%%%",
"&&&&&&",
"&&&&&&",
"%%%%%%",
"$$$$$$",
"######",
"!!!!!!",
"      "
};
