/* XPM */ 
static const char* const filelist_small_xpm[] = {
"16 16 6 1",
" 	c None",
"!	c black",
"#	c #5C6BBD",
"$	c #4A5BB5",
"%	c #4453A7",
"&	c #3D4B96",
"                ",
"                ",
"                ",
"                ",
"                ",
"    #$%&&%$#    ",
"                ",
"    #$%&&%$#    ",
"     $%&&%$     ",
"      %&&%      ",
"       &&       ",
"                ",
"                ",
"                ",
"                ",
"                "};