/* XPM */ 
static const char* const fileopen_small_xpm[] = {
"16 16 23 1",
" 	c None",
"!	c black",
"#	c #FF8548",
"$	c #D94600",
"%	c #FF6D24",
"&	c #F05500",
"'	c #ECE780",
"(	c #787100",
")	c #868304",
"*	c #999317",
"+	c #9E9B1C",
",	c #BCB51D",
"-	c #EFEB92",
".	c #F1EDA3",
"0	c #ACA51A",
"1	c #BA3C00",
"2	c #94940C",
"3	c #C9C01F",
"4	c #9B3200",
"5	c #DAD021",
"6	c #E0D830",
"7	c #E2DA3F",
"8	c #E7E061",
"                ",
"                ",
"                ",
"     ##$        ",
"     #$%& &     ",
" '()*+ &&%$     ",
" ,'-.*0,%$10*+2 ",
" ,'-.33&&14333) ",
" 0'-355555555)  ",
" *',666666662   ",
" +077777777+    ",
" 288888888*     ",
" (2+*0,3,0      ",
"                ",
"                ",
"                "};