/* XPM */ 
static const char* const filesave_disabled_small_xpm[] = {
"16 16 23 1",
" 	c None",
"!	c black",
"#	c #626262",
"$	c #707070",
"%	c #F7F7F7",
"&	c #F4F4F4",
"'	c #E9E9E9",
"(	c #767676",
")	c #787878",
"*	c #E6E6E6",
"+	c #DEDEDE",
",	c #6D6D6D",
"-	c #E7E7E7",
".	c #E2E2E2",
"0	c #DDDDDD",
"1	c #D7D7D7",
"2	c #D2D2D2",
"3	c #C7C7C7",
"4	c #C0C0C0",
"5	c #BABABA",
"6	c #B4B4B4",
"7	c #B1B1B1",
"8	c #818181",
"                ",
" ############## ",
" #$%%%%%%%%%&$# ",
" #$%''''''''&$# ",
" #(&%%%&%%%%&(# ",
" #$%''''''''&$# ",
" #)&%%%&%%%&&)# ",
" #$&%%&%%&%%&$# ",
" #(*'*'**+*++(# ",
" #$$,$,$,$$$,$# ",
" #(-.01234567(# ",
" #,-.8(234567,# ",
" #$-.8(234567$# ",
" #(-.8(234567(# ",
" ##-.8(234567## ",
"                "};