/* XPM */ 
static const char *const  filesaveall_small_xpm[] = {
"16 16 106 2",
"  	c None",
"! 	c black",
"# 	c #325D99",
"$ 	c #4E73A5",
"% 	c #7794BB",
"& 	c #7995BC",
"' 	c #7694BB",
"( 	c #4D73A5",
") 	c #305C99",
"* 	c #38619A",
"+ 	c #7C94B8",
", 	c #E1E6ED",
"- 	c #DFE5ED",
". 	c #E0E6EE",
"0 	c #E0E5ED",
"1 	c #DDE6ED",
"2 	c #7A94B8",
"3 	c #325E99",
"4 	c #39629B",
"5 	c #809ABB",
"6 	c #EAF0F2",
"7 	c #E8EDF2",
"8 	c #E7EEF3",
"9 	c #E9EEF3",
": 	c #E9F0F2",
"; 	c #7F9ABB",
"< 	c #325F99",
"= 	c #39639C",
"> 	c #829BBC",
"? 	c #EBF1F3",
"@ 	c #3A639B",
"A 	c #839BBC",
"B 	c #F0F4F5",
"C 	c #38639B",
"D 	c #7995B9",
"E 	c #DCE2EA",
"F 	c #37629B",
"G 	c #5F80AB",
"H 	c #90A6C3",
"I 	c #EBEEF3",
"J 	c #E9EFF4",
"K 	c #EBEFF4",
"L 	c #E9F1F3",
"M 	c #819BBC",
"N 	c #37639B",
"O 	c #6D8CB4",
"P 	c #B3C5DA",
"Q 	c #F2F4F6",
"R 	c #F0F5F6",
"S 	c #F1F5F6",
"T 	c #EEF4F5",
"U 	c #829CBC",
"V 	c #335F98",
"W 	c #376199",
"X 	c #CEDCEB",
"Y 	c #DFE5EB",
"Z 	c #DDE5EC",
"[ 	c #DDE4EB",
"] 	c #DBE3E9",
"^ 	c #DCE3E9",
"_ 	c #D8E0E8",
"` 	c #7894B7",
"a 	c #37639C",
"b 	c #7A96BB",
"c 	c #CAD9E9",
"d 	c #92A7C5",
"e 	c #90A6C4",
"f 	c #89A2C1",
"g 	c #86A0BF",
"h 	c #869EBF",
"i 	c #829BBD",
"j 	c #597BA8",
"k 	c #315F9A",
"l 	c #305D9A",
"m 	c #6F8EB8",
"n 	c #CADAEA",
"o 	c #93AFCE",
"p 	c #8DA9C9",
"q 	c #9AB3D0",
"r 	c #91ADCC",
"s 	c #88A6C9",
"t 	c #7FA1C5",
"u 	c #567DAB",
"v 	c #7AA0C9",
"w 	c #749AC3",
"x 	c #B2C7DF",
"y 	c #AAC3DD",
"z 	c #9CB9D7",
"{ 	c #92B3D2",
"| 	c #5D82AE",
"} 	c #305E99",
"~ 	c #6E97C3",
" !	c #6891BD",
"!!	c #AFC5DD",
"#!	c #A9C2DC",
"$!	c #9AB7D7",
"%!	c #90B1D2",
"&!	c #5D83B0",
"'!	c #315E99",
"(!	c #7099C4",
")!	c #6A93BE",
"*!	c #B0C6DE",
"+!	c #9BB8D7",
",!	c #91B1D2",
"-!	c #537AAD",
".!	c #2E5C99",
"                                ",
"  # $ % & & & & & ' ( )         ",
"  * + , - . . . 0 1 2 3         ",
"  4 5 6 7 8 8 9 7 : ; <         ",
"  = > ? # $ % & & & & & ' ( )   ",
"  @ A B * + , - . . . 0 1 2 3   ",
"  C D E 4 5 6 7 8 8 9 7 : ; <   ",
"  F G H = > ? I J J K 9 L M <   ",
"  N O P @ A B Q R R S B T U V   ",
"  W D X C D E Y Z [ ] ^ _ ` <   ",
"  a b c F G H d e f g h i j k   ",
"  l m n N O P o p q r s t u k   ",
"        W D X v w x y z { | }   ",
"        a b c ~  !!!#!$!%!&!'!  ",
"        l m n (!)!*!#!+!,!-!.!  ",
"                                "};