/* XPM */ 
static const char* const fileopen_disabled_small_xpm[] = {
"16 16 22 1",
" 	c None",
"!	c black",
"#	c #999999",
"$	c #5F5F5F",
"%	c #858585",
"&	c #6C6C6C",
"'	c #C6C6C6",
"(	c #4D4D4D",
")	c #595959",
"*	c #6B6B6B",
"+	c #717171",
",	c #848484",
"-	c #CECECE",
".	c #D5D5D5",
"0	c #797979",
"1	c #525252",
"2	c #666666",
"3	c #8D8D8D",
"4	c #444444",
"5	c #A2A2A2",
"6	c #A9A9A9",
"7	c #B8B8B8",
"                ",
"                ",
"                ",
"     ##$        ",
"     #$%& &     ",
" '()*+ &&%$     ",
" ,'-.*0,%$10*+2 ",
" ,'-.33&&14333) ",
" 0'-3########)  ",
" *',555555552   ",
" +066666666+    ",
" 277777777*     ",
" (2+*0,3,0      ",
"                ",
"                ",
"                "};