/* XPM */ 
static const char* const filenew_small_xpm[] = {
"16 16 27 1",
" 	c None",
"!	c black",
"#	c #FF8548",
"$	c #274E81",
"%	c #2D5893",
"&	c #3263A5",
"'	c #366AB1",
"(	c #3A74C0",
")	c #C2D9DB",
"*	c #FF6D24",
"+	c #9EBBE2",
",	c #AAC4E6",
"-	c #B9CEEA",
".	c #CBDAEF",
"0	c #DAE4F3",
"1	c #E7EDF8",
"2	c #D7E4CD",
"3	c #FF9D6C",
"4	c #F05500",
"5	c #C1D9DC",
"6	c white",
"7	c #BDD0B1",
"8	c #5B8CCE",
"9	c #F3FAFF",
":	c #BED0B1",
";	c #4D82CA",
"<	c #FCFDFE",
"           #    ",
"  $$%&&''()*)   ",
"  $+,-.0123435  ",
"  %+,-.0#*464*# ",
"  &+,-.017343)  ",
"  &+888889:*2;  ",
"  '+,-.01<<#<(  ",
"  '+,-.01<<<<(  ",
"  (+88888888<'  ",
"  (+,-.01<<<<'  ",
"  ;+,-.01<<<<&  ",
"  ;+88888888<&  ",
"  ;+,-.01<<<<%  ",
"  ;+,-.01<<<<$  ",
"  ;;;((''&&%$$  ",
"                "};