/* XPM */ 
static const char *const  filesaveall_disabled_small_xpm[] = {
"16 16 58 1",
" 	c None",
"!	c black",
"#	c #626262",
"$	c #777777",
"%	c #979797",
"&	c #989898",
"'	c #616161",
"(	c #666666",
")	c #E6E6E6",
"*	c #E5E5E5",
"+	c #636363",
",	c #676767",
"-	c #9C9C9C",
".	c #EEEEEE",
"0	c #EDEDED",
"1	c #686868",
"2	c #9D9D9D",
"3	c #EFEFEF",
"4	c #9E9E9E",
"5	c #F3F3F3",
"6	c #E2E2E2",
"7	c #838383",
"8	c #A8A8A8",
"9	c #8F8F8F",
":	c #C6C6C6",
";	c #F4F4F4",
"<	c #F2F2F2",
"=	c #656565",
">	c #DCDCDC",
"?	c #E4E4E4",
"@	c #E0E0E0",
"A	c #969696",
"B	c #999999",
"C	c #D9D9D9",
"D	c #AAAAAA",
"E	c #A4A4A4",
"F	c #A1A1A1",
"G	c #7E7E7E",
"H	c #919191",
"I	c #DADADA",
"J	c #B0B0B0",
"K	c #B4B4B4",
"L	c #AEAEAE",
"M	c #A7A7A7",
"N	c #7F7F7F",
"O	c #9B9B9B",
"P	c #C8C8C8",
"Q	c #C3C3C3",
"R	c #B9B9B9",
"S	c #B2B2B2",
"T	c #848484",
"U	c #929292",
"V	c #C5C5C5",
"W	c #C2C2C2",
"X	c #B8B8B8",
"Y	c #B1B1B1",
"Z	c #858585",
"[	c #939393",
"                ",
" #$%&&&&&%$'    ",
" (&)*))))*%+    ",
" ,-.000.0.-+    ",
" 123#$%&&&&&%$' ",
" 145(&)*))))*%+ ",
" ,%6,-.000.0.-+ ",
" (78123...3.32+ ",
" ,9:145;55;5<4+ ",
" =%>,%6*??66@A+ ",
" ,BC(78D8EFF4G+ ",
" #HI,9:JDKLMFN+ ",
"    =%>FOPQRST# ",
"    ,BC&UVWXYZ# ",
"    #HIB[:WXYG' ",
"                "};