/* XPM */
static const char* const filesaveas_small_xpm[] = {
"16 16 24 1 0 0",
"  c #2F5D9A",
"! c #4A6B9C",
"# c #F7F7F7",
"$ c #EFF7F7",
"% c #BDCCD7",
"& c #4A73A5",
"' c #5273A5",
"( c #DEE7EF",
") c #E7E7EF",
"* c #D6DEE7",
"+ c #426B9C",
", c #DDE7F2",
"- c #D6E2EF",
". c #CFDDEC",
"/ c #C7D7E9",
"0 c #BFD2E6",
"1 c #B0C7E0",
"2 c #A6C0DC",
"3 c #9DBAD8",
"4 c #95B4D5",
"5 c #90B1D3",
"6 c #4B80B8",
"7 c #4475AB",
"8 c None",
"8888888888888888",
"8              8",
"8 !#########$! 8",
"8 !#%%%%%%%%$! 8",
"8 &$###$####$& 8",
"8 !#%%%%%%%%$! 8",
"8 '$###$###$$' 8",
"8 !$%%%%%%%%$! 8",
"8 &()()((*(**& 8",
"8 !!+!+!+!!!+! 8",
"8 &,-./012345& 8",
"8 +,-67012345+ 8",
"8 !,-67012345! 8",
"8 &,-67012345& 8",
"8  ,-67012345  8",
"8888888888888888"
};
