/* XPM */ 
static const char *const  find_files_small_xpm[] = {
"16 16 111 2",
"  	c None",
"! 	c #D8BE73",
"# 	c #D6BC71",
"$ 	c #D6BD70",
"% 	c #CFB669",
"& 	c #DFC279",
"' 	c black",
"( 	c #D3BC70",
") 	c #CFB969",
"* 	c #CFBA65",
"+ 	c #BFAA5A",
", 	c #CEB875",
"- 	c #D1BB6C",
". 	c #C8B158",
"0 	c #C8B051",
"1 	c #B9A65C",
"2 	c #C7B785",
"3 	c #65769F",
"4 	c #3E5286",
"5 	c #3B5083",
"6 	c #3B4F84",
"7 	c #CFB96A",
"8 	c #C4AC52",
"9 	c #C2A94C",
": 	c #BBA761",
"; 	c #D0BD93",
"< 	c #5176AF",
"= 	c #6E8FC0",
"> 	c #ACC0DD",
"? 	c #CADBEB",
"@ 	c #BBCEE4",
"A 	c #CCB666",
"B 	c #BFA54C",
"C 	c #BBA445",
"D 	c #BAA55B",
"E 	c #CCBA87",
"F 	c #6889B8",
"G 	c #6788BB",
"H 	c #E6F2FB",
"I 	c #F5FEFF",
"J 	c #EBF7FA",
"K 	c #F0FAFE",
"L 	c #CCB364",
"M 	c #B9A047",
"N 	c #B59B3D",
"O 	c #BBA24E",
"P 	c #C8B36A",
"Q 	c #486CA2",
"R 	c #ADC2E2",
"S 	c #D1E1F4",
"T 	c #D4E4F2",
"U 	c #D5E6F4",
"V 	c #D3E3F3",
"W 	c #C7AE61",
"X 	c #B59940",
"Y 	c #B19334",
"Z 	c #B69B40",
"[ 	c #D3B668",
"] 	c #4A6E9F",
"^ 	c #C2D3EC",
"_ 	c #C9D9F1",
"` 	c #C7D7EF",
"a 	c #CBDAF1",
"b 	c #C8D8F1",
"c 	c #C5AD60",
"d 	c #B3973E",
"e 	c #AE9034",
"f 	c #B59840",
"g 	c #CFB467",
"h 	c #3F5D92",
"i 	c #BDCDE7",
"j 	c #D9E6F9",
"k 	c #CAD9F1",
"l 	c #CFDDF3",
"m 	c #CDDCF2",
"n 	c #C6AB63",
"o 	c #B89F50",
"p 	c #B49C4C",
"q 	c #B69E4E",
"r 	c #CEB267",
"s 	c #5C6F9E",
"t 	c #677BA8",
"u 	c #EBF6FF",
"v 	c #EAF5FF",
"w 	c #E1ECFB",
"x 	c #E5F1FE",
"y 	c #E3C77F",
"z 	c #DEC581",
"{ 	c #DEC582",
"| 	c #DDC481",
"} 	c #E1C481",
"~ 	c #5C709D",
" !	c #384E83",
"!!	c #A1B0CD",
"#!	c #C5D1E6",
"$!	c #B6C1DA",
"%!	c #6687B5",
"&!	c #385990",
"'!	c #6A8AB9",
"(!	c #3E6095",
")!	c #2A407A",
"*!	c #5E6F99",
"+!	c #6F90BD",
",!	c #406298",
"-!	c #31467D",
".!	c #576A96",
"0!	c #365A94",
"1!	c #2F477E",
"2!	c #536591",
"3!	c #6D7DA5",
"4!	c #516391",
"! # $ % &                       ",
"( ) * + ,                       ",
"- . 0 1 2     3 4 5 6 3         ",
"7 8 9 : ;   < = > ? @ = <       ",
"A B C D E F G H I J K H G F     ",
"L M N O P Q R S T U V S R Q     ",
"W X Y Z [ ] ^ _ ` a b _ ^ ]     ",
"c d e f g h i j k l m j i h     ",
"n o p q r s t u v w x u t s     ",
"y z { | } ~  !~ !!#!$!~  !      ",
"        %!&!~ 3 4 5 6 3         ",
"      '!(!)!*!                  ",
"    +!,!-!.!                    ",
"    0!1!2!                      ",
"    3!4!                        ",
"                                "};