/* XPM */ 
static const char *const  find_prev_small_xpm[] = {
"16 16 64 1",
" 	c None",
"!	c black",
"#	c #9B6900",
"$	c #D99300",
"%	c #BA7E00",
"&	c #65769F",
"'	c #3E5286",
"(	c #3B5083",
")	c #3B4F84",
"*	c #5176AF",
"+	c #6E8FC0",
",	c #ACC0DD",
"-	c #CADBEB",
".	c #BBCEE4",
"0	c #6889B8",
"1	c #6788BB",
"2	c #E6F2FB",
"3	c #F5FEFF",
"4	c #EBF7FA",
"5	c #F0FAFE",
"6	c #486CA2",
"7	c #ADC2E2",
"8	c #D1E1F4",
"9	c #D4E4F2",
":	c #D5E6F4",
";	c #D3E3F3",
"<	c #4A6E9F",
"=	c #C2D3EC",
">	c #C9D9F1",
"?	c #C7D7EF",
"@	c #CBDAF1",
"A	c #C8D8F1",
"B	c #3F5D92",
"C	c #BDCDE7",
"D	c #D9E6F9",
"E	c #CAD9F1",
"F	c #CFDDF3",
"G	c #CDDCF2",
"H	c #5C6F9E",
"I	c #677BA8",
"J	c #EBF6FF",
"K	c #EAF5FF",
"L	c #E1ECFB",
"M	c #E5F1FE",
"N	c #5C709D",
"O	c #384E83",
"P	c #A1B0CD",
"Q	c #C5D1E6",
"R	c #B6C1DA",
"S	c #6687B5",
"T	c #385990",
"U	c #6A8AB9",
"V	c #3E6095",
"W	c #2A407A",
"X	c #5E6F99",
"Y	c #6F90BD",
"Z	c #406298",
"[	c #31467D",
"]	c #576A96",
"^	c #365A94",
"_	c #2F477E",
"`	c #536591",
"a	c #6D7DA5",
"b	c #516391",
"  #$$           ",
" ##%            ",
"#######&'()&    ",
" ##%  *+,-.+*   ",
"  #$$012345210  ",
"     6789:;876  ",
"     <=>?@A>=<  ",
"     BCDEFGDCB  ",
"     HIJKLMJIH  ",
"     NONPQRNO   ",
"    STN&'()&    ",
"   UVWX         ",
"  YZ[]          ",
"  ^_`           ",
"  ab            ",
"                "};