/* XPM */ 
static const char* const findin_small_xpm[] = {
"10 10 5 1",
" 	c None",
"!	c black",
"#	c #255EF3",
"$	c #376BF4",
"%	c #5A85F5",
"          ",
"  #$%%$#  ",
"  #$%%$#  ",
"  #$%%$#  ",
"  #$%%$#  ",
"  #$%%$#  ",
"  #$%%$#  ",
"  #$%%$#  ",
"  #$%%$#  ",
"          "};