/* XPM */ 
static const char *const  find_small_xpm[] = {
"16 16 61 1",
" 	c None",
"!	c black",
"#	c #65769F",
"$	c #3E5286",
"%	c #3B5083",
"&	c #3B4F84",
"'	c #5176AF",
"(	c #6E8FC0",
")	c #ACC0DD",
"*	c #CADBEB",
"+	c #BBCEE4",
",	c #6889B8",
"-	c #6788BB",
".	c #E6F2FB",
"0	c #F5FEFF",
"1	c #EBF7FA",
"2	c #F0FAFE",
"3	c #486CA2",
"4	c #ADC2E2",
"5	c #D1E1F4",
"6	c #D4E4F2",
"7	c #D5E6F4",
"8	c #D3E3F3",
"9	c #4A6E9F",
":	c #C2D3EC",
";	c #C9D9F1",
"<	c #C7D7EF",
"=	c #CBDAF1",
">	c #C8D8F1",
"?	c #3F5D92",
"@	c #BDCDE7",
"A	c #D9E6F9",
"B	c #CAD9F1",
"C	c #CFDDF3",
"D	c #CDDCF2",
"E	c #5C6F9E",
"F	c #677BA8",
"G	c #EBF6FF",
"H	c #EAF5FF",
"I	c #E1ECFB",
"J	c #E5F1FE",
"K	c #5C709D",
"L	c #384E83",
"M	c #A1B0CD",
"N	c #C5D1E6",
"O	c #B6C1DA",
"P	c #6687B5",
"Q	c #385990",
"R	c #6A8AB9",
"S	c #3E6095",
"T	c #2A407A",
"U	c #5E6F99",
"V	c #6F90BD",
"W	c #406298",
"X	c #31467D",
"Y	c #576A96",
"Z	c #365A94",
"[	c #2F477E",
"]	c #536591",
"^	c #6D7DA5",
"_	c #516391",
"                ",
"                ",
"       #$%&#    ",
"      '()*+('   ",
"     ,-.012.-,  ",
"     345678543  ",
"     9:;<=>;:9  ",
"     ?@ABCDA@?  ",
"     EFGHIJGFE  ",
"     KLKMNOKL   ",
"    PQK#$%&#    ",
"   RSTU         ",
"  VWXY          ",
"  Z[]           ",
"  ^_            ",
"                "};