/* XPM */ 
static const char* const folder_disabled_small_xpm[] = {
"16 15 57 1",
" 	c None",
"!	c black",
"#	c #CDCDCD",
"$	c #C8C8C8",
"%	c #D0D0D0",
"&	c #E5E5E5",
"'	c #E2E2E2",
"(	c #E4E4E4",
")	c #E3E3E3",
"*	c #DDDDDD",
"+	c #C9C9C9",
",	c #D6D6D6",
"-	c #BFBFBF",
".	c #C7C7C7",
"0	c #DFDFDF",
"1	c #DEDEDE",
"2	c #E0E0E0",
"3	c #CFCFCF",
"4	c #BABABA",
"5	c #C1C1C1",
"6	c #CCCCCC",
"7	c #B5B5B5",
"8	c #BCBCBC",
"9	c #D8D8D8",
":	c #DCDCDC",
";	c #D9D9D9",
"<	c #DBDBDB",
"=	c #DADADA",
">	c #AFAFAF",
"?	c #D7D7D7",
"@	c #C4C4C4",
"A	c #A6A6A6",
"B	c #B3B3B3",
"C	c #D5D5D5",
"D	c #D4D4D4",
"E	c #D1D1D1",
"F	c #D2D2D2",
"G	c #B2B2B2",
"H	c #CBCBCB",
"I	c #CECECE",
"J	c #C6C6C6",
"K	c #B6B6B6",
"L	c #B1B1B1",
"M	c #CACACA",
"N	c #B0B0B0",
"O	c #C5C5C5",
"P	c #C3C3C3",
"Q	c #C2C2C2",
"R	c #BDBDBD",
"S	c #ADADAD",
"T	c #BEBEBE",
"U	c #C0C0C0",
"V	c #B9B9B9",
"W	c #B7B7B7",
"X	c #ABABAB",
"Y	c #B4B4B4",
"Z	c #AEAEAE",
"                ",
"  ##########$   ",
"  %&'&&(')'*+   ",
"  +&(((&(((,-   ",
"  .0('12(('34   ",
"  51111111167   ",
"  8*911:;<=$>   ",
"  7?,99?,?,@A7  ",
"  BC%,,DEDF$>7  ",
"  G3H%%I6I#JGK  ",
"  L$$HM$$M+5>K  ",
"  N5OP@QOPJRSK  ",
"  NTUT-TU-UVSK  ",
"  >TTTTTTTTWXY  ",
"  X7GL>Z>ZLZS   "};