/* XPM */
static const char* const folder_small_xpm[] = {
"16 15 27 1 0 0",
"  c #D6CEB5",
"! c #FFEF94",
"# c #FFE794",
"$ c #FFE78C",
"% c #DECEB5",
"& c #CEC6A5",
"' c #C6BD9C",
"( c #FFDE8C",
") c #C6B594",
"* c #BDAD8C",
"+ c #F7D684",
", c #ADA584",
"- c #BDA56B",
". c #EFCE7B",
"/ c #EFCE84",
"0 c #D6B56B",
"1 c #C6AD6B",
"2 c #EFC67B",
"3 c #E7C673",
"4 c #CEAD6B",
"5 c #DEBD73",
"6 c #DEC673",
"7 c #CEAD63",
"8 c #BDAD84",
"9 c #B5A584",
": c #AD9C84",
"; c None",
";;;;;;;;;;;;;;;;",
";;           ;;;",
";; !#!!!#!$!%;;;",
";;&##$$##$#$';;;",
";;&($$(($$#();;;",
";;'(((((((((*;;;",
";;)(+(((+(+(,;;;",
";;*+++++++++-,;;",
";;*+.+++.+/+01;;",
";;*.2...2.2.01;;",
";;*33223323241;;",
";;*53565353671;;",
";;*55555555571;;",
";;855555555519;;",
";;9*99,:,:,99;;;"
};
