/* XPM */ 
static const char* const format_small_xpm[] = {
"16 16 38 1",
" 	c None",
"!	c black",
"#	c #356A9B",
"$	c #3871A5",
"%	c #3C78B0",
"&	c #4987C2",
"'	c #508CC4",
"(	c #CAC9D1",
")	c #B6CBFE",
"*	c #A2B8E6",
"+	c #5B93C8",
",	c #DBD6DC",
"-	c #BED0FB",
".	c #B0CBFC",
"0	c #B9CBFB",
"1	c #6097C9",
"2	c #BFD1FB",
"3	c #BBD3FF",
"4	c #CCDFFF",
"5	c #C6D5FD",
"6	c #D2E1FF",
"7	c #CCD9FE",
"8	c #D4E2FF",
"9	c #D4E3FF",
":	c #D3DDFE",
";	c #D7E4FF",
"<	c #D9E6FF",
"=	c #DAE3FD",
">	c #DCE7FF",
"?	c #DFEAFF",
"@	c #E4EAFE",
"A	c #E4EDFF",
"B	c #E5EBFF",
"C	c #EEF6FF",
"D	c #E5ECFF",
"E	c #E5EDFF",
"F	c #F1F8FF",
"G	c white",
"                ",
"  ###$%%&&&'(   ",
"  #))))))))*+,  ",
"  #--------.01  ",
"  $22###$%&34'  ",
"  %55###$%&66'  ",
"  %77$$777789%  ",
"  &::%%&'+:;<%  ",
"  &==&&&'+=>?$  ",
"  '@@''@@@@>A$  ",
"  'BB++BBBBAC$  ",
"  'DD11DDDDDC$  ",
"  'EEEEEEEEFG#  ",
"  +'''&&%%$$##  ",
"                ",
"                "};