/* XPM */ 
static const char *const  indentinc_small_xpm[] = {
"16 16 7 1",
" 	c None",
"!	c black",
"#	c #4471A8",
"$	c #385E8B",
"%	c #305076",
"&	c #4A6D9B",
"'	c #6486B5",
"                ",
"                ",
"   ###          ",
"    $$$         ",
"  %%%%%% &&&&&  ",
"    $$$  '''''  ",
"   ###          ",
"                ",
"         &&&&&  ",
"         '''''  ",
"                ",
"                ",
"  &&&&&&&&&&&&  ",
"  ''''''''''''  ",
"                ",
"                "};