/* XPM */ 
static const char *const  insertdate_small_xpm[] = {
"16 16 110 2",
"  	c None",
"! 	c black",
"# 	c #356A9B",
"$ 	c #3871A5",
"% 	c #3C78B0",
"& 	c #4987C2",
"' 	c #508CC4",
"( 	c #CAC9D1",
") 	c #CCDCFE",
"* 	c #C5D6F8",
"+ 	c #BCCDEE",
", 	c #C2D3F0",
"- 	c #C9DAFB",
". 	c #CBDBFB",
"0 	c #C2D3F4",
"1 	c #C1D2F1",
"2 	c #BFD0F3",
"3 	c #5B93C8",
"4 	c #DBD6DC",
"5 	c #CFDCFA",
"6 	c #A8BFE2",
"7 	c #8AA5C8",
"8 	c #A0B8D7",
"9 	c #CCDDF9",
": 	c #D4E4FF",
"; 	c #C0D1F0",
"< 	c #9AB3D4",
"= 	c #BCCEEE",
"> 	c #DAE3FE",
"? 	c #6097C9",
"@ 	c #ACC0E5",
"A 	c #55749F",
"B 	c #37587D",
"C 	c #47658B",
"D 	c #A3B7DA",
"E 	c #BDCFF2",
"F 	c #708CB1",
"G 	c #3E5D84",
"H 	c #8FA7C6",
"I 	c #D3DFFC",
"J 	c #AEC1E1",
"K 	c #7089AD",
"L 	c #6884A6",
"M 	c #345378",
"N 	c #7089AF",
"O 	c #99B1DA",
"P 	c #3E5E87",
"Q 	c #325279",
"R 	c #7E94B6",
"S 	c #CCDCFA",
"T 	c #C4D5F8",
"U 	c #A9BFE5",
"V 	c #7F9BC0",
"W 	c #3D5A82",
"X 	c #7289AD",
"Y 	c #B4C6E7",
"Z 	c #7991B4",
"[ 	c #3C5E87",
"] 	c #7E93B6",
"^ 	c #C9D9FA",
"_ 	c #BBCFF4",
"` 	c #7291BE",
"a 	c #31527C",
"b 	c #37557C",
"c 	c #8AA1C5",
"d 	c #C6D8FA",
"e 	c #A0B6E0",
"f 	c #41638A",
"g 	c #7B93B4",
"h 	c #C9DAFA",
"i 	c #C5D6FA",
"j 	c #9FB4DB",
"k 	c #6985AC",
"l 	c #38577B",
"m 	c #647FA7",
"n 	c #BED5F8",
"o 	c #A1B7E2",
"p 	c #7C93B4",
"q 	c #C5D5FB",
"r 	c #B6CAEE",
"s 	c #A5BDE5",
"t 	c #9CB5DF",
"u 	c #45628A",
"v 	c #49688E",
"w 	c #ACC4E5",
"x 	c #8DA6D3",
"y 	c #3C5E86",
"z 	c #718BAD",
"{ 	c #BCCDF7",
"| 	c #8DA9D2",
"} 	c #476A94",
"~ 	c #40608D",
" !	c #31527A",
"!!	c #6580A2",
"#!	c #8EA9D2",
"$!	c #406491",
"%!	c #2C4F76",
"&!	c #3D5E85",
"'!	c #8BA5CB",
"(!	c #ADC3EC",
")!	c #7590B7",
"*!	c #597599",
"+!	c #6A83A8",
",!	c #9BB1D6",
"-!	c #A4BAE3",
".!	c #6784AC",
"0!	c #607B9F",
"1!	c #617DA1",
"2!	c #8A9FC0",
"3!	c #C5D5F2",
"                                ",
"    # # # $ % % & & & ' (       ",
"    # ) * + , - . 0 1 2 3 4     ",
"    # 5 6 7 8 9 : ; < = > ?     ",
"    $ @ A B C D E F G H I '     ",
"    % J K L M N O P Q R S '     ",
"    % T U V W X Y Z [ ] ^ %     ",
"    & _ ` a b c d e f g h %     ",
"    & i j k l m n o f p q $     ",
"    ' r s t u v w x y z { $     ",
"    ' | } ~  !!!#!$!%!&!'!$     ",
"    ' (!)!*!+!,!-!.!0!1!2!$     ",
"    ' ) * + , - . 0 1 2 3!#     ",
"    3 ' ' ' & & % % $ $ # #     ",
"                                ",
"                                "};