/* XPM */ 
static const char *const iso8859l1_small_xpm[] = {
"16 16 48 1",
" 	c None",
"!	c black",
"#	c #356A9B",
"$	c #3871A5",
"%	c #3C78B0",
"&	c #4987C2",
"'	c #508CC4",
"(	c #CAC9D1",
")	c #B5CBFF",
"*	c #BAD5FF",
"+	c #B6D0FF",
",	c #B6D2FF",
"-	c #B8D2FF",
".	c #A2B8E6",
"0	c #5B93C8",
"1	c #DBD6DC",
"2	c #B7CCFC",
"3	c #B7D1FF",
"4	c #B4CDFF",
"5	c #BA3C00",
"6	c #B9CBFB",
"7	c #6097C9",
"8	c #BFD1FB",
"9	c #BFD2FF",
":	c #BCD0FE",
";	c #BBD3FF",
"<	c #CCDFFF",
"=	c #C6D5FE",
">	c #C3D8FF",
"?	c #C0D5FF",
"@	c #C1D5FF",
"A	c #D2E1FF",
"B	c #CDD9FF",
"C	c #C9DCFF",
"D	c #C6DBFF",
"E	c #D6E4FF",
"F	c #D3DDFE",
"G	c #CBDDFF",
"H	c #DEE9FF",
"I	c #DAE3FD",
"J	c #E5EEFF",
"K	c #E5EBFF",
"L	c #D9E7FE",
"M	c #D9E6FE",
"N	c #DAE7FE",
"O	c #EEF6FF",
"P	c white",
"Q	c #F1F8FF",
"                ",
"                ",
"   ##$%%&&'(    ",
"   #)*+,-+.01   ",
"   $234455567   ",
"   $89:555;<'   ",
"   %=>??@@@A'   ",
"   %BC5555DE%   ",
"   &F55GG55H%   ",
"   &I555555J$   ",
"   'K55LMMNO$   ",
"   'K555MMNO$   ",
"   'PQ55555P#   ",
"   0PPPPPPPP#   ",
"   0''&&%$$##   ",
"                "};