/* XPM */ 
static const char *const iso8859l9_small_xpm[] = {
"16 16 32 1",
" 	c None",
"!	c black",
"#	c #356A9B",
"$	c #3871A5",
"%	c #3C78B0",
"&	c #4987C2",
"'	c #508CC4",
"(	c #CAC9D1",
")	c #B5CBFE",
"*	c #A2B8E6",
"+	c #5B93C8",
",	c #DBD6DC",
"-	c #B7CCFC",
".	c #B9CBFB",
"0	c #6097C9",
"1	c #BED0FB",
"2	c #D94600",
"3	c #C6D5FD",
"4	c #C5D4FC",
"5	c #CCD9FE",
"6	c #CCD9FD",
"7	c #D3DDFE",
"8	c #D3DDFD",
"9	c #DAE3FD",
":	c #E4EAFE",
";	c #E3E9FE",
"<	c #E6ECFF",
"=	c #E7ECFE",
">	c #FDFDFF",
"?	c #FBFCFF",
"@	c white",
"A	c #FEFEFF",
"                ",
"                ",
"   ##$%%&&'(    ",
"   #))))))*+,   ",
"   $-------.0   ",
"   $11122221'   ",
"   %33222444'   ",
"   %55225666%   ",
"   &72222288%   ",
"   &99229999$   ",
"   ':22222;;$   ",
"   '<<22<===$   ",
"   '>>>2222?#   ",
"   +@@@@@AAA#   ",
"   +''&&%$$##   ",
"                "};