/* XPM */ 
static const char *const lf_small_xpm[] = {
"16 16 101 2",
"  	c None",
"! 	c black",
"# 	c #6192CC",
"$ 	c #4E84C6",
"% 	c #4E84C5",
"& 	c #4F83C4",
"' 	c #3873BC",
"( 	c #3873BA",
") 	c #3871B8",
"* 	c #4F83C3",
"+ 	c #3873BB",
", 	c #3871B7",
"- 	c #688FBE",
". 	c #EFF1F5",
"0 	c #BDCDE0",
"1 	c #396FB2",
"2 	c #4E83C2",
"3 	c #3772BA",
"4 	c #3871B5",
"5 	c #678DBC",
"6 	c #BDCDDF",
"7 	c #386EAF",
"8 	c #4E82C0",
"9 	c #3771B8",
": 	c #3770B4",
"; 	c #678DBB",
"< 	c #376DAE",
"= 	c #4D82BF",
"> 	c #3671B7",
"? 	c #376FB2",
"@ 	c #668CBA",
"A 	c #376DAC",
"B 	c #4D80BD",
"C 	c #356FB4",
"D 	c #386FB1",
"E 	c #4274B0",
"F 	c #668AB6",
"G 	c #EFF1F4",
"H 	c #BDCBDD",
"I 	c #3C6EA9",
"J 	c #3F75B3",
"K 	c #356EB2",
"L 	c #4C7FBC",
"M 	c #5C84B5",
"N 	c #88A3C3",
"O 	c #7A95B7",
"P 	c #EFF1F3",
"Q 	c #C4CFDD",
"R 	c #6D8DB3",
"S 	c #7E9DC3",
"T 	c #4676B1",
"U 	c #346DB2",
"V 	c #4C7DBB",
"W 	c #3C70B0",
"X 	c #8CA5C6",
"Y 	c #E4E9EE",
"Z 	c #D1D8E0",
"[ 	c #F4F5F6",
"] 	c #E7EAEE",
"^ 	c #D5DCE4",
"_ 	c #C2CFDF",
"` 	c #5F87B7",
"a 	c #336BAF",
"b 	c #4C7CB9",
"c 	c #356CAF",
"d 	c #4875AC",
"e 	c #B2C2D7",
"f 	c #F4F5F8",
"g 	c #FEFEFE",
"h 	c #FAFBFC",
"i 	c #CFD9E5",
"j 	c #7796BE",
"k 	c #386BAA",
"l 	c #346CB0",
"m 	c #4B7CB8",
"n 	c #346BAF",
"o 	c #356AAD",
"p 	c #567EB0",
"q 	c #B7C6D9",
"r 	c #F2F4F7",
"s 	c #DDE3EC",
"t 	c #7A98BE",
"u 	c #396BA9",
"v 	c #346AAE",
"w 	c #4B7CB7",
"x 	c #336AAD",
"y 	c #356AAA",
"z 	c #5880B0",
"{ 	c #A4B9D1",
"| 	c #88A4C5",
"} 	c #396BA8",
"~ 	c #336AAC",
" !	c #4B7BB6",
"!!	c #3269AC",
"#!	c #3269AB",
"$!	c #3469AA",
"%!	c #3B6DA9",
"&!	c #386BA9",
"'!	c #6891C1",
"(!	c #5481B8",
")!	c #5986BB",
"                                ",
"    # $ $ % % % % % $ $ $ #     ",
"    & ' ' ( ) ) ) ) ' ' ' &     ",
"    * + + , - . 0 1 + + + *     ",
"    2 3 3 4 5 . 6 7 3 3 3 2     ",
"    8 9 9 : ; . 6 < 9 9 9 8     ",
"    = > > ? @ . 6 A > > > =     ",
"    B C D E F G H I J K C B     ",
"    L D M N O P Q R S T U L     ",
"    V W X Y Z [ ] ^ _ ` a V     ",
"    b c d e f g h i j k l b     ",
"    m n o p q r s t u v n m     ",
"    w x x y z { | } ~ x x w     ",
"     !!!!!#!$!%!&!#!!!!!!! !    ",
"    '!(!(!(!(!(!(!(!(!(!(!)!    ",
"                                "};