/* XPM */
static const char* const linespacing100_small_xpm[] = {
"16 16 5 1 0 0",
"  c #7B94B5",
"! c #637BA5",
"# c #395A8C",
"$ c #849CB5",
"% c None",
"%%%%%%%%%%%%%%%%",
"%%%%%%%%%%%%%%%%",
"%%%%%%%%%%%%%%%%",
"%%%%%%%%%%%%%%%%",
"%%% !!!!!!!! %%%",
"%%% ######## %%%",
"%%% $$$ $$$$ %%%",
"%%%%%%%%%%%%%%%%",
"%%%%%%%%%%%%%%%%",
"%%% !!!!!!!! %%%",
"%%% ######## %%%",
"%%% $$$ $$$$ %%%",
"%%%%%%%%%%%%%%%%",
"%%%%%%%%%%%%%%%%",
"%%%%%%%%%%%%%%%%",
"%%%%%%%%%%%%%%%%"
};
