/* XPM */ 
static const char *const lua_small_xpm[] = {
"16 16 160 2",
"  	c None",
"! 	c #BED4FB",
"# 	c #D5E3FD",
"$ 	c #D6E4FD",
"% 	c #D7E5FF",
"& 	c #D7E5FE",
"' 	c #DEEBFF",
"( 	c #DBE8FF",
") 	c #D4E1FF",
"* 	c #D5E2FF",
"+ 	c #D4E2FF",
", 	c #8094B3",
"- 	c #9FB1CF",
". 	c #D9E7FF",
"0 	c #D1E0FD",
"1 	c #D0DFFD",
"2 	c #CFDEFC",
"3 	c #D2E1FF",
"4 	c #D2E1FE",
"5 	c #32557E",
"6 	c #6985A9",
"7 	c #DBEAFF",
"8 	c #CBDCFC",
"9 	c #D4E4FF",
": 	c #D7E7FF",
"; 	c #CEDEFF",
"< 	c #D3E3FF",
"= 	c #D8E8FF",
"> 	c #CEDEFE",
"? 	c #D2E2FF",
"@ 	c #DAEAFF",
"A 	c #40638E",
"B 	c #728DB3",
"C 	c #D5E5FF",
"D 	c #CFE0FE",
"E 	c #A6B9D9",
"F 	c #90A4C4",
"G 	c #D4E5FF",
"H 	c #AEC1E1",
"I 	c #8C9FC0",
"J 	c #D0E2FF",
"K 	c #BACCEC",
"L 	c #7C94B6",
"M 	c #7890B4",
"N 	c #B4C5E6",
"O 	c #3D608A",
"P 	c #6F8AB0",
"Q 	c #D3E4FF",
"R 	c #6C87AE",
"S 	c #35557E",
"T 	c #7D96BA",
"U 	c #2C4D77",
"V 	c #C9DAF9",
"W 	c #476285",
"X 	c #2F4F77",
"Y 	c #2C4F7A",
"Z 	c #43638B",
"[ 	c #D3E1F9",
"] 	c #6D89B1",
"^ 	c #CEE0FF",
"_ 	c #CFE1FE",
"` 	c #728FB8",
"a 	c #41638E",
"b 	c #D6E6FF",
"c 	c #829BC2",
"d 	c #3A5D88",
"e 	c #BFD2F6",
"f 	c #A4B8DC",
"g 	c #D1E3FF",
"h 	c #A3B8DD",
"i 	c #2A4F7B",
"j 	c #B3C4E4",
"k 	c #3C608B",
"l 	c #6B87AF",
"m 	c #C9DAFC",
"n 	c #CBDDFC",
"o 	c #708CB6",
"p 	c #3E5F8B",
"q 	c #D1E2FC",
"r 	c #7F99C1",
"s 	c #365883",
"t 	c #C8D9FD",
"u 	c #A3B9DE",
"v 	c #506B90",
"w 	c #43628A",
"x 	c #335786",
"y 	c #ABBEDC",
"z 	c #3C5F8A",
"{ 	c #708CB4",
"| 	c #D3E6FF",
"} 	c #D1E5FF",
"~ 	c #6F8DB6",
" !	c #3C5E89",
"!!	c #D7E8FF",
"#!	c #7D98C1",
"$!	c #395B88",
"%!	c #B2C5EA",
"&!	c #30537C",
"'!	c #627FA8",
"(!	c #839DC5",
")!	c #2F5481",
"*!	c #ABBFE0",
"+!	c #3E628E",
",!	c #496C99",
"-!	c #8AA3C7",
".!	c #7592BA",
"0!	c #264D7C",
"1!	c #7894BC",
"2!	c #395D88",
"3!	c #416492",
"4!	c #A0B6DC",
"5!	c #274C78",
"6!	c #92ABD5",
"7!	c #7F9BC4",
"8!	c #264D7A",
"9!	c #AABDE0",
":!	c #506D96",
";!	c #2E517D",
"<!	c #254772",
"=!	c #4B688F",
">!	c #A8BDE4",
"?!	c #3B5C85",
"@!	c #284C75",
"A!	c #57739C",
"B!	c #46648A",
"C!	c #B7CDF6",
"D!	c #5E7AA3",
"E!	c #24456E",
"F!	c #426088",
"G!	c #3E5D85",
"H!	c #A2B9DD",
"I!	c #AEC6F4",
"J!	c #AAC0EF",
"K!	c #ABC3F1",
"L!	c #AFC6F5",
"M!	c #BCD4FF",
"N!	c #ACC3F1",
"O!	c #A6BEEB",
"P!	c #B8D0FF",
"Q!	c #A8C0EE",
"R!	c #B8D1FF",
"S!	c #B5CDFC",
"T!	c #9FB8E5",
"U!	c #B3CBF9",
"V!	c #ABC2F1",
"W!	c #B4D0FF",
"X!	c #B6D1FF",
"Y!	c #B5D1FF",
"Z!	c #B5D0FF",
"[!	c #B2CDFE",
"]!	c #B6D2FF",
"^!	c #B3CEFF",
"_!	c #B2CDFF",
"`!	c #B7D3FF",
"a!	c #B3CFFF",
"b!	c #B4CFFF",
"c!	c #ADCAFC",
"d!	c #ACCAFC",
"e!	c #ACCBFC",
"f!	c #ADCBFC",
"! ! ! ! ! ! ! ! ! ! ! ! ! ! ! ! ",
"! # $ % & % % % % % % % % % % ! ",
"! ' ( ) * * + + + * * * * * + ! ",
"! , - . 0 1 2 3 1 2 4 0 2 2 1 ! ",
"! 5 6 7 8 9 : ; < = > ? @ 7 ? ! ",
"! A B C D E F G H I J K L M N ! ",
"! O P J Q R S @ T U V W X Y Z [ ",
"! O ] ^ _ ` a b c d e f g h i j ",
"! k l m n o p q r s t u v w x y ",
"! z { | } ~  !!!#!$!%!&!'!(!)!*!",
"! +!,!B -!.!0!1!2!3!4!5!6!7!8!9!",
"! :!;!<!=!>!?!@!A!B!C!D!E!F!G!H!",
"! I!J!K!L!M!N!O!P!Q!R!S!T!U!V!! ",
"! W!X!Y!Z![!Z!]!^!Y!_!^!`!a!b!! ",
"! c!d!d!e!f!d!d!f!d!f!f!d!f!d!! ",
"! ! ! ! ! ! ! ! ! ! ! ! ! ! ! ! "};