/* XPM */ 
static const char *const marker_next_small_xpm[] = {
"16 16 10 1",
" 	c None",
"!	c black",
"#	c #5687BB",
"$	c #5A86C8",
"%	c #4577C1",
"&	c #2F5D9A",
"'	c #3C6BB3",
"(	c #6488B7",
")	c #658ECC",
"*	c #7499D1",
"                ",
"                ",
"                ",
"                ",
"         #      ",
"         $%     ",
"    &'%#($)'    ",
"    &'%#($)*&   ",
"    &'%#($)*&   ",
"    &'%#($)'    ",
"         $%     ",
"         #      ",
"                ",
"                ",
"                ",
"                "};