/* XPM */ 
static const char *const marker_prev_small_xpm[] = {
"16 16 10 1",
" 	c None",
"!	c black",
"#	c #5687BB",
"$	c #4577C1",
"%	c #5A86C8",
"&	c #3C6BB3",
"'	c #658ECC",
"(	c #6488B7",
")	c #2F5D9A",
"*	c #7499D1",
"                ",
"                ",
"                ",
"                ",
"      #         ",
"     $%         ",
"    &'%(#$&)    ",
"   )*'%(#$&)    ",
"   )*'%(#$&)    ",
"    &'%(#$&)    ",
"     $%         ",
"      #         ",
"                ",
"                ",
"                ",
"                "};