/* XPM */ 
static const char* const modified_small_xpm[] = {
"10 10 5 1",
" 	c None",
"!	c black",
"#	c #D99300",
"$	c #F0AA00",
"%	c #FFB624",
"          ",
"  #$%%$#  ",
"  #$%%$#  ",
"  #$%%$#  ",
"  #$%%$#  ",
"  #$%%$#  ",
"  #$%%$#  ",
"  #$%%$#  ",
"  #$%%$#  ",
"          "};