/* XPM */ 
static const char *const  output_small_xpm[] = {
"16 16 86 1",
" 	c None",
"!	c black",
"#	c #568CCC",
"$	c #4781C7",
"%	c #4982C8",
"&	c #578CCD",
"'	c #3D75B7",
"(	c #2B68B0",
")	c #2D6AB1",
"*	c #2C69B0",
"+	c #2C69B1",
",	c #557DAD",
"-	c #446FA5",
".	c #4671A7",
"0	c #4571A6",
"1	c #4671A6",
"2	c #4470A6",
"3	c #537CAB",
"4	c #AEBCCD",
"5	c #C8D7F0",
"6	c #C8D6EF",
"7	c #ADC2E0",
"8	c #92AECD",
"9	c #A9BEDC",
":	c #96B0D5",
";	c #ADBCCD",
"<	c #C8D5EE",
"=	c #7493BB",
">	c #4F76A5",
"?	c #B9CDEF",
"@	c #6385B1",
"A	c #5D7FAC",
"B	c #8BA8CA",
"C	c #4E73A0",
"D	c #406999",
"E	c #6B8EB9",
"F	c #426B9C",
"G	c #49719F",
"H	c #ABC1E0",
"I	c #CCD8EE",
"J	c #CBD7EE",
"K	c #88A3CC",
"L	c #486B9D",
"M	c #5A7DAD",
"N	c #698CB8",
"O	c #6586B5",
"P	c #B0C4E1",
"Q	c #D0DCF0",
"R	c #D0DBF0",
"S	c #BFD2F1",
"T	c #8BA6D1",
"U	c #466E9E",
"V	c #688BB8",
"W	c #7A97C2",
"X	c #7D9BC6",
"Y	c #BFD3F3",
"Z	c #D5DFF3",
"[	c #D5DFF2",
"]	c #ADC4E2",
"^	c #5F7FB0",
"_	c #3C6596",
"`	c #587DAC",
"a	c #5375A6",
"b	c #3F6899",
"c	c #6586B7",
"d	c #B6CCEA",
"e	c #DAE3F5",
"f	c #DAE2F5",
"g	c #C3D4F7",
"h	c #819BCB",
"i	c #4970A0",
"j	c #92ADD7",
"k	c #6B8CBB",
"l	c #557CA8",
"m	c #9FB7E6",
"n	c #CCDCFB",
"o	c #DFE6F7",
"p	c #DEE5F6",
"q	c #D5E1FA",
"r	c #A8C0DB",
"s	c #8EA9CB",
"t	c #C3D5F0",
"u	c #9EB7D3",
"v	c #96B0D1",
"w	c #C8D9F5",
"x	c #DAE4FE",
"                ",
"                ",
"#$%%%%%%%%%%%%$&",
"'()*)*)+)*)*)*('",
",-.0.010.0.0.023",
"4556667859:5555;",
";66<<<=>?@A6666;",
";<<<<BCDEFGH<<<;",
";IIJJKLMNFOPIII;",
";QQRSTUVWDXYQQQ;",
";ZZ[]^_`abcdZZZ;",
";eefghijklmneee;",
";oopqrstuvwxooo;",
";;;;;;;;;;;;;;;;",
"                ",
"                "};