/* XPM */ 
static const char* const paste_small_xpm[] = {
"16 16 49 1",
" 	c None",
"!	c black",
"#	c #6298CA",
"$	c #4B8AC2",
"%	c #3D7BB4",
"&	c #326492",
"'	c #DF9E26",
"(	c #72A3CF",
")	c #FAD65A",
"*	c #85AFD6",
"+	c #FBDC73",
",	c #FCE38D",
"-	c #3F84BC",
".	c #FDE89D",
"0	c #B0C5FF",
"1	c #AAC6FB",
"2	c #ADC5FA",
"3	c #AAC2F5",
"4	c #FDEAAA",
"5	c #BED0FC",
"6	c #BFD0FB",
"7	c #BDD3FB",
"8	c #BAD2FE",
"9	c #CBDCFC",
":	c #FEF0C2",
";	c #BBD3FE",
"<	c #BBCFFF",
"=	c #B9D1FF",
">	c #C7DFFF",
"X	c #FEF4D6",
"@	c #C5D5FF",
"A	c #C2D7FF",
"B	c #C1D5FF",
"C	c #D2E1FF",
"D	c #CDD9FF",
"E	c #C9DCFF",
"F	c #C5D8FF",
"G	c #C6D8FF",
"H	c #D6E4FF",
"I	c #FEF7E0",
"J	c #D4DFFF",
"K	c #D0E2FE",
"L	c #CDE0FF",
"M	c #CEDEFF",
"N	c #DFEBFF",
"O	c #E8E9F4",
"P	c #DCE4F8",
"Q	c #E3E8F7",
"R	c #F2F3FF",
"                ",
"    #$%&&%$#    ",
"  ''(#$%%$#(''  ",
"  ')*(#$$#(*)'  ",
"  '))))))))))'  ",
"  '++++++++++'  ",
"  ',,,%%%--$$'  ",
"  '...%01123$$  ",
"  '444%566789$  ",
"  ':::-5;;<=>$  ",
"  'XXX-@AABBC-  ",
"  'XXX$DEEFGH-  ",
"  'III$JKKLMN%  ",
"  'III$OPPQQR%  ",
"  ''''$$$--%%%  ",
"                "};