/* XPM */
static const char* const pause_small_xpm[] = {
"16 16 8 1 0 0",
"  c #965F0C",
"! c #5C6BBD",
"# c #4F5FB7",
"$ c #4959B1",
"% c #4453A7",
"& c #41509F",
"' c #3B4891",
"( c None",
"((((((((((((((((",
"((((((((((((((((",
"((((((((((((((((",
"((((((((((((((((",
"((((   ((   ((((",
"(((( ! (( ! ((((",
"(((( # (( # ((((",
"(((( $ (( $ ((((",
"(((( % (( % ((((",
"(((( & (( & ((((",
"(((( ' (( ' ((((",
"((((   ((   ((((",
"((((((((((((((((",
"((((((((((((((((",
"((((((((((((((((",
"(((((((((((((((("
};
