/* XPM */ 
static const char* const pinned_small_xpm[] = {
"10 10 12 1",
" 	c None",
"!	c black",
"#	c #5F5F5F",
"$	c #6C6C6C",
"%	c #787878",
"&	c #858585",
"'	c #929292",
"(	c #9F9F9F",
")	c #606060",
"*	c #6B6A6A",
"+	c #6B6B6B",
",	c #ABABAB",
"          ",
"  #$%&'(  ",
"  #$%&'(  ",
"  #$  '(  ",
"  )*  '(  ",
" ))+&&'(( ",
"    ''    ",
"    ((    ",
"    ,,    ",
"          "};