/* XPM */
static const char* const print_small_xpm[] = {
"16 16 163 2 0 0",
"   c #B8A5C6",
"!  c #7B649D",
"#  c #8A77A9",
"$  c #8765A7",
"%  c #876EA7",
"&  c #8770A7",
"'  c #8771A7",
"(  c #876BA7",
")  c #8A77AA",
"*  c #715495",
"+  c #CBBCDF",
",  c #B7B0CF",
"-  c #D3CAE6",
".  c #FFFFFF",
"/  c #EDD9EB",
"0  c #959390",
"1  c #9786AE",
"2  c #9FAFC0",
"3  c #C2C4BC",
"4  c #888A8E",
"5  c #6A6A74",
"6  c #A18BB6",
"7  c #FEFFFD",
"8  c #FAF5FF",
"9  c #FBF9F9",
":  c #F8F9FD",
";  c #FBF9FD",
"<  c #FAF9FB",
"=  c #FAF7FC",
">  c #869CC3",
"?  c #2F6599",
"@  c #9A9EA0",
"A  c #7A7C76",
"B  c #675578",
"C  c #9071AC",
"D  c #8975A4",
"E  c #6C4B93",
"F  c #806595",
"G  c #836FA3",
"H  c #8065A1",
"I  c #6F538E",
"J  c #7D6398",
"K  c #71538E",
"L  c #A081B8",
"M  c #7F757D",
"N  c #AAA197",
"O  c #776678",
"P  c #A0A6A4",
"Q  c #97A5B6",
"R  c #A5A5A0",
"S  c #DEE6D3",
"T  c #FFFFFC",
"U  c #FDFFF9",
"V  c #E8F0D9",
"W  c #FFFFF7",
"X  c #ECF6E0",
"Y  c #99A49A",
"Z  c #A2A7B3",
"[  c #98969E",
"]  c #73747F",
"^  c #57637A",
"_  c #7A7F87",
"`  c #F7F6F3",
"a  c #E9E8F2",
"b  c #C3C2C4",
"c  c #E5E4E2",
"d  c #DEDDE9",
"e  c #DAD9E2",
"f  c #CDCCCD",
"g  c #E0DFE1",
"h  c #D3D2CE",
"i  c #70727B",
"j  c #5C6A7E",
"k  c #696D75",
"l  c #ACB1B9",
"m  c #C5C8C9",
"n  c #A3A4A4",
"o  c #E9E5E4",
"p  c #E8E8E6",
"q  c #C6C6C6",
"r  c #DBDBD9",
"s  c #E2E2E1",
"t  c #DDDDDB",
"u  c #D9D8D9",
"v  c #CCCCCC",
"w  c #FFFFFA",
"x  c #9BA0A8",
"y  c #C9CDD5",
"z  c #A5A8A6",
"{  c #A19FA6",
"|  c #A9B3B6",
"}  c #8D8F91",
"~  c #D3D1D0",
" ! c #D8D9DA",
"!! c #ADAEAE",
"#! c #D0D0D2",
"$! c #CDCDCD",
"%! c #C4C4C5",
"&! c #B7B8B8",
"'! c #CACACB",
"(! c #BCBDBD",
")! c #E8E8E4",
"*! c #948F94",
"+! c #B0B7C5",
",! c #8D9394",
"-! c #919099",
".! c #9CA2A9",
"/! c #868D8E",
"0! c #DDE2CA",
"1! c #E7EDDB",
"2! c #BBBFAD",
"3! c #D9E3CF",
"4! c #DEE4D0",
"5! c #D5DBCC",
"6! c #C4C9B7",
"7! c #D7DDCB",
"8! c #C8CEBC",
"9! c #ECEFDE",
":! c #898890",
";! c #9FA5B0",
"<! c #848592",
"=! c #C5B9D0",
">! c #8A86A2",
"?! c #6D5993",
"@! c #745A9C",
"A! c #534D79",
"B! c #724E91",
"C! c #6A528D",
"D! c #624E85",
"E! c #5A4C7C",
"F! c #684E8B",
"G! c #5F4780",
"H! c #A18FBB",
"I! c #A7AAA9",
"J! c #BCB9B0",
"K! c #A99FC3",
"L! c #F9E9E3",
"M! c #FFEEED",
"N! c #BDA7D1",
"O! c #9FA49B",
"P! c #C6B3DC",
"Q! c #597690",
"R! c #093759",
"S! c #1D4667",
"T! c #214667",
"U! c #022E50",
"V! c #7691A2",
"W! c #E0D2EA",
"X! c #B195CA",
"Y! c #CBBBD9",
"Z! c #D1C7DE",
"[! c #CEC5DB",
"]! c #745696",
"^! c #785891",
"_! c #82609A",
"`! c #8A67A2",
"a! c #77578D",
"b! c #8A669E",
"c! c #88648E",
"d! c #8869A8",
"e! c #765C9E",
"f! c #CEBFD6",
"g! c None",
"g!g!g!g!g!g!g!g!g!g!g!g!g!g!g!g!",
"g!g!  ! # $ % & ' ( $ ) * + g!g!",
"g!, - . . . . . . . . . . / g!g!",
"g!0 1 . . . . . . . . . . 2 3 g!",
"4 5 6 . 7 8 9 : ; 8 < = . > ? g!",
"@ A B C D E F G H I J K L M N O ",
"P Q R . . S T . U V W X . Y Z [ ",
"] ^ _ ` a b c d e f g h . i j k ",
"l m n o p q r s t f u v w x y z ",
"{ | } ~  !!!#!$!%!&!'!(!)!*!+!,!",
"-!.!/!0!1!2!3!4!5!6!7!8!9!:!;!<!",
"g!=!>!?!@!A!B!C!D!E!F!G!H!I!J!g!",
"g!g!K!L!M!. . . . . . . N!O!g!g!",
"g!g!P!. . Q!R!S!T!U!V!. W!X!g!g!",
"g!g!Y!. . . . . . . . . Z!g!g!g!",
"g!g![!]!^!_!`!a!b!c!d!e!f!g!g!g!"
};
