/* XPM */ 
static const char *const prompt_small_xpm[] = {
"16 16 78 1",
" 	c None",
"!	c black",
"#	c #568CCC",
"$	c #4781C7",
"%	c #4982C8",
"&	c #578CCD",
"'	c #3D75B7",
"(	c #2B68B0",
")	c #2D6AB1",
"*	c #2C69B0",
"+	c #2C69B1",
",	c #557DAD",
"-	c #446FA5",
".	c #4671A7",
"0	c #4571A6",
"1	c #4671A6",
"2	c #4470A6",
"3	c #537CAB",
"4	c #AEBCCD",
"5	c #C8D7F0",
"6	c #CCD7F4",
"7	c #4A729F",
"8	c #7C98B7",
"9	c #C7D4EE",
":	c #ADBCCD",
";	c #C8D6EF",
"<	c #B9CAEC",
"=	c #7C98C1",
">	c #456993",
"?	c #8CA2C4",
"@	c #D3DCF7",
"A	c #C8D5EE",
"B	c #CADBF6",
"C	c #859FC7",
"D	c #346091",
"E	c #52739E",
"F	c #7992B6",
"G	c #8E9FBD",
"H	c #C7D3F0",
"I	c #CCD8EE",
"J	c #CEDCFC",
"K	c #A2BBE0",
"L	c #5479A6",
"M	c #486E9C",
"N	c #5A7AA5",
"O	c #8BA2C9",
"P	c #C6D7F6",
"Q	c #D0DCF0",
"R	c #C7D8FB",
"S	c #AEC3ED",
"T	c #96ADD8",
"U	c #718FB9",
"V	c #416999",
"W	c #436A98",
"X	c #A8B9D4",
"Y	c #D5DFF3",
"Z	c #BBD2F6",
"[	c #7C9DCB",
"]	c #5277A5",
"^	c #4F74A3",
"_	c #446B97",
"`	c #5B779C",
"a	c #ABB8D5",
"b	c #DAE3F5",
"c	c #C1D5FD",
"d	c #A8C3EF",
"e	c #6E8FBB",
"f	c #4A6A98",
"g	c #7991B9",
"h	c #9FB6E0",
"i	c #C0D1F8",
"j	c #B3C7EA",
"k	c #DFE6F7",
"l	c #CADAFF",
"m	c #C4D7FF",
"n	c #B9CFF1",
"o	c #C3D7FE",
"p	c #CCDCFF",
"                ",
"                ",
"#$%%%%%%%%%%%%$&",
"'()*)*)+)*)*)*('",
",-.0.010.0.0.023",
"455567895555555:",
":;;<=7>?@;;;;;;:",
":ABCDEFGHAAAAAA:",
":IJKLMNOPIIIIII:",
":QRSTUVWXQQQQQQ:",
":YZ[]^_`aYEMMEY:",
":bcdefghibjjjjb:",
":klmnfjopkkkkkk:",
"::::::::::::::::",
"                ",
"                "};