/* XPM */
static const char* const quit_small_xpm[] = {
"16 16 129 2 0 0",
"   c #B77C79",
"!  c #A26D6D",
"#  c #9E6262",
"$  c #9F6765",
"%  c #9F6565",
"&  c #9F6665",
"'  c #9F6465",
"(  c #9D5F5E",
")  c #B48B8C",
"*  c #B27E7B",
"+  c #DA5D5C",
",  c #D03031",
"-  c #D23432",
".  c #D02E2C",
"/  c #D02E2D",
"0  c #D23433",
"1  c #D23534",
"2  c #D23231",
"3  c #D02D2B",
"4  c #D03332",
"5  c #D13330",
"6  c #B38380",
"7  c #D25A59",
"8  c #C73536",
"9  c #C63431",
":  c #C6312F",
";  c #C75E5C",
"<  c #C75757",
"=  c #BF2522",
">  c #C42526",
"?  c #C03833",
"@  c #CD6F6D",
"A  c #C43939",
"B  c #C73335",
"C  c #C42C2A",
"D  c #D35D5C",
"E  c #CC5F5C",
"F  c #C33B39",
"G  c #C23630",
"H  c #BD2E2D",
"I  c #CC8F8B",
"J  c #F5FDFD",
"K  c #C66C68",
"L  c #B42F2D",
"M  c #E4CCCB",
"N  c #E7DDDC",
"O  c #BD413D",
"P  c #C23231",
"Q  c #C02F2A",
"R  c #CC615F",
"S  c #C25E5B",
"T  c #BB3935",
"U  c #B83430",
"V  c #B9322D",
"W  c #B0221D",
"X  c #C26E6E",
"Y  c #EFEDEC",
"Z  c #F5F4F5",
"[  c #D7BAB9",
"]  c #AF332F",
"^  c #B62926",
"_  c #B93631",
"`  c #B72C28",
"a  c #C2615E",
"b  c #BF5B59",
"c  c #B43834",
"d  c #B3302E",
"e  c #B32D2B",
"f  c #AB1D19",
"g  c #BB6361",
"h  c #F0F1F1",
"i  c #FAFFFF",
"j  c #D6AFAE",
"k  c #A72424",
"l  c #B02623",
"m  c #B3322F",
"n  c #B02826",
"o  c #C05E5C",
"p  c #BB5957",
"q  c #AE3531",
"r  c #AB2C2A",
"s  c #A62523",
"t  c #C28684",
"u  c #F6FFFF",
"v  c #BC726E",
"w  c #A43532",
"x  c #E9DAD8",
"y  c #E4D5D3",
"z  c #A83635",
"{  c #AA2B2A",
"|  c #AA2623",
"}  c #BB5C5A",
"~  c #B3514D",
" ! c #A42D27",
"!! c #A32723",
"#! c #A12620",
"$! c #B05D5A",
"%! c #B05B58",
"&! c #9C1812",
"'! c #9E1711",
"(! c #A2342E",
")! c #BA7572",
"*! c #A3312D",
"+! c #A42823",
",! c #9F1F19",
"-! c #B55451",
".! c #BF8280",
"/! c #AB4E4C",
"0! c #9A221E",
"1! c #9B2621",
"2! c #98201C",
"3! c #9A1F19",
"4! c #9C2723",
"5! c #9B231C",
"6! c #981E19",
"7! c #9B2320",
"8! c #9B2720",
"9! c #98231C",
":! c #C28786",
";! c #C17F7D",
"<! c #AD7071",
"=! c #A96566",
">! c #AB6A69",
"?! c #AA6869",
"@! c #AA6969",
"A! c #AA6768",
"B! c #A86262",
"C! c #BE8E90",
"D! c None",
"D!D!D!D!D!D!D!D!D!D!D!D!D!D!D!D!",
"D!D!D!D!D!D!D!D!D!D!D!D!D!D!D!D!",
"D!D!D!D!D!D!D!D!D!D!D!D!D!D!D!D!",
"D!D!  ! # $ % % & % ' & ( ) D!D!",
"D!* + , - . / 0 1 2 3 4 0 5 6 D!",
"D!7 8 9 : ; < = > ? @ A B C D D!",
"D!E F G H I J K L M N O P Q R D!",
"D!S T U V W X Y Z [ ] ^ _ ` a D!",
"D!b c d e f g h i j k l m n o D!",
"D!p q r s t u v w x y z { | } D!",
"D!~  !!!#!$!%!&!'!(!)!*!+!,!-!D!",
"D!.!/!0!1!2!3!1!4!5!6!7!8!9!:!D!",
"D!D!;!<!=!>!?!?!@!?!A!@!B!C!D!D!",
"D!D!D!D!D!D!D!D!D!D!D!D!D!D!D!D!",
"D!D!D!D!D!D!D!D!D!D!D!D!D!D!D!D!",
"D!D!D!D!D!D!D!D!D!D!D!D!D!D!D!D!"
};
