/* XPM */ 
static const char* const readonly_small_xpm[] = {
"10 10 16 1",
" 	c None",
"!	c black",
"#	c #C5C5C5",
"$	c #858585",
"%	c #939393",
"&	c #6C6C6C",
"'	c #7F7F7F",
"(	c #5F5F5F",
")	c #787878",
"*	c #747474",
"+	c #757575",
",	c #767676",
"-	c #888888",
".	c #9D9D9D",
"0	c #9C9C9C",
"1	c #ABABAB",
"          ",
"   #$$#   ",
"   $%%$   ",
"   &  &   ",
"  '())(*  ",
"  ++,,+)  ",
"  ------  ",
"  ..00..  ",
"  111111  ",
"          "};