/* XPM */ 
static const char *const  reset_small_xpm[] = {
"16 16 80 1",
" 	c None",
"!	c black",
"#	c #D23432",
"$	c #D02E2C",
"%	c #D02E2D",
"&	c #D23433",
"'	c #D23534",
"(	c #D23231",
")	c #D02D2B",
"*	c #D03332",
"+	c #C6312F",
",	c #C75E5C",
"-	c #C75757",
".	c #BF2522",
"0	c #C42526",
"1	c #C03833",
"2	c #CD6F6D",
"3	c #C43939",
"4	c #3A74C0",
"5	c #4D82CA",
"6	c #BD2E2D",
"7	c #CC8F8B",
"8	c #F5FDFD",
"9	c #C66C68",
":	c #B42F2D",
";	c #E4CCCB",
"<	c #E7DDDC",
"=	c #BD413D",
">	c #FCFDFE",
"?	c #B9322D",
"@	c #B0221D",
"A	c #C26E6E",
"B	c #EFEDEC",
"C	c #F5F4F5",
"D	c #D7BAB9",
"E	c #AF332F",
"F	c #B62926",
"G	c #B32D2B",
"H	c #AB1D19",
"I	c #BB6361",
"J	c #F0F1F1",
"K	c #FAFFFF",
"L	c #D6AFAE",
"M	c #A72424",
"N	c #B02623",
"O	c #5B8CCE",
"P	c #F3FAFF",
"Q	c #A62523",
"R	c #C28684",
"S	c #F6FFFF",
"T	c #BC726E",
"U	c #A43532",
"V	c #E9DAD8",
"W	c #E4D5D3",
"X	c #A83635",
"Y	c #A12620",
"Z	c #B05D5A",
"[	c #B05B58",
"]	c #9C1812",
"^	c #9E1711",
"_	c #A2342E",
"`	c #BA7572",
"a	c #A3312D",
"b	c #9B2621",
"c	c #98201C",
"d	c #9A1F19",
"e	c #9C2723",
"f	c #9B231C",
"g	c #981E19",
"h	c #9B2320",
"i	c #366AB1",
"j	c #9EBBE2",
"k	c #AAC4E6",
"l	c #B9CEEA",
"m	c #CBDAEF",
"n	c #DAE4F3",
"o	c #E7EDF8",
"p	c #3263A5",
"q	c #2D5893",
"r	c #274E81",
"                ",
" #$%&'()*       ",
" +,-.012345555  ",
" 6789:;<=>>>>5  ",
" ?@ABCDEF>>>>5  ",
" GHIJKLMNOOOP5  ",
" QRSTUVWX>>>>4  ",
" YZ[]^_`a>>>>4  ",
" bcdbefghOOO>i  ",
"  ijklmno>>>>i  ",
"  4jklmno>>>>p  ",
"  4jOOOOOOOO>p  ",
"  5jklmno>>>>q  ",
"  5jklmno>>>>r  ",
"  55544iippqrr  ",
"                "};