/* XPM */ 
static const char *const selectall_small_xpm[] = {
"16 16 38 1",
" 	c None",
"!	c black",
"#	c #356A9B",
"$	c #3871A5",
"%	c #3C78B0",
"&	c #4987C2",
"'	c #508CC4",
"(	c #CAC9D1",
")	c #B6CBFE",
"*	c #A2B8E6",
"+	c #5B93C8",
",	c #DBD6DC",
"-	c #BED0FB",
".	c #B0CBFC",
"0	c #B9CBFB",
"1	c #6097C9",
"2	c #BFD1FB",
"3	c #0046D9",
"4	c #0055F0",
"5	c #246DFF",
"6	c #4885FF",
"7	c #6C9DFF",
"8	c #90B5FF",
"9	c #A2C8DF",
":	c #B0D0E3",
";	c #C6D5FD",
"<	c #C5D5FC",
"=	c #CCD9FE",
">	c #CCD9FD",
"?	c #D3DDFE",
"@	c #D3DDFD",
"A	c #DAE3FD",
"B	c #E4EAFE",
"C	c #E3E9FE",
"D	c #E5EBFF",
"E	c #E4EBFE",
"F	c #E5ECFF",
"G	c #E5EDFF",
"                ",
"  ###$%%&&&'(   ",
"  #))))))))*+,  ",
"  #--------.01  ",
"  $23456789:2'  ",
"  %;;;;;;;<<<'  ",
"  %=3456789:>%  ",
"  &???????@@@%  ",
"  &A3456789:A$  ",
"  'BBBBBBBCCC$  ",
"  'D3456789:E$  ",
"  'FFFFFFFFFF$  ",
"  'GGGGGGGFFF#  ",
"  +'''&&%%$$##  ",
"                ",
"                "};