/* XPM */ 
static const char* const snippet_small_xpm[] = {
"16 16 36 1",
" 	c None",
"!	c black",
"#	c #356A9B",
"$	c #3871A5",
"%	c #3C78B0",
"&	c #4987C2",
"'	c #508CC4",
"(	c #CAC9D1",
")	c #B6CBFD",
"*	c #A2B8E6",
"+	c #5B93C8",
",	c #DBD6DC",
"-	c #BDCFFB",
".	c #B0CBFC",
"0	c #B9CBFB",
"1	c #6097C9",
"2	c #BFD1FB",
"3	c #BBD3FF",
"4	c #CCDFFF",
"5	c #C5D5FC",
"6	c #D2E1FF",
"7	c #CCD9FD",
"8	c #D4E2FF",
"9	c #D4E3FF",
":	c #D3DDFD",
";	c #D9E6FF",
"<	c #DAE3FD",
"=	c #DCE7FF",
">	c #DFEAFF",
"?	c #E3E9FE",
"@	c #E4EDFF",
"A	c #E4EBFE",
"B	c #EEF6FF",
"C	c #E5ECFF",
"D	c #F1F8FF",
"E	c white",
"                ",
"  ###$%%&&&'(   ",
"  #))))))))*+,  ",
"  #-###-###.01  ",
"  $2$$222$$34'  ",
"  %5%%555%%66'  ",
"  %7&&777&&89%  ",
"  &'':::::'';%  ",
"  &<&&<<<&&=>$  ",
"  '?%%???%%=@$  ",
"  'A$$AAA$$@B$  ",
"  'C###C###CB$  ",
"  'CCCCCCCCDE#  ",
"  +'''&&%%$$##  ",
"                ",
"                "};