/* XPM */ 
static const char *const stack_small_xpm[] = {
"16 16 30 1",
" 	c None",
"!	c black",
"#	c #568CCC",
"$	c #4781C7",
"%	c #4982C8",
"&	c #578CCD",
"'	c #3D75B7",
"(	c #2B68B0",
")	c #2D6AB1",
"*	c #2C69B0",
"+	c #2C69B1",
",	c #557DAD",
"-	c #446FA5",
".	c #4671A7",
"0	c #4571A6",
"1	c #4671A6",
"2	c #4470A6",
"3	c #537CAB",
"4	c #AEBCCD",
"5	c #C8D7F0",
"6	c #ADBCCD",
"7	c #C8D6EF",
"8	c #9B6900",
"9	c #C8D5EE",
":	c #BA7E00",
";	c #CCD8EE",
"<	c #D0DCF0",
"=	c #D5DFF3",
">	c #DAE3F5",
"?	c #DFE6F7",
"                ",
"                ",
"#$%%%%%%%%%%%%$&",
"'()*)*)+)*)*)*('",
",-.0.010.0.0.023",
"4555555555555556",
"6787777777777876",
"69:9::::::::9:96",
"6;:;;;;;;;;;;:;6",
"6<:<::::::::<:<6",
"6=8==========8=6",
"6>88::::::::88>6",
"6??????????????6",
"6666666666666666",
"                ",
"                "};