/* XPM */ 
static const char* const startdebug_small_xpm[] = {
"16 16 9 1",
" 	c None",
"!	c black",
"#	c #82A13A",
"$	c #3D4B96",
"%	c #FFFFB4",
"&	c #4453A7",
"'	c #4A5BB5",
"(	c #5C6BBD",
")	c #6876C1",
"                ",
"    ##          ",
"    #$#         ",
"    #$%#        ",
"    #$%&#       ",
"    #$%&'#      ",
"    #$%&'(#     ",
"    #$%&'()#    ",
"    #$%&'()#    ",
"    #$%&'(#     ",
"    #$%&'#      ",
"    #$%&#       ",
"    #$%#        ",
"    #$#         ",
"    ##          ",
"                "};