/* XPM */
static const char* const start_hot_small_xpm[] = {
"16 16 6 1 0 0",
"  c #C0781B",
"! c #C57B1B",
"# c #D1831D",
"$ c #DE8B1F",
"% c #E49938",
"& c None",
"&&&&&&&&&&&&&&&&",
"&&&&&&&&&&&&&&&&",
"&&&&& &&&&&&&&&&",
"&&&&&  &&&&&&&&&",
"&&&&& ! &&&&&&&&",
"&&&&& !# &&&&&&&",
"&&&&& !#$ &&&&&&",
"&&&&& !#$% &&&&&",
"&&&&& !#$% &&&&&",
"&&&&& !#$ &&&&&&",
"&&&&& !# &&&&&&&",
"&&&&& ! &&&&&&&&",
"&&&&&  &&&&&&&&&",
"&&&&& &&&&&&&&&&",
"&&&&&&&&&&&&&&&&",
"&&&&&&&&&&&&&&&&"
};
