/* XPM */ 
static const char* const starteddebug_small_xpm[] = {
"10 10 7 1",
" 	c None",
"!	c black",
"#	c #82A13A",
"$	c #4453A7",
"%	c #FFFF90",
"&	c #5C6BBD",
"'	c #6876C1",
"  ##      ",
"  #$#     ",
"  #$%#    ",
"  #$%&#   ",
"  #$%&'#  ",
"  #$%&'#  ",
"  #$%&#   ",
"  #$%#    ",
"  #$#     ",
"  ##      "};