/* XPM */
static const char* const stop_small_xpm[] = {
"16 16 8 1 0 0",
"  c #965F0C",
"! c #384589",
"# c #3B4891",
"$ c #3E4C98",
"% c #4453A7",
"& c #4959B3",
"' c #5968BB",
"( c None",
"((((((((((((((((",
"((((((((((((((((",
"((((((((((((((((",
"((((((((((((((((",
"((((        ((((",
"(((( !#$%&' ((((",
"(((( !#$%&' ((((",
"(((( !#$%&' ((((",
"(((( !#$%&' ((((",
"(((( !#$%&' ((((",
"(((( !#$%&' ((((",
"((((        ((((",
"((((((((((((((((",
"((((((((((((((((",
"((((((((((((((((",
"(((((((((((((((("
};
