/* XPM */
static const char* const uncomment_small_xpm[] = {
"16 16 62 1",
" 	c None",
".	c #356A9B",
"+	c #3871A5",
"@	c #3C78B0",
"#	c #4987C2",
"$	c #508CC4",
"%	c #CAC9D1",
"&	c #B5CBFF",
"*	c #BAD5FF",
"=	c #B6D0FF",
"-	c #B6D2FF",
";	c #B8D2FF",
">	c #A2B8E6",
",	c #5B93C8",
"'	c #DBD6DC",
")	c #62A1E7",
"!	c #B4CDFF",
"~	c #B4CEFF",
"{	c #B0CBFC",
"]	c #B9CBFB",
"^	c #6097C9",
"/	c #BFD1FB",
"(	c #BCD1FF",
"_	c #5699E4",
":	c #BBD1FF",
"<	c #BAD1FE",
"[	c #BBD3FF",
"}	c #CCDFFF",
"|	c #C6D5FE",
"1	c #C0D5FF",
"2	c #4D91DD",
"3	c #C1D5FF",
"4	c #3377C2",
"5	c #D2E1FF",
"6	c #CDD9FF",
"7	c #C6D9FF",
"8	c #478BD7",
"9	c #C5D8FF",
"0	c #367CC8",
"a	c #D4E2FF",
"b	c #D4E3FF",
"c	c #D3DDFE",
"d	c #CBDDFF",
"e	c #4084CF",
"f	c #D7E4FF",
"g	c #D9E6FF",
"h	c #DAE3FD",
"i	c #D2E0FF",
"j	c #D1E0FF",
"k	c #DCE7FF",
"l	c #DFEAFF",
"m	c #E5EBFF",
"n	c #D9E7FE",
"o	c #D9E6FE",
"p	c #E4EDFF",
"q	c #E6ECFF",
"r	c #E5F0FF",
"s	c #EEF6FF",
"t	c #E5EEFF",
"u	c #F0F7FF",
"v	c #F1F8FF",
"w	c #FFFFFF",
"                ",
"  ...+@@###$%   ",
"  .&**=-;;=>,'  ",
"  .))))!!!~{]^  ",
"  +/(__(::<[}$  ",
"  @|122134455$  ",
"  @67887900ab@  ",
"  #cdeeddeefg@  ",
"  #hi00ij88kl+  ",
"  $mn44oo22kp+  ",
"  $qrrrrr__ps+  ",
"  $qqqqqq))))+  ",
"  $tuvuuuuuvw.  ",
"  ,$$$##@@++..  ",
"                ",
"                "};
