/* XPM */
static const char* const undo_small_xpm[] = {
"16 16 6 1 0 0",
"  c #2F5D9A",
"! c #3468AC",
"# c #376EB5",
"$ c #447DC7",
"% c #6393D0",
"& c None",
"&&&&&&&&&&&&&&&&",
"&&&&&&&&&&&&&&&&",
"&&&&&&&&   &&&&&",
"&&&&&&& !#$&&&&&",
"&&&&&& !#$%&&&&&",
"&&&&& !#$%&&&&&&",
"&&&& !#$%&&&&&&&",
"&&& !#$%&&&&&&&&",
"&&& !#$%&&&&&&&&",
"&&&& !#$%&&&&&&&",
"&&&&& !#$%&&&&&&",
"&&&&&& !#$%&&&&&",
"&&&&&&& !#$&&&&&",
"&&&&&&&&   &&&&&",
"&&&&&&&&&&&&&&&&",
"&&&&&&&&&&&&&&&&"
};
