/* XPM */
static const char* const zoomin_small_xpm[] = {
"16 16 30 1 0 0",
"  c #5E7C97",
"! c #224673",
"# c #214A73",
"$ c #94B5CE",
"% c #C6D6F7",
"& c #CEDEF7",
"' c #BDD6F7",
"( c #7394C6",
") c #9CB5D6",
"* c #DEE7FF",
"+ c #4469B8",
", c #5A8CD6",
"- c #D6DEFF",
". c #D6E7FF",
"/ c #DEE7EF",
"0 c #5275BF",
"1 c #E7EFFF",
"2 c #EFF7FF",
"3 c #294A6B",
"4 c #F7F7FF",
"5 c #FFFFFF",
"6 c #4A6B84",
"7 c #F7F7F7",
"8 c #A5BDE7",
"9 c #426384",
": c #BDC6CE",
"; c #EFEFF7",
"< c #325589",
"= c #2A4773",
"> c None",
">>>>>>>>>>>>>>>>",
">>>>>>>>>>>>>>>>",
">>> !!!! >>>>>>>",
">>#$%&&'(#>>>>>>",
"> )**++*&, >>>>>",
">!-./+0**'!>>>>>",
">!1+++000&!>>>>>",
">!2000+++&!>>>>>",
">3/450+2*&!>>>>>",
"> 6750+1*8 >>>>>",
">>!9:;2%$!< >>>>",
">>> !!!! <=< >>>",
">>>>>>>>> <=< >>",
">>>>>>>>>> <=< >",
">>>>>>>>>>> <=<>",
">>>>>>>>>>>> < >"
};
