/* XPM */
static const char* const zoomout_small_xpm[] = {
"16 16 31 1 0 0",
"  c #5E7C97",
"! c #224673",
"# c #214A73",
"$ c #94B5CE",
"% c #C6D6F7",
"& c #CEDEF7",
"' c #BDD6F7",
"( c #7394C6",
") c #9CB5D6",
"* c #DEE7FF",
"+ c #DEEFFF",
", c #5A8CD6",
"- c #D6DEFF",
". c #D6E7FF",
"/ c #DEE7EF",
"0 c #E7EFFF",
"1 c #4469B8",
"2 c #EFF7FF",
"3 c #5275BF",
"4 c #294A6B",
"5 c #F7F7FF",
"6 c #FFFFFF",
"7 c #4A6B84",
"8 c #F7F7F7",
"9 c #A5BDE7",
": c #426384",
"; c #BDC6CE",
"< c #EFEFF7",
"= c #325589",
"> c #2A4773",
"x c None",
"xxxxxxxxxxxxxxxx",
"xxxxxxxxxxxxxxxx",
"xxx !!!! xxxxxxx",
"xx#$%&&'(#xxxxxx",
"x )**+**&, xxxxx",
"x!-./.***'!xxxxx",
"x!0111111&!xxxxx",
"x!2333333&!xxxxx",
"x4/56522*&!xxxxx",
"x 786550*9 xxxxx",
"xx!:;<2%$!= xxxx",
"xxx !!!! =>= xxx",
"xxxxxxxxx =>= xx",
"xxxxxxxxxx =>= x",
"xxxxxxxxxxx =>=x",
"xxxxxxxxxxxx = x"
};
