/* XPM */ 
static const char *const cfile_xpm[] = {
"16 16 90 1",
" 	c None",
"!	c black",
"#	c #D99300",
"$	c #D9E6FF",
"%	c #D8E6FF",
"&	c #D8E5FE",
"'	c #DBE9FF",
"(	c #E2EFFF",
")	c #E3EFFF",
"*	c #DEECFF",
"+	c #D7E5FE",
",	c #D4E2FD",
"-	c #CCDBF3",
".	c #9DB0CC",
"0	c #889EBD",
"1	c #8FA3C1",
"2	c #B6C7E1",
"3	c #D5E2FE",
"4	c #D7E5FF",
"5	c #B4C4E0",
"6	c #446289",
"7	c #214673",
"8	c #2C4F79",
"9	c #1C416B",
":	c #526B8E",
";	c #DBEAFF",
"<	c #C8D8F5",
"=	c #49688E",
">	c #274D7C",
"?	c #8A9FC1",
"@	c #BBCCE8",
"A	c #A7BADA",
"B	c #98ABCB",
"C	c #CFE1FF",
"D	c #9DB1D3",
"E	c #204775",
"F	c #6882A8",
"G	c #D6E6FF",
"H	c #D0E2FF",
"I	c #D4E6FF",
"J	c #C2D5FB",
"K	c #839BBF",
"L	c #1D4572",
"M	c #869DC1",
"N	c #CFE1FE",
"O	c #C3D7FC",
"P	c #C5D8FD",
"Q	c #BFD3FC",
"R	c #7D96BD",
"S	c #859DC3",
"T	c #CBDDFD",
"U	c #C0D4FC",
"V	c #C3D6FD",
"W	c #C0D6FF",
"X	c #89A1C9",
"Y	c #1F4775",
"Z	c #6A86AE",
"[	c #CADFFF",
"]	c #C3D9FF",
"^	c #C4DBFF",
"_	c #C4DAFF",
"`	c #A7BEE9",
"a	c #335681",
"b	c #325785",
"c	c #8AA2CB",
"d	c #B2C7F2",
"e	c #9FB6E1",
"f	c #90A7CF",
"g	c #B6CFFD",
"h	c #B9D2FF",
"i	c #819CC6",
"j	c #2D507B",
"k	c #244A74",
"l	c #32547F",
"m	c #22456D",
"n	c #4C688D",
"o	c #B0CBFF",
"p	c #ADC9FE",
"q	c #B4CFFF",
"r	c #96B0E1",
"s	c #6F8CB9",
"t	c #6582AF",
"u	c #728EBC",
"v	c #98B3E3",
"w	c #A9C5FC",
"x	c #A9C5FD",
"y	c #AAC4FC",
"z	c #AFCAFF",
"{	c #B2CDFF",
"|	c #B1CCFF",
"                ",
"  ############  ",
"  #$%&'())*$$#  ",
"  #+,'-.012++#  ",
"  #3456789:33#  ",
"  #;<=>?@AB;;#  ",
"  #CDEFGCHICC#  ",
"  #JKLMNJOPJJ#  ",
"  #QRLSTQUVQQ#  ",
"  #WXYZ[W]^WW#  ",
"  #_`abcdef__#  ",
"  #ghijklmngg#  ",
"  #opqrstuvoo#  ",
"  #wxyz{|{zww#  ",
"  ############  ",
"                "};