/* XPM */ 
static const char *const cppfile_xpm[] = {
"16 16 114 2",
"  	c None",
"! 	c black",
"# 	c #D99300",
"$ 	c #D8E6FF",
"% 	c #D8E5FE",
"& 	c #DBE9FF",
"' 	c #E2EFFF",
"( 	c #E3EFFF",
") 	c #DEECFF",
"* 	c #D9E6FF",
"+ 	c #D9E7FE",
", 	c #D8E6FE",
"- 	c #D4E2FD",
". 	c #CCDBF3",
"0 	c #9DB0CC",
"1 	c #889EBD",
"2 	c #8FA3C1",
"3 	c #B6C7E1",
"4 	c #D7E5FE",
"5 	c #D5E3FE",
"6 	c #D7E5FF",
"7 	c #B4C4E0",
"8 	c #446289",
"9 	c #214673",
": 	c #2C4F79",
"; 	c #1C416B",
"< 	c #526B8E",
"= 	c #D5E2FE",
"> 	c #D1DFFC",
"? 	c #D2DFFD",
"@ 	c #C8D8F5",
"A 	c #49688E",
"B 	c #274D7C",
"C 	c #8A9FC1",
"D 	c #BBCCE8",
"E 	c #A7BADA",
"F 	c #98ABCB",
"G 	c #DBEAFF",
"H 	c #9DB1D0",
"I 	c #91A7C7",
"J 	c #9DB1D3",
"K 	c #204775",
"L 	c #6882A8",
"M 	c #D6E6FF",
"N 	c #CFE1FF",
"O 	c #D0E2FF",
"P 	c #D4E6FF",
"Q 	c #9AADCC",
"R 	c #4B6A90",
"S 	c #46668D",
"T 	c #839BBF",
"U 	c #1D4572",
"V 	c #869DC1",
"W 	c #CFE1FE",
"X 	c #C2D5FB",
"Y 	c #C3D7FC",
"Z 	c #C5D8FD",
"[ 	c #ADBEDF",
"] 	c #536B8D",
"^ 	c #556D8F",
"_ 	c #7D96BD",
"` 	c #859DC3",
"a 	c #CBDDFD",
"b 	c #BFD3FC",
"c 	c #C0D4FC",
"d 	c #C3D6FD",
"e 	c #8EA2C6",
"f 	c #48668F",
"g 	c #47668C",
"h 	c #89A1C9",
"i 	c #1F4775",
"j 	c #6A86AE",
"k 	c #CADFFF",
"l 	c #C0D6FF",
"m 	c #C3D9FF",
"n 	c #C4DBFF",
"o 	c #9FB2D6",
"p 	c #516C91",
"q 	c #5A759B",
"r 	c #A7BEE9",
"s 	c #335681",
"t 	c #325785",
"u 	c #8AA2CB",
"v 	c #B2C7F2",
"w 	c #9FB6E1",
"x 	c #90A7CF",
"y 	c #C4DAFF",
"z 	c #95ABD1",
"{ 	c #9BB1D9",
"| 	c #B9D2FF",
"} 	c #819CC6",
"~ 	c #2D507B",
" !	c #244A74",
"!!	c #32547F",
"#!	c #22456D",
"$!	c #4C688D",
"%!	c #B6CFFD",
"&!	c #B6CFFF",
"'!	c #B5CEFE",
"(!	c #ADC9FE",
")!	c #B4CFFF",
"*!	c #96B0E1",
"+!	c #6F8CB9",
",!	c #6582AF",
"-!	c #728EBC",
".!	c #98B3E3",
"0!	c #B0CBFF",
"1!	c #A9C5FD",
"2!	c #AAC4FC",
"3!	c #AFCAFF",
"4!	c #B2CDFF",
"5!	c #B1CCFF",
"6!	c #A9C5FC",
"7!	c #AAC5FD",
"                                ",
"    # # # # # # # # # # # #     ",
"    # $ % & ' ( ( ) * + , #     ",
"    # - & . 0 1 2 3 4 5 5 #     ",
"    # 6 7 8 9 : ; < = > ? #     ",
"    # @ A B C D E F G H I #     ",
"    # J K L M N O P Q R S #     ",
"    # T U V W X Y Z [ ] ^ #     ",
"    # _ U ` a b c d e f g #     ",
"    # h i j k l m n o p q #     ",
"    # r s t u v w x y z { #     ",
"    # | } ~  !!!#!$!%!&!'!#     ",
"    # (!)!*!+!,!-!.!0!(!(!#     ",
"    # 1!2!3!4!5!4!3!6!7!7!#     ",
"    # # # # # # # # # # # #     ",
"                                "};