/* XPM */ 
static const char *const deffile_xpm[] = {
"16 16 65 1",
" 	c None",
"!	c black",
"#	c #6186BE",
"$	c #E4E4E4",
"%	c #E3E3E3",
"&	c #E2E2E2",
"'	c #E1E1E1",
"(	c #E8E8E8",
")	c #E7E7E7",
"*	c #DEDEDE",
"+	c #DDDDDD",
",	c #D0D0D0",
"-	c #909090",
".	c #A6A6A6",
"0	c #DFDFDF",
"1	c #DADADA",
"2	c #A0A0A0",
"3	c #474747",
"4	c #5C5C5C",
"5	c #C8C8C8",
"6	c #DBDBDB",
"7	c #D7D7D7",
"8	c #D8D8D8",
"9	c #777777",
":	c #525252",
";	c #535353",
"<	c #A3A3A3",
"=	c #D5D5D5",
">	c #C1C1C1",
"?	c #585858",
"@	c #818181",
"A	c #646464",
"B	c #797979",
"C	c #D6D6D6",
"D	c #D1D1D1",
"E	c #9B9B9B",
"F	c #4E4E4E",
"G	c #989898",
"H	c #757575",
"I	c #595959",
"J	c #C3C3C3",
"K	c #D2D2D2",
"L	c #555555",
"M	c #545454",
"N	c #515151",
"O	c #A1A1A1",
"P	c #CFCFCF",
"Q	c #B7B7B7",
"R	c #707070",
"S	c #9C9C9C",
"T	c #919191",
"U	c #CDCDCD",
"V	c #ACACAC",
"W	c #6A6A6A",
"X	c #ADADAD",
"Y	c #D3D3D3",
"Z	c #CECECE",
"[	c #848484",
"]	c #787878",
"^	c #C6C6C6",
"_	c #CACACA",
"`	c #C5C5C5",
"a	c #C7C7C7",
"b	c #C4C4C4",
"c	c #C2C2C2",
"                ",
"  ############  ",
"  #$$$$%$$$$$#  ",
"  #&&'%()&&&&#  ",
"  #*+',-.0***#  ",
"  #11&2345016#  ",
"  #7889:;<078#  ",
"  #=6>?@AB1=C#  ",
"  #D1EFGHIJCK#  ",
"  #,D9FLMNO7P#  ",
"  #DQLRSTLH,U#  ",
"  #UVWXYZ[]^_#  ",
"  #`^Jab^`J^`#  ",
"  #>cJcc>cJc>#  ",
"  ############  ",
"                "};