/* XPM */
static const char* const folder_open_xpm[] = {
"16 15 52 1 0 0",
"  c #D6CEB5",
"! c #FFEF94",
"# c #FFE78C",
"$ c #FFE794",
"% c #DEC684",
"& c #F7D68C",
"' c #E7CE8C",
"( c #DECEB5",
") c #CEC6A5",
"* c #D6CEAD",
"+ c #EFEFEF",
", c #CEB57B",
"- c #C6BD9C",
". c #FFDE8C",
"/ c #D6C6AD",
"0 c #E7E7E7",
"1 c #C6B594",
"2 c #C6AD7B",
"3 c #BDAD8C",
"4 c #F7D684",
"5 c #C6BDAD",
"6 c #ADA584",
"7 c #B5AD94",
"8 c #CECECE",
"9 c #BDA57B",
": c #BDA56B",
"; c #EFCE84",
"< c #BDAD84",
"= c #A5A5A5",
"> c #DEDEDE",
"? c #F7F7F7",
"@ c #D6B56B",
"A c #C6AD6B",
"B c #EFCE7B",
"C c #EFC67B",
"D c #B5A584",
"E c #FFFFFF",
"F c #B5A573",
"G c #E7C673",
"H c #B5A57B",
"I c #B59C73",
"J c #CEAD6B",
"K c #DEBD73",
"L c #DEC673",
"M c #AD9C73",
"N c #CEAD63",
"O c #9C844A",
"P c #7B6B39",
"Q c #9C8C5A",
"R c #A59463",
"S c #AD9C84",
"T c None",
"TTTTTTTTTTTTTTTT",
"TT           TTT",
"TT !!#!$!%&'(TTT",
"TT)$#$#$$*+,-TTT",
"TT).#$.##/0,1TTT",
"TT-......)023TTT",
"TT1..4.4'5026TTT",
"TT34444%78+9:6TT",
"TT344;4<=>?9@ATT",
"TT3BBCBD=0EF@ATT",
"TT3GCGCH=0EIJATT",
"TT3KKGLD=0EMNATT",
"TT3KKKKH=0EMNATT",
"TT<KKKKOPQROADTT",
"TTD3D36S6S6DDTTT"
};
