/* XPM */ 
static const char *const forfile_xpm[] = {
"16 16 111 2",
"  	c None",
"! 	c black",
"# 	c #6186BE",
"$ 	c #DBE5FF",
"% 	c #DBE6FF",
"& 	c #DDE8FF",
"' 	c #E0EBFF",
"( 	c #DFEAFF",
") 	c #DFEBFF",
"* 	c #DEE9FF",
"+ 	c #DBE7FF",
", 	c #D6E6FE",
"- 	c #D8E8FF",
". 	c #D2E1F9",
"0 	c #C8D7EE",
"1 	c #CBD9F0",
"2 	c #CBDAF1",
"3 	c #CBD9F1",
"4 	c #CDDCF4",
"5 	c #D7E6FE",
"6 	c #D0E1FC",
"7 	c #DCEDFF",
"8 	c #9AACC8",
"9 	c #34547D",
": 	c #385983",
"; 	c #32537B",
"< 	c #2B4E76",
"= 	c #496383",
"> 	c #D0DFF9",
"? 	c #D3E5FF",
"@ 	c #CCDDFD",
"A 	c #D9E9FF",
"B 	c #93A8C8",
"C 	c #21497A",
"D 	c #6582A8",
"E 	c #8AA0C0",
"F 	c #7F98B9",
"G 	c #8FA4C2",
"H 	c #CEDEFC",
"I 	c #CFDFFE",
"J 	c #C9DBFD",
"K 	c #D6E6FF",
"L 	c #94A9CB",
"M 	c #1F4473",
"N 	c #9DB0D2",
"O 	c #EAF9FF",
"P 	c #DFEDFF",
"Q 	c #DBECFF",
"R 	c #CCDDFF",
"S 	c #CBDCFF",
"T 	c #C5D8FD",
"U 	c #D1E4FF",
"V 	c #90A6C9",
"W 	c #234A79",
"X 	c #728DB2",
"Y 	c #A0B4D3",
"Z 	c #94A9CD",
"[ 	c #A7BBDD",
"] 	c #C9DCFE",
"^ 	c #C6DAFE",
"_ 	c #C1D6FD",
"` 	c #CEE0FF",
"a 	c #8BA2C7",
"b 	c #2A5080",
"c 	c #325683",
"d 	c #2D4E78",
"e 	c #21436C",
"f 	c #5D7498",
"g 	c #C2D6FD",
"h 	c #BDD4FD",
"i 	c #C9DFFF",
"j 	c #8AA3CA",
"k 	c #224877",
"l 	c #7C97BE",
"m 	c #B2C8E9",
"n 	c #A7BEE5",
"o 	c #B1C7EF",
"p 	c #C1D7FF",
"q 	c #BFD5FE",
"r 	c #B9D2FD",
"s 	c #C4DCFF",
"t 	c #88A3CC",
"u 	c #234876",
"v 	c #8AA3CB",
"w 	c #C9E1FF",
"x 	c #BFD7FF",
"y 	c #BED7FF",
"z 	c #BBD4FF",
"{ 	c #B3CDFC",
"| 	c #829CC6",
"} 	c #183E68",
"~ 	c #7E98C4",
" !	c #BED6FD",
"!!	c #B3CCFB",
"#!	c #B5CEFE",
"$!	c #B7CFFF",
"%!	c #AFCAFD",
"&!	c #B6D1FF",
"'!	c #93ADDB",
"(!	c #55729B",
")!	c #91ACDB",
"*!	c #B5D0FF",
"+!	c #B0CAFC",
",!	c #B0CCFF",
"-!	c #B1CBFF",
".!	c #B0CBFF",
"0!	c #ABC6FF",
"1!	c #AFC9FF",
"2!	c #B4CEFF",
"3!	c #ACC7FF",
"4!	c #ACC6FF",
"                                ",
"    # # # # # # # # # # # #     ",
"    # $ % & ' ( ) ( * + % #     ",
"    # , - . 0 1 2 3 4 5 5 #     ",
"    # 6 7 8 9 : ; < = > ? #     ",
"    # @ A B C D E F G H I #     ",
"    # J K L M N O P Q R S #     ",
"    # T U V W X Y Z [ ] ^ #     ",
"    # _ ` a b c d e f R g #     ",
"    # h i j k l m n o p q #     ",
"    # r s t u v w x y z z #     ",
"    # { x | } ~  !!!#!$!#!#     ",
"    # %!&!'!(!)!*!+!,!-!.!#     ",
"    # 0!0!1!2!1!0!3!4!3!0!#     ",
"    # # # # # # # # # # # #     ",
"                                "};