/* XPM */ 
static const char *const hfile_xpm[] = {
"16 16 116 2",
"  	c None",
"! 	c black",
"# 	c #D99300",
"$ 	c #DCE6FF",
"% 	c #DCE7FF",
"& 	c #E4EEFF",
"' 	c #E7F1FF",
"( 	c #DEE8FF",
") 	c #DDE7FF",
"* 	c #DBE6FF",
"+ 	c #D6E5FE",
", 	c #DCEAFF",
"- 	c #9DAEC9",
". 	c #8094B0",
"0 	c #D0DEF6",
"1 	c #D8E8FE",
"2 	c #D6E5FD",
"3 	c #D8E7FE",
"4 	c #D7E7FE",
"5 	c #D8E6FE",
"6 	c #D1E3FD",
"7 	c #DDECFF",
"8 	c #5F799D",
"9 	c #254771",
": 	c #C4D4EE",
"; 	c #DAEBFF",
"< 	c #D4E6FF",
"= 	c #D1E3FE",
"> 	c #D3E4FF",
"? 	c #D2E3FF",
"@ 	c #CEDEFE",
"A 	c #D9E7FF",
"B 	c #6782A8",
"C 	c #355781",
"D 	c #C9D7F3",
"E 	c #C8D7F3",
"F 	c #C4D4F1",
"G 	c #D5E5FF",
"H 	c #CFDFFE",
"I 	c #CBDBFD",
"J 	c #D5E4FF",
"K 	c #647EA5",
"L 	c #355B86",
"M 	c #6C84A8",
"N 	c #31527B",
"O 	c #385881",
"P 	c #93A7C7",
"Q 	c #D3E3FF",
"R 	c #C6DAFE",
"S 	c #CFE1FF",
"T 	c #6681A8",
"U 	c #254E80",
"V 	c #3C5C87",
"W 	c #7E98BA",
"X 	c #375C89",
"Y 	c #3C5D86",
"Z 	c #C3D5F5",
"[ 	c #CADDFE",
"] 	c #C3D6FD",
"^ 	c #CCDEFF",
"_ 	c #637FA8",
"` 	c #294E7C",
"a 	c #A5B9DF",
"b 	c #DEEDFF",
"c 	c #607CA3",
"d 	c #325580",
"e 	c #B6C9ED",
"f 	c #C8DAFF",
"g 	c #BED4FE",
"h 	c #C8DDFF",
"i 	c #607DA6",
"j 	c #31547E",
"k 	c #B5CAF1",
"l 	c #C9DCFC",
"m 	c #5C79A2",
"n 	c #325681",
"o 	c #B3C8EE",
"p 	c #C3D9FE",
"q 	c #BAD3FD",
"r 	c #C4DAFF",
"s 	c #5F7CA7",
"t 	c #30567F",
"u 	c #ADC5ED",
"v 	c #C6DEFF",
"w 	c #5B79A3",
"x 	c #345782",
"y 	c #AFC6EE",
"z 	c #BFD7FF",
"{ 	c #B5CEFD",
"| 	c #BFD6FF",
"} 	c #5977A2",
"~ 	c #2A4F79",
" !	c #A9C1EE",
"!!	c #C1D9FF",
"#!	c #56759F",
"$!	c #2D517B",
"%!	c #AAC1ED",
"&!	c #BAD3FF",
"'!	c #B0CAFE",
"(!	c #B8D3FF",
")!	c #6884AE",
"*!	c #446189",
"+!	c #A7C1F1",
",!	c #BBD4FF",
"-!	c #6781AB",
".!	c #46638A",
"0!	c #A8C2F2",
"1!	c #B4CEFF",
"2!	c #ABC7FE",
"3!	c #ACC8FF",
"4!	c #AAC6FC",
"5!	c #AAC4FA",
"6!	c #ACC8FE",
"7!	c #AAC5FA",
"8!	c #ACC7FE",
"9!	c #ABC7FF",
"                                ",
"    # # # # # # # # # # # #     ",
"    # $ % & ' ( % ) % ) * #     ",
"    # + , - . 0 1 2 3 4 5 #     ",
"    # 6 7 8 9 : ; < = > ? #     ",
"    # @ A B C D E F G H H #     ",
"    # I J K L M N O P Q I #     ",
"    # R S T U V W X Y Z [ #     ",
"    # ] ^ _ ` a b c d e f #     ",
"    # g h i j k l m n o p #     ",
"    # q r s t u v w x y z #     ",
"    # { | } ~  !!!#!$!%!&!#     ",
"    # '!(!)!*!+!,!-!.!0!1!#     ",
"    # 2!3!4!5!6!3!4!7!8!9!#     ",
"    # # # # # # # # # # # #     ",
"                                "};