/* XPM */ 
static const char *const infile_xpm[] = {
"16 16 102 2",
"  	c None",
"! 	c black",
"# 	c #6186BE",
"$ 	c #D7E5FD",
"% 	c #D8E5FD",
"& 	c #D9E6FE",
"' 	c #D9E6FF",
"( 	c #E0F0FF",
") 	c #DEEEFF",
"* 	c #DFEFFF",
"+ 	c #D7E8FF",
", 	c #D4E5FE",
"- 	c #D5E5FE",
". 	c #D4E4FE",
"0 	c #96AACA",
"1 	c #9DB2D2",
"2 	c #9CB0D1",
"3 	c #96ABCB",
"4 	c #C8D9F5",
"5 	c #D4E4FF",
"6 	c #D1E1FE",
"7 	c #D1E1FF",
"8 	c #D3E4FF",
"9 	c #D0E0FE",
": 	c #4C6589",
"; 	c #315683",
"< 	c #345884",
"= 	c #4E688C",
"> 	c #B8C9E9",
"? 	c #D1E2FD",
"@ 	c #D0DFFE",
"A 	c #D3E2FF",
"B 	c #CADAF9",
"C 	c #D7E6FF",
"D 	c #54729C",
"E 	c #6380A7",
"F 	c #879DBF",
"G 	c #5F7A9E",
"H 	c #627CA1",
"I 	c #3C5C84",
"J 	c #8BA1C3",
"K 	c #CFE1FF",
"L 	c #516F98",
"M 	c #5F7CA3",
"N 	c #D1E2FF",
"O 	c #7891B7",
"P 	c #1E4574",
"Q 	c #7B94B8",
"R 	c #6583AB",
"S 	c #375882",
"T 	c #CADBFD",
"U 	c #4F6F98",
"V 	c #5E7CA4",
"W 	c #CDDFFE",
"X 	c #748FB6",
"Y 	c #3F6089",
"Z 	c #D5E5FF",
"[ 	c #92AAD0",
"] 	c #32537E",
"^ 	c #D1E5FF",
"_ 	c #53729C",
"` 	c #6280A8",
"a 	c #D2E6FF",
"b 	c #CADFFF",
"c 	c #728DB6",
"d 	c #41638B",
"e 	c #C7DBFD",
"f 	c #88A1CA",
"g 	c #355781",
"h 	c #5F7A9F",
"i 	c #355885",
"j 	c #3A5D89",
"k 	c #5F799F",
"l 	c #B7CCF4",
"m 	c #6D8AB3",
"n 	c #35557E",
"o 	c #C6DAFE",
"p 	c #829DC5",
"q 	c #284B73",
"r 	c #6682AA",
"s 	c #708CB7",
"t 	c #6E8AB5",
"u 	c #6681A9",
"v 	c #AFC7F4",
"w 	c #93ACD7",
"x 	c #778FB7",
"y 	c #BCD3FE",
"z 	c #9BB4DF",
"{ 	c #718AB2",
"| 	c #BFD9FF",
"} 	c #BDD7FF",
"~ 	c #B4CFFF",
" !	c #B8D2FF",
"!!	c #BCD6FF",
"#!	c #B2CDFF",
"$!	c #B6D1FF",
"%!	c #ABC8F9",
"&!	c #AAC8FA",
"'!	c #ACCAFB",
"(!	c #ABC9FA",
")!	c #AAC8F9",
"*!	c #ACCBFC",
"                                ",
"    # # # # # # # # # # # #     ",
"    # $ $ % $ & ' & ' ' ' #     ",
"    # ( ) * ( + , - , . - #     ",
"    # 0 1 2 3 4 5 6 7 8 9 #     ",
"    # : ; < = > ? @ A B A #     ",
"    # C D E C 8 F G H I J #     ",
"    # K L M K N O P Q R S #     ",
"    # T U V T W X Y Z [ ] #     ",
"    # ^ _ ` a b c d e f g #     ",
"    # h i j k l m n o p q #     ",
"    # r s t u v w x y z { #     ",
"    # | } } | ~  !!!#!$!} #     ",
"    # %!&!%!&!'!(!)!*!(!&!#     ",
"    # # # # # # # # # # # #     ",
"                                "};