/* XPM */ 
static const char *const luafile_xpm[] = {
"16 16 115 2",
"  	c None",
"! 	c black",
"# 	c #D99300",
"$ 	c #D7E5FE",
"% 	c #D7E5FF",
"& 	c #D9E6FF",
"' 	c #DCE9FF",
"( 	c #D9E8FF",
") 	c #D8E5FE",
"* 	c #D7E4FF",
"+ 	c #D3E1FD",
", 	c #DBE8FF",
"- 	c #B3C3DF",
". 	c #536B8B",
"0 	c #92A4C0",
"1 	c #DCEAFF",
"2 	c #D3E1FC",
"3 	c #D4E2FE",
"4 	c #D5E2FF",
"5 	c #D4E2FF",
"6 	c #CEDEFC",
"7 	c #DAE9FF",
"8 	c #A0B2D1",
"9 	c #153C69",
": 	c #7089AB",
"; 	c #DBEAFF",
"< 	c #CEDFFC",
"= 	c #D0E0FD",
"> 	c #D1E0FF",
"? 	c #D0E1FF",
"@ 	c #CADCFD",
"A 	c #D5E6FF",
"B 	c #A1B4D4",
"C 	c #224874",
"D 	c #748DB1",
"E 	c #D7E6FF",
"F 	c #CCDDFE",
"G 	c #CDDEFF",
"H 	c #CCDDFF",
"I 	c #C7DAFD",
"J 	c #D1E3FF",
"K 	c #9EB1D4",
"L 	c #1F4572",
"M 	c #718CB0",
"N 	c #D3E4FF",
"O 	c #C7D9FC",
"P 	c #C9DBFE",
"Q 	c #C9DBFF",
"R 	c #C4D8FD",
"S 	c #CEE2FF",
"T 	c #9CAFD4",
"U 	c #1F4672",
"V 	c #708BB0",
"W 	c #D0E2FF",
"X 	c #C6D9FE",
"Y 	c #C6D9FF",
"Z 	c #C5DAFF",
"[ 	c #C0D4FD",
"] 	c #CBDEFF",
"^ 	c #99AFD4",
"_ 	c #214672",
"` 	c #6E8AB0",
"a 	c #CCDEFE",
"b 	c #C0D4FC",
"c 	c #C2D5FD",
"d 	c #C3D6FE",
"e 	c #C2D6FE",
"f 	c #BCD4FC",
"g 	c #C6DCFF",
"h 	c #96ACD4",
"i 	c #6D8AB0",
"j 	c #C8DFFF",
"k 	c #BDD5FE",
"l 	c #BFD6FF",
"m 	c #BED6FF",
"n 	c #BED5FF",
"o 	c #B8D1FC",
"p 	c #C2DAFE",
"q 	c #93AAD4",
"r 	c #234875",
"s 	c #6C8AB2",
"t 	c #C2D8FC",
"u 	c #B7CFF8",
"v 	c #B9D1FB",
"w 	c #BAD2FC",
"x 	c #BAD3FE",
"y 	c #B4CDFC",
"z 	c #BED7FF",
"{ 	c #8CA4CF",
"| 	c #224875",
"} 	c #365C8A",
"~ 	c #42618C",
" !	c #41628D",
"!!	c #385780",
"#!	c #7E96BF",
"$!	c #BED6FE",
"%!	c #AFCAFD",
"&!	c #B6D1FE",
"'!	c #92ACD9",
"(!	c #49678F",
")!	c #4D6D99",
"*!	c #496993",
"+!	c #4B6B96",
",!	c #41618B",
"-!	c #809AC5",
".!	c #B7D2FF",
"0!	c #ABC7FE",
"1!	c #ACC7FE",
"2!	c #ACC7FF",
"3!	c #ADC8FE",
"4!	c #AEC9FE",
"5!	c #AEC8FF",
"6!	c #AEC9FF",
"7!	c #ADC8FF",
"8!	c #AAC7FF",
"                                ",
"    # # # # # # # # # # # #     ",
"    # $ % & ' ( % ) % % * #     ",
"    # + , - . 0 1 2 3 4 5 #     ",
"    # 6 7 8 9 : ; < = > ? #     ",
"    # @ A B C D E @ F G H #     ",
"    # I J K L M N O P Q Q #     ",
"    # R S T U V W R X Y Z #     ",
"    # [ ] ^ _ ` a b c d e #     ",
"    # f g h _ i j k l m n #     ",
"    # o p q r s t u v w x #     ",
"    # y z { | } ~  !!!#!$!#     ",
"    # %!&!'!(!)!*!+!,!-!.!#     ",
"    # 0!1!2!3!3!4!5!6!7!8!#     ",
"    # # # # # # # # # # # #     ",
"                                "};