/* XPM */ 
static const char *const makefile_xpm[] = {
"16 16 71 1",
" 	c None",
"!	c black",
"#	c #6186BE",
"$	c #D7E3FE",
"%	c #D5E2FE",
"&	c #D1E0FE",
"'	c #DFEDF5",
"(	c #A3C9E2",
")	c #5A9CCA",
"*	c #5498CA",
"+	c #98C1E0",
",	c #D3E5F2",
"-	c #CEDEFE",
".	c #9ED1EA",
"0	c #5AA1D0",
"1	c #1A73B6",
"2	c #0565AE",
"3	c #0566AE",
"4	c #136FB4",
"5	c #4A8ABF",
"6	c #91A7CA",
"7	c #CADBFE",
"8	c #38ADE2",
"9	c #008FD3",
":	c #007EC4",
";	c #006BB5",
"<	c #0054A1",
"=	c #003686",
">	c #001C6C",
"?	c #24337E",
"@	c #C6D9FE",
"A	c #3AB3E7",
"B	c #029DDE",
"C	c #009BDD",
"D	c #008CD1",
"E	c #012175",
"F	c #00085C",
"G	c #00065D",
"H	c #252D7B",
"I	c #C2D6FE",
"J	c #3BB3E7",
"K	c #039DDE",
"L	c #009CDE",
"M	c #008ED3",
"N	c #011B6F",
"O	c #00075F",
"P	c #262E7D",
"Q	c #BDD4FE",
"R	c #38B2E6",
"S	c #019CDD",
"T	c #009BDE",
"U	c #021C70",
"V	c #00075D",
"W	c #00065E",
"X	c #232B7B",
"Y	c #B9D1FE",
"Z	c #7BCDEE",
"[	c #27AAE0",
"]	c #021C6F",
"^	c #010960",
"_	c #1E2976",
"`	c #777FB0",
"a	c #B3CEFE",
"b	c #9CC9E2",
"c	c #41ABDE",
"d	c #1395D3",
"e	c #122F7C",
"f	c #395797",
"g	c #8BADD1",
"h	c #AECAFE",
"i	c #A8C6FE",
"                ",
"  ############  ",
"  #$$$$$$$$$$#  ",
"  #%%%%%%%%%%#  ",
"  #&&'()*+,&&#  ",
"  #-.0123456-#  ",
"  #789:;<=>?7#  ",
"  #@ABCDEFGH@#  ",
"  #IJKLMNGOPI#  ",
"  #QRSTMUVWXQ#  ",
"  #YZ[BM]^_`Y#  ",
"  #aabcdefgaa#  ",
"  #hhhhhhhhhh#  ",
"  #iiiiiiiiii#  ",
"  ############  ",
"                "};