/* XPM */ 
static const char *const mfile_xpm[] = {
"16 16 109 2",
"  	c None",
"! 	c black",
"# 	c #6186BE",
"$ 	c #D5E6FF",
"% 	c #D5E5FE",
"& 	c #D5E5FD",
"' 	c #D6E6FE",
"( 	c #D1E3FF",
") 	c #D6E6FF",
"* 	c #DBEBFF",
"+ 	c #D2E3FF",
", 	c #DBEAFF",
"- 	c #D1E2FE",
". 	c #D0E0FF",
"0 	c #BDCEEC",
"1 	c #BFCEEC",
"2 	c #C2D2F0",
"3 	c #A8BAD7",
"4 	c #D1E1FE",
"5 	c #BECEED",
"6 	c #CEDEFC",
"7 	c #CFDFFF",
"8 	c #D5E4FF",
"9 	c #637B9D",
": 	c #446086",
"; 	c #48658A",
"< 	c #21456E",
"= 	c #6B85A7",
"> 	c #425F85",
"? 	c #1E426C",
"@ 	c #7E93B4",
"A 	c #D4E3FF",
"B 	c #CFE1FF",
"C 	c #6680A7",
"D 	c #1E4776",
"E 	c #6882A7",
"F 	c #55759F",
"G 	c #1F4775",
"H 	c #7089AD",
"I 	c #476894",
"J 	c #436188",
"K 	c #C8DAFC",
"L 	c #CDDEFF",
"M 	c #627EA5",
"N 	c #2C4F7A",
"O 	c #BDCEF2",
"P 	c #617EA4",
"Q 	c #32547F",
"R 	c #C4D4F7",
"S 	c #55729A",
"T 	c #415F87",
"U 	c #C4D6FB",
"V 	c #C9DCFF",
"W 	c #607BA3",
"X 	c #31537C",
"Y 	c #BDD0F6",
"Z 	c #59779E",
"[ 	c #395A82",
"] 	c #C0D3FA",
"^ 	c #506E96",
"_ 	c #405F88",
"` 	c #C0D3FC",
"a 	c #C4DBFF",
"b 	c #5F7BA3",
"c 	c #2F527B",
"d 	c #B8CDF4",
"e 	c #5977A0",
"f 	c #375881",
"g 	c #BCD1F8",
"h 	c #4E6E97",
"i 	c #BCD3FB",
"j 	c #BFD7FF",
"k 	c #5E7CA6",
"l 	c #33557F",
"m 	c #B4CAF4",
"n 	c #5A78A2",
"o 	c #3A5C85",
"p 	c #B7CDF8",
"q 	c #506F9A",
"r 	c #41628B",
"s 	c #B7CFFB",
"t 	c #BDD5FF",
"u 	c #536F99",
"v 	c #24446B",
"w 	c #AFC7F5",
"x 	c #4E6C95",
"y 	c #2C4B72",
"z 	c #B4CBF8",
"{ 	c #45628B",
"| 	c #34537A",
"} 	c #B3CBFB",
"~ 	c #B2CEFF",
" !	c #86A0CE",
"!!	c #728CB7",
"#!	c #AEC9FB",
"$!	c #839ECB",
"%!	c #758FBA",
"&!	c #B0CBFC",
"'!	c #7F9AC7",
"(!	c #7993BE",
")!	c #AFCAFD",
"*!	c #AAC5FF",
"+!	c #B6D0FF",
",!	c #ACC7FF",
"-!	c #B3CEFF",
".!	c #B5D1FF",
"0!	c #ACC6FF",
"1!	c #B5D0FF",
"2!	c #ABC6FF",
"                                ",
"    # # # # # # # # # # # #     ",
"    # $ % % % & ' % & ' $ #     ",
"    # ( ) ) ) * + ) , + - #     ",
"    # . 0 1 2 3 4 5 3 6 7 #     ",
"    # 8 9 : ; < = > ? @ A #     ",
"    # B C D E F G H I J K #     ",
"    # L M N O P Q R S T U #     ",
"    # V W X Y Z [ ] ^ _ ` #     ",
"    # a b c d e f g h _ i #     ",
"    # j k l m n o p q r s #     ",
"    # t u v w x y z { | } #     ",
"    # ~  !!!#!$!%!&!'!(!)!#     ",
"    # *!~ +!,!-!.!0!-!1!2!#     ",
"    # # # # # # # # # # # #     ",
"                                "};