/* XPM */ 
static const char *const pyfile_xpm[] = {
"16 16 113 2",
"  	c None",
"! 	c black",
"# 	c #6186BE",
"$ 	c #DAE6FF",
"% 	c #DBE6FE",
"& 	c #DFEBFF",
"' 	c #E0EBFF",
"( 	c #DEEBFF",
") 	c #DBE6FF",
"* 	c #DAE6FD",
"+ 	c #DBE7FF",
", 	c #DBE5FE",
"- 	c #D7E4FF",
". 	c #D7E5FF",
"0 	c #C9D7F0",
"1 	c #C5D4EC",
"2 	c #C7D6EF",
"3 	c #CCDAF2",
"4 	c #DCE9FF",
"5 	c #DDEBFF",
"6 	c #D6E4FE",
"7 	c #D2E2FF",
"8 	c #D5E2FE",
"9 	c #587194",
": 	c #315580",
"; 	c #31537B",
"< 	c #32537B",
"= 	c #536F95",
"> 	c #B1C1DD",
"? 	c #D9E7FF",
"@ 	c #D1E0FD",
"A 	c #CEDFFF",
"B 	c #D1E0FE",
"C 	c #4C6B94",
"D 	c #355B88",
"E 	c #91A5C7",
"F 	c #7C94B7",
"G 	c #2B517E",
"H 	c #3C5C85",
"I 	c #C3D3EE",
"J 	c #D2E2FE",
"K 	c #CADDFF",
"L 	c #CFDEFF",
"M 	c #3F6089",
"N 	c #CCDCFB",
"O 	c #E1F0FF",
"P 	c #758FB3",
"Q 	c #224877",
"R 	c #A2B5D5",
"S 	c #D3E4FF",
"T 	c #C7DAFF",
"U 	c #CBDCFE",
"V 	c #4A6A93",
"W 	c #3E5F8A",
"X 	c #C8DAFB",
"Y 	c #D2E4FF",
"Z 	c #5F7DA5",
"[ 	c #264C78",
"] 	c #AABEE0",
"^ 	c #CDE0FF",
"_ 	c #C4D6FF",
"` 	c #C5D7FE",
"a 	c #4D6C95",
"b 	c #305787",
"c 	c #627EA4",
"d 	c #4D6B94",
"e 	c #1F4571",
"f 	c #627DA3",
"g 	c #C7D8FC",
"h 	c #C3D6FD",
"i 	c #BED6FF",
"j 	c #C1D5FE",
"k 	c #4C6B95",
"l 	c #2E5686",
"m 	c #496991",
"n 	c #4E6E96",
"o 	c #7C96BC",
"p 	c #BCD1F8",
"q 	c #C1D7FE",
"r 	c #BED4FE",
"s 	c #BAD4FF",
"t 	c #BDD4FE",
"u 	c #4A6995",
"v 	c #3F618D",
"w 	c #BBD1F9",
"x 	c #C3DAFF",
"y 	c #C2DBFF",
"z 	c #BBD5FF",
"{ 	c #BAD3FE",
"| 	c #B5CFFF",
"} 	c #B8D0FE",
"~ 	c #405F89",
" !	c #32547D",
"!!	c #AFC7F5",
"#!	c #B6D0FE",
"$!	c #B3CCFC",
"%!	c #B5CEFE",
"&!	c #B6CFFF",
"'!	c #B0CBFF",
"(!	c #B2CCFE",
")!	c #7590BB",
"*!	c #6E89B4",
"+!	c #ADC7FA",
",!	c #B1CCFE",
"-!	c #B0CAFE",
".!	c #B0CCFE",
"0!	c #B0CBFE",
"1!	c #A8C6FF",
"2!	c #AAC7FE",
"3!	c #B0CDFF",
"4!	c #B1CEFF",
"5!	c #AAC7FF",
"6!	c #A9C6FF",
"                                ",
"    # # # # # # # # # # # #     ",
"    # $ % & ' ' ( ) * + , #     ",
"    # - . 0 1 2 3 4 5 6 . #     ",
"    # 7 8 9 : ; < = > ? @ #     ",
"    # A B C D E F G H I J #     ",
"    # K L C M N O P Q R S #     ",
"    # T U V W X Y Z [ ] ^ #     ",
"    # _ ` a b c d e f g h #     ",
"    # i j k l m n o p q r #     ",
"    # s t u v w x y z { s #     ",
"    # | } ~  !!!#!$!%!&!%!#     ",
"    # '!(!)!*!+!,!-!.!0!'!#     ",
"    # 1!2!3!4!5!6!5!5!5!6!#     ",
"    # # # # # # # # # # # #     ",
"                                "};