/* XPM */ 
static const char *const shfile_xpm[] = {
"16 16 105 2",
"  	c None",
"! 	c black",
"# 	c #6186BE",
"$ 	c #D9E6FE",
"% 	c #D8E5FD",
"& 	c #DAE7FF",
"' 	c #DAE6FF",
"( 	c #D5E3FE",
") 	c #DEEBFF",
"* 	c #E3EFFF",
"+ 	c #E1EEFF",
", 	c #D8E6FF",
"- 	c #D6E3FE",
". 	c #D6E4FE",
"0 	c #D6E4FF",
"1 	c #ABBDDC",
"2 	c #899FC0",
"3 	c #94A9C7",
"4 	c #CFDEF8",
"5 	c #B1C2E1",
"6 	c #526C8F",
"7 	c #C4D3F1",
"8 	c #D8E7FF",
"9 	c #D1E0FC",
": 	c #8499BD",
"; 	c #32557E",
"< 	c #537198",
"= 	c #415F83",
"> 	c #B1C3E2",
"? 	c #AABEDF",
"@ 	c #30537C",
"A 	c #C0D1EF",
"B 	c #CBDCF7",
"C 	c #D0E1FF",
"D 	c #42628C",
"E 	c #57769F",
"F 	c #D2E3FF",
"G 	c #CFE1FD",
"H 	c #A2B6DA",
"I 	c #3A5D88",
"J 	c #5B779C",
"K 	c #3C5C84",
"L 	c #8099BB",
"M 	c #7F98BC",
"N 	c #264B78",
"O 	c #45668F",
"P 	c #8BA2C6",
"Q 	c #CFE1FE",
"R 	c #A1B8DB",
"S 	c #284E7C",
"T 	c #768FB6",
"U 	c #7A95BC",
"V 	c #335580",
"W 	c #CBDDFF",
"X 	c #9EB4D8",
"Y 	c #5B79A3",
"Z 	c #244A77",
"[ 	c #849CC2",
"] 	c #A5BBE1",
"^ 	c #31537D",
"_ 	c #C3D5FC",
"` 	c #A1B7DE",
"a 	c #345580",
"b 	c #AEC4ED",
"c 	c #C5DAFF",
"d 	c #C7DCFF",
"e 	c #446692",
"f 	c #5C79A3",
"g 	c #A3BAE2",
"h 	c #B6CCF4",
"i 	c #96AFD6",
"j 	c #355682",
"k 	c #4B688D",
"l 	c #3C5D86",
"m 	c #41628B",
"n 	c #345781",
"o 	c #9BB2DA",
"p 	c #9AB3DD",
"q 	c #2D4D73",
"r 	c #B3CAF5",
"s 	c #92ABD5",
"t 	c #2E4E76",
"u 	c #9BB5E2",
"v 	c #819DCA",
"w 	c #84A0CC",
"x 	c #A4BDEB",
"y 	c #BCD4FF",
"z 	c #ACC5F3",
"{ 	c #94ADD9",
"| 	c #B4CCFB",
"} 	c #ACC5F4",
"~ 	c #94AED9",
" !	c #B6D1FF",
"!!	c #BAD5FF",
"#!	c #B4D0FF",
"$!	c #AFCAFE",
"%!	c #B2CDFF",
"&!	c #B7D3FF",
"'!	c #B0CCFF",
"(!	c #B7D2FF",
")!	c #ABC6FE",
"*!	c #AAC5FD",
"+!	c #ACC7FF",
",!	c #ACC6FE",
"-!	c #ABC5FD",
"                                ",
"    # # # # # # # # # # # #     ",
"    # $ % % % $ & & & ' ' #     ",
"    # ( ) * + , ( - . ( ( #     ",
"    # 0 1 2 3 4 5 6 7 8 9 #     ",
"    # : ; < = > ? @ A B C #     ",
"    # D E 8 F G H I J K L #     ",
"    # M N O P Q R S T U V #     ",
"    # W X Y Z [ ] ^ _ ` a #     ",
"    # b c d e f g V h i j #     ",
"    # k l m n o p q r s t #     ",
"    # u v w x y z { | } ~ #     ",
"    #  !!!!!#!$!%!&!'!%!(!#     ",
"    # )!*!*!)!+!,!-!,!,!-!#     ",
"    # # # # # # # # # # # #     ",
"                                "};