/* XPM */ 
static const char *const txtfile_xpm[] = {
"16 16 102 2",
"  	c None",
"! 	c black",
"# 	c #6186BE",
"$ 	c #DAE6FF",
"% 	c #DCE8FF",
"& 	c #DEEAFF",
"' 	c #D6E7FF",
"( 	c #D3E2FA",
") 	c #CBD9F1",
"* 	c #CBDAF2",
"+ 	c #C8D7EF",
", 	c #CAD9F1",
"- 	c #D3E2F9",
". 	c #D7E7FF",
"0 	c #DAEBFF",
"1 	c #9DAFCA",
"2 	c #29476E",
"3 	c #365780",
"4 	c #3C5D87",
"5 	c #3C5D88",
"6 	c #375781",
"7 	c #27466E",
"8 	c #94A7C3",
"9 	c #DBECFF",
": 	c #D3E3FF",
"; 	c #B3C4E2",
"< 	c #758CAE",
"= 	c #7C94B6",
"> 	c #395E8B",
"? 	c #345C89",
"@ 	c #7A92B4",
"A 	c #748CAE",
"B 	c #ADBFDD",
"C 	c #D3E4FF",
"D 	c #CBDBFF",
"E 	c #CFE0FF",
"F 	c #D8E8FF",
"G 	c #D5E2FF",
"H 	c #496A92",
"I 	c #3E5F88",
"J 	c #CEDDFB",
"K 	c #D9E9FF",
"L 	c #CFDFFF",
"M 	c #CBDCFF",
"N 	c #C8DBFF",
"O 	c #C7DAFD",
"P 	c #C6DAFD",
"Q 	c #C5D6F8",
"R 	c #466790",
"S 	c #BED0F3",
"T 	c #C8DBFC",
"U 	c #C7D9FD",
"V 	c #C4D7FF",
"W 	c #C4D7FD",
"X 	c #C5D8FE",
"Y 	c #C4D5FA",
"Z 	c #456690",
"[ 	c #3D5D87",
"] 	c #BECFF4",
"^ 	c #C6D9FF",
"_ 	c #C0D5FF",
"` 	c #C0D5FE",
"a 	c #C1D6FF",
"b 	c #BFD3F9",
"c 	c #446590",
"d 	c #B9CEF5",
"e 	c #C2D7FF",
"f 	c #BFD5FE",
"g 	c #BDD3FF",
"h 	c #BDD3FE",
"i 	c #BED5FF",
"j 	c #BBD0F9",
"k 	c #3B5D88",
"l 	c #B6CBF5",
"m 	c #BFD5FF",
"n 	c #BCD3FE",
"o 	c #B8D0FF",
"p 	c #B9CFFE",
"q 	c #B9D0FF",
"r 	c #B6CDF9",
"s 	c #446591",
"t 	c #3B5E89",
"u 	c #B1C8F5",
"v 	c #BBD1FF",
"w 	c #B8CFFE",
"x 	c #B3CCFE",
"y 	c #B3CCFD",
"z 	c #B4CDFE",
"{ 	c #B2C9FB",
"| 	c #415F87",
"} 	c #37567F",
"~ 	c #ACC4F5",
" !	c #B5CEFE",
"!!	c #AECAFF",
"#!	c #AFCAFE",
"$!	c #AFCAFF",
"%!	c #AEC9FE",
"&!	c #96AFE0",
"'!	c #94ADDE",
"(!	c #ACC8FD",
")!	c #AECAFE",
"*!	c #ADC9FF",
"                                ",
"    # # # # # # # # # # # #     ",
"    # $ % & & & & & & % $ #     ",
"    # ' ( ) * + + * , - . #     ",
"    # 0 1 2 3 4 5 6 7 8 9 #     ",
"    # : ; < = > ? @ A B C #     ",
"    # D E F G H I J K L M #     ",
"    # N O P Q R 4 S T U N #     ",
"    # V W X Y Z [ ] ^ W V #     ",
"    # _ ` a b c 5 d e f _ #     ",
"    # g h i j c k l m n g #     ",
"    # o p q r s t u v w o #     ",
"    # x y z { | } ~  !y x #     ",
"    # !!#!$!%!&!'!(!$!)!*!#     ",
"    # # # # # # # # # # # #     ",
"                                "};