/* XPM */ 
static const char* const comet_xpm[] = {
"48 48 571 2",
"  	c None",
"! 	c #5B7EAB",
"# 	c #4D74A3",
"$ 	c #4D74A4",
"% 	c #6588B0",
"& 	c #577DAA",
"' 	c #7091B7",
"( 	c #7393B8",
") 	c #7D9ABC",
"* 	c #88A2C2",
"+ 	c #8DA6C5",
", 	c #A1B6CF",
"- 	c #9AB0CB",
". 	c #839FBF",
"0 	c #809DBE",
"1 	c #7595B9",
"2 	c #7292B8",
"3 	c #7191B7",
"4 	c #6C8BB3",
"5 	c #6F8EB6",
"6 	c #7493B8",
"7 	c #5B7FAC",
"8 	c #6083AE",
"9 	c #597EAB",
": 	c #567CA9",
"; 	c #5077A5",
"< 	c #4E75A4",
"= 	c #5B80AB",
"> 	c #406A9D",
"? 	c #5A7FAB",
"@ 	c #4870A1",
"A 	c #597EAA",
"B 	c #6486AF",
"C 	c #6788B1",
"D 	c #809CBE",
"E 	c #93ABC8",
"F 	c #8AA3C3",
"G 	c #7594B9",
"H 	c #7A98BB",
"I 	c #6E8EB5",
"J 	c #698AB2",
"K 	c #6B8CB3",
"L 	c #6587B0",
"M 	c #547AA7",
"N 	c #5C80AC",
"O 	c #5379A7",
"P 	c #5C80AB",
"Q 	c #4F76A5",
"R 	c #4A72A2",
"S 	c #4C73A3",
"T 	c #3F6A9D",
"U 	c #4871A1",
"V 	c #567BA8",
"W 	c #5D80AC",
"X 	c #5F83AD",
"Y 	c #577CA9",
"Z 	c #7B98BB",
"[ 	c #7996BA",
"] 	c #7191B6",
"^ 	c #7593B8",
"_ 	c #7291B7",
"` 	c #7190B6",
"a 	c #6386AF",
"b 	c #7997BA",
"c 	c #6789B1",
"d 	c #7D99BC",
"e 	c #6A8BB3",
"f 	c #6A8BB2",
"g 	c #6D8DB4",
"h 	c #7A96BB",
"i 	c #4C74A3",
"j 	c #5B7FAB",
"k 	c #4770A1",
"l 	c #4E76A5",
"m 	c #5F82AD",
"n 	c #839EBF",
"o 	c #85A0C0",
"p 	c #87A1C1",
"q 	c #819DBE",
"r 	c #7F9BBD",
"s 	c #849FC0",
"t 	c #8BA5C4",
"u 	c #96ADC9",
"v 	c #8EA7C5",
"w 	c #97AECA",
"x 	c #9BB1CB",
"y 	c #8DA6C4",
"z 	c #86A1C1",
"{ 	c #87A2C2",
"| 	c #90A9C6",
"} 	c #456EA0",
"~ 	c #4971A2",
" !	c #6184AE",
"!!	c #98AECA",
"#!	c #95ADC9",
"$!	c #99B0CB",
"%!	c #94ACC8",
"&!	c #9AB1CB",
"'!	c #9EB3CD",
"(!	c #97AEC9",
")!	c #A0B5CE",
"*!	c #A5B9D1",
"+!	c #A7BBD2",
",!	c #B0C2D6",
"-!	c #B2C3D8",
".!	c #BBCADC",
"0!	c #BCCADC",
"1!	c #C1CFDF",
"2!	c #C6D2E2",
"3!	c #CAD6E4",
"4!	c #CFD8E5",
"5!	c #5278A6",
"6!	c #7694B9",
"7!	c #96AEC9",
"8!	c #AABCD3",
"9!	c #A9BCD3",
":!	c #A4B8D0",
";!	c #9FB4CE",
"<!	c #A3B7D0",
"=!	c #AFC0D6",
">!	c #BDCBDD",
"?!	c #C8D4E3",
"@!	c #DCE4ED",
"A!	c #E2E9F0",
"B!	c #EDF1F6",
"C!	c #F7F8FB",
"D!	c #FDFDFE",
"E!	c white",
"F!	c #416B9E",
"G!	c #466FA0",
"H!	c #6285AE",
"I!	c #6F8EB5",
"J!	c #92AAC7",
"K!	c #99AFCA",
"L!	c #B3C4D8",
"M!	c #B5C5D9",
"N!	c #C7D3E2",
"O!	c #D5DEE9",
"P!	c #E8EDF3",
"Q!	c #F9FAFB",
"R!	c #FEFEFE",
"S!	c #466FA1",
"T!	c #5077A6",
"U!	c #829EBF",
"V!	c #829DBF",
"W!	c #89A3C2",
"X!	c #98AFCA",
"Y!	c #B6C6DA",
"Z!	c #D9E1EB",
"[!	c #F1F4F8",
"]!	c #FDFEFE",
"^!	c #436D9E",
"_!	c #5D81AC",
"`!	c #6F8FB5",
"a!	c #7E9ABD",
"b!	c #90A8C6",
"c!	c #A6BAD1",
"d!	c #D0DBE7",
"e!	c #F5F7F9",
"f!	c #688AB2",
"g!	c #8AA4C3",
"h!	c #E5EBF1",
"i!	c #446E9F",
"j!	c #567CA8",
"k!	c #88A3C2",
"l!	c #A2B6CF",
"m!	c #E3EAF1",
"n!	c #F9FAFC",
"o!	c #EFF2F7",
"p!	c #E9EEF3",
"q!	c #E0E7EF",
"r!	c #D8E0EB",
"s!	c #D2DCE8",
"t!	c #CCD7E5",
"u!	c #C9D5E3",
"v!	c #3F699D",
"w!	c #426C9E",
"x!	c #8BA5C3",
"y!	c #C3D0E0",
"z!	c #FCFDFD",
"{!	c #E1E7EF",
"|!	c #D3DDE8",
"}!	c #C8D4E2",
"~!	c #B4C5D9",
" #	c #AABDD3",
"!#	c #99AFCB",
"##	c #8FA7C5",
"$#	c #86A0C1",
"%#	c #8CA5C5",
"&#	c #3E699D",
"'#	c #4B72A3",
"(#	c #6688B1",
")#	c #D1DBE8",
"*#	c #F7F9FB",
"+#	c #E5EBF2",
",#	c #CED8E6",
"-#	c #BAC9DC",
".#	c #9CB2CC",
"0#	c #9DB3CD",
"1#	c #91A9C6",
"2#	c #7F9CBE",
"3#	c #7292B7",
"4#	c #4B73A3",
"5#	c #3E699C",
"6#	c #436C9F",
"7#	c #587DAA",
"8#	c #7896BA",
"9#	c #C6D2E1",
":#	c #F0F3F7",
";#	c #D6DFEA",
"<#	c #BCCBDD",
"=#	c #A8BBD2",
">#	c #9FB4CD",
"?#	c #9BB1CC",
"@#	c #7E9BBD",
"A#	c #7C99BC",
"B#	c #7392B7",
"C#	c #3E689C",
"D#	c #F8FAFB",
"E#	c #D0DAE7",
"F#	c #B7C7DA",
"G#	c #ABBED4",
"H#	c #698BB2",
"I#	c #6083AD",
"J#	c #5E81AC",
"K#	c #4D75A4",
"L#	c #406B9D",
"M#	c #7B97BB",
"N#	c #7090B6",
"O#	c #6285AF",
"P#	c #8FA8C5",
"Q#	c #DDE5ED",
"R#	c #FBFCFD",
"S#	c #6889B2",
"T#	c #6084AE",
"U#	c #537AA7",
"V#	c #4C74A4",
"W#	c #557AA7",
"X#	c #5A7EAA",
"Y#	c #8CA5C4",
"Z#	c #9DB2CD",
"[#	c #91A9C7",
"]#	c #8CA6C4",
"^#	c #6C8CB4",
"_#	c #6B8BB3",
"`#	c #6486B0",
"a#	c #6385AF",
"b#	c #587DA9",
"c#	c #557AA8",
"d#	c #567BA9",
"e#	c #446EA0",
"f#	c #4670A1",
"g#	c #B8C8DB",
"h#	c #A1B5CF",
"i#	c #C4D1E1",
"j#	c #B4C4D8",
"k#	c #6889B1",
"l#	c #557BA8",
"m#	c #557BA7",
"n#	c #476FA0",
"o#	c #F3F5F8",
"p#	c #EEF2F6",
"q#	c #FEFEFD",
"r#	c #FEFCFA",
"s#	c #DEE6EE",
"t#	c #89A4C3",
"u#	c #FBF8D9",
"v#	c #F3E16C",
"w#	c #EBCA2C",
"x#	c #E3B11E",
"y#	c #DFA437",
"z#	c #E6BB7F",
"{#	c #F9F2E9",
"|#	c #5E81AD",
"}#	c #4E75A5",
"~#	c #4871A2",
" $	c #436D9F",
"!$	c #A2B7CF",
"#$	c #FAF5AE",
"$$	c #F4E616",
"%$	c #F3E407",
"&$	c #F1DE07",
"'$	c #EED109",
"($	c #E6B60F",
")$	c #DC9414",
"*$	c #D48B2A",
"+$	c #F3E2CE",
",$	c #FAFBFC",
"-$	c #6688B0",
".$	c #5E82AD",
"0$	c #5177A6",
"1$	c #456FA0",
"2$	c #5C81AC",
"3$	c #FDFAD6",
"4$	c #F6ED18",
"5$	c #F6ED08",
"6$	c #F6EB04",
"7$	c #F5E601",
"8$	c #F1DE05",
"9$	c #EDCD0B",
":$	c #E5B113",
";$	c #DB9919",
"<$	c #D0872D",
"=$	c #FAF5F0",
">$	c #DDE5EE",
"?$	c #7997BB",
"@$	c #6284AE",
"A$	c #6D8EB4",
"B$	c #446D9F",
"C$	c #4F77A5",
"D$	c #F9F367",
"E$	c #F7F012",
"F$	c #F7F00D",
"G$	c #F6EF05",
"H$	c #F6EB0C",
"I$	c #F4E614",
"J$	c #F0DA12",
"K$	c #EAC514",
"L$	c #E7C433",
"M$	c #D79119",
"N$	c #DEB892",
"O$	c #7D9ABD",
"P$	c #567BA7",
"Q$	c #FEFEFC",
"R$	c #F7F12E",
"S$	c #F7F114",
"T$	c #F7F112",
"U$	c #F7F24D",
"V$	c #F7F041",
"W$	c #F4E915",
"X$	c #F1DF13",
"Y$	c #ECCB13",
"Z$	c #E5B319",
"[$	c #D88E16",
"]$	c #CE8E54",
"^$	c #95ACC8",
"_$	c #AFC1D6",
"`$	c #FEFEF9",
"a$	c #F7F121",
"b$	c #F7F216",
"c$	c #F9F678",
"d$	c #FAF9DB",
"e$	c #F7F043",
"f$	c #F5E803",
"g$	c #F2E113",
"h$	c #EDCE13",
"i$	c #E3AB15",
"j$	c #D58214",
"k$	c #CB8244",
"l$	c #F5F7FA",
"m$	c #BECCDD",
"n$	c #6587AF",
"o$	c #88A2C1",
"p$	c #A3B7CF",
"q$	c #D1DBE7",
"r$	c #F7F138",
"s$	c #F7F217",
"t$	c #F8F45C",
"u$	c #F9F6A2",
"v$	c #F6ED14",
"w$	c #F4E701",
"x$	c #F1DE09",
"y$	c #ECC90D",
"z$	c #E1A012",
"{$	c #D37413",
"|$	c #D29162",
"}$	c #F6F7F9",
"~$	c #CFD9E6",
" %	c #93ABC7",
"!%	c #7896B9",
"#%	c #5479A7",
"$%	c #456E9F",
"%%	c #5A7FAA",
"&%	c #708FB5",
"'%	c #A6B9D1",
"(%	c #B3C3D7",
")%	c #FAF582",
"*%	c #F7F013",
"+%	c #F7F11A",
",%	c #F7EF1D",
"-%	c #F6EC06",
".%	c #F4E502",
"0%	c #F0DA06",
"1%	c #EAC00C",
"2%	c #DF9312",
"3%	c #CC6312",
"4%	c #E7C4AE",
"5%	c #7090B5",
"6%	c #4E76A4",
"7%	c #7694B8",
"8%	c #6C8CB3",
"9%	c #A3B8D0",
":%	c #FDFDE6",
";%	c #F7F036",
"<%	c #F7EF0E",
"=%	c #F6ED06",
">%	c #F6E902",
"?%	c #F3E103",
"@%	c #EFD207",
"A%	c #E7B10F",
"B%	c #D97E13",
"C%	c #D58854",
"D%	c #FBF6F4",
"E%	c #C3CFE0",
"F%	c #91AAC6",
"G%	c #7F9BBE",
"H%	c #547AA8",
"I%	c #547AA6",
"J%	c #7895B9",
"K%	c #7794B9",
"L%	c #F2F5F6",
"M%	c #FCFACF",
"N%	c #F7EE48",
"O%	c #F5E80E",
"P%	c #F4E309",
"Q%	c #F0D909",
"R%	c #EBC20C",
"S%	c #E09413",
"T%	c #E09D61",
"U%	c #F7EAE3",
"V%	c #F6F8FA",
"W%	c #6E8FB5",
"X%	c #5178A6",
"Y%	c #587CAA",
"Z%	c #5278A7",
"[%	c #5278A5",
"]%	c #91A8C6",
"^%	c #EBEFF2",
"_%	c #FDFCE7",
"`%	c #FAF4AE",
"a%	c #F5E774",
"b%	c #F1D964",
"c%	c #F0D07F",
"d%	c #F5DEBE",
"e%	c #FAF2EB",
"f%	c #EEF1F5",
"g%	c #597DA9",
"h%	c #5379A6",
"i%	c #5076A5",
"j%	c #5E82AC",
"k%	c #4B73A2",
"l%	c #4972A2",
"m%	c #AFC0D5",
"n%	c #E7ECEB",
"o%	c #FAF8ED",
"p%	c #FCF9EC",
"q%	c #F8F6EE",
"r%	c #E7EAEE",
"s%	c #F2F5F8",
"t%	c #DEE5EE",
"u%	c #7B98BC",
"v%	c #6385AE",
"w%	c #5F82AC",
"x%	c #4A73A2",
"y%	c #7A97BA",
"z%	c #D7E0EA",
"{%	c #E5EAF1",
"|%	c #7B99BC",
"}%	c #95ACC9",
"~%	c #4F75A4",
" &	c #4B72A2",
"!&	c #547BA8",
"#&	c #8BA4C3",
"$&	c #7795BA",
"%&	c #5177A5",
"&&	c #849FBF",
"'&	c #7C98BC",
"(&	c #B5C5D8",
")&	c #F8F9FB",
"*&	c #A9BDD3",
"+&	c #A5B9D0",
",&	c #4971A1",
"-&	c #819CBE",
".&	c #7695B9",
"0&	c #597DAA",
"1&	c #718FB6",
"2&	c #85A0C1",
"3&	c #89A2C2",
"4&	c #E3E9F0",
"5&	c #99B0CA",
"6&	c #A1B5CE",
"7&	c #ACBED4",
"8&	c #87A2C1",
"9&	c #7492B7",
":&	c #8AA3C2",
";&	c #A0B6CE",
"<&	c #AEBFD5",
"=&	c #8FA8C6",
">&	c #819DBF",
"?&	c #7C98BB",
"@&	c #B6C5D9",
"A&	c #5A7EAB",
"B&	c #AEC0D6",
"C&	c #89A4C2",
"D&	c #89A3C3",
"E&	c #9FB5CD",
"F&	c #BECCDE",
"G&	c #B7C7D9",
"H&	c #436C9E",
"I&	c #7E9ABC",
"J&	c #5D7FAC",
"K&	c #90A8C5",
"L&	c #A7BAD1",
"M&	c #A4B9D0",
"N&	c #B2C2D7",
"O&	c #BDCCDD",
"P&	c #F3F6F9",
"Q&	c #EAEFF4",
"R&	c #94ABC7",
"S&	c #9EB4CD",
"T&	c #5E80AD",
"U&	c #D3DCE8",
"V&	c #D0DAE6",
"W&	c #E1E8F0",
"X&	c #E7EDF3",
"Y&	c #E7ECF3",
"Z&	c #EFF2F6",
"[&	c #F6F7FA",
"]&	c #F7F8FA",
"^&	c #C7D4E2",
"_&	c #F3F6F8",
"`&	c #CED9E5",
"a&	c #A2B7D0",
"b&	c #7795B9",
"c&	c #B9C8DB",
"d&	c #9DB2CC",
"e&	c #466EA0",
"f&	c #698AB3",
"g&	c #3D689C",
"h&	c #E3E9F1",
"i&	c #CFDAE6",
"j&	c #A7BAD2",
"k&	c #94ABC8",
"l&	c #839EC0",
"m&	c #6487B0",
"n&	c #587EAA",
"o&	c #4F76A4",
"p&	c #88A2C3",
"q&	c #DAE2EB",
"r&	c #CDD8E5",
"s&	c #C0CEDE",
"t&	c #8EA7C4",
"u&	c #6588B1",
"v&	c #C8D5E3",
"w&	c #C4D1E0",
"x&	c #B0C1D6",
"y&	c #A9BBD3",
"z&	c #A1B6CE",
"{&	c #4770A0",
"|&	c #839FC0",
"}&	c #7594B8",
"~&	c #7190B5",
" '	c #7291B6",
"!'	c #426C9F",
"#'	c #416B9D",
"$'	c #4F75A5",
"%'	c #6687B0",
"&'	c #6C8BB4",
"''	c #6485B0",
"('	c #6284AF",
")'	c #6183AE",
"*'	c #577CA8",
"+'	c #6989B2",
",'	c #5B81AB",
"-'	c #5A7FA9",
".'	c #5A7EA9",
"0'	c #597DA8",
"1'	c #587CA8",
"2'	c #587DA8",
"3'	c #577CA7",
"4'	c #5378A6",
"! # # # # # # # # # # # # # # # # # $ % & ' ( ) * + , - . 0 1 2 3 4 5 6 7 2 8 7 & & 9 : ; < ; = ",
"# > > > > > > > > > > > > > > > > > > ? @ A B C D E F G H I J K L L K A J M N ; O M P Q R S $ 9 ",
"# T T T T T T T T T T T T T T T T T T ? U V W X Y Z ) [ ] ^ _ C K ` a b c d ^ G K ` _ e f g I h ",
"i T T T T T T T T T T T T T T T T T > j k l W 8 m n o p D q q r s r t D u v w x + y v o z p { | ",
"i T T T T T T T T T T T T T T T T T } A ~ #  !c b !!E #!$!%!%!&!w '!(!, #!)!*!+!,!-!.!0!1!2!3!4!",
"i T T T T T T T T T T T T T T T T T O 5!5!j 6!s 7!8!9!:!*!;!<!=!>!?!@!A!B!C!D!E!E!E!E!E!E!E!E!E!",
"i T T T T T T T T T T T T T T T F!G!L H!I!Z J!K!+!L!M!N!O!P!Q!R!E!E!E!E!E!E!E!E!E!E!E!E!E!E!E!E!",
"# T T T T T T T T T T T T T F!S!T!8 U!V!W!v X!Y!Z![!]!E!E!E!E!E!E!E!E!E!E!E!E!E!E!E!E!E!E!E!E!E!",
"i T T T T T T T T T T T T ^!i _!`!a!w b!c!d!e!E!E!E!E!E!E!E!E!E!E!E!E!E!E!E!E!E!E!E!E!E!E!E!E!E!",
"i T T T T T T T T T T T } O f!H o g!0!h!R!E!E!E!E!E!E!E!E!E!E!E!E!E!E!E!E!E!E!E!E!E!E!E!E!E!E!E!",
"i T T T T T T T T T T i!j!`!q k!l!m!R!E!E!E!E!E!E!E!E!E!E!E!E!E!E!E!E!E!E!E!E!n!o!p!q!r!s!t!?!u!",
"i v!v!v!v!v!v!v!v!v!w!5!I n x!y!z!E!E!E!E!E!E!E!E!E!E!E!E!E!E!z![!{!|!}!~! #l!;!!#%!##* p $#o %#",
"S &#&#&#&#&#&#&#&#T '#(#D t )#R!E!E!E!E!E!E!E!E!E!E!R!*#+#,#-#:!.#.#0#- 1##!(!v + 2#Z ` I g e 3#",
"4#5#5#5#5#5#&#5#5#6#7#8#* 9#R!E!E!E!E!E!E!E!E!R!:#;#<#=#)!>#?#X!%!{ @#$#q A#B#I ^  ! !M i i R Y ",
"# C#5#v!> F!} } } $ J n '!z!E!E!E!E!E!E!E!D#E#F#,!G#, .#J!$#n Z I `!g m  !H#I#Y J#O i K#L#> > # ",
"M#N#` N#`!J B O#O#`!P#<!Q#E!E!E!E!E!E!R#3!w J!'!=#u y a!Z S#L (#A 8 T#V U#8 J J#V#V#i G!> T L#i ",
"W#@ k k U G!k G!S!X#Z Y#[!E!E!E!E!E![!=!Z#X![#]#u s 8#^#_#I#`#a#(#b#Y O#e c#N A $ i Q R T T &#S ",
"d#@ @ k G!G!U e#f#P A#]#n!E!E!E!E!E!g#J!1#Y#h#F#i#j#{ k#J (#`#l#X#`#k#:  !j m  !Q @ Q $ > T 5#i ",
"m#@ @ n#k n#G!e#k A Z Y#:#E!E!E!E!E!o#9!j#p#R!q#r#q#R!s#v C `#J j Y  !: V S#`#O 4#i R $ G!T &#i ",
"m#@ U k G!n#} e#k M 6 t#s!E!E!E!E!E!E!D!R!u#v#w#x#y#z#{#n!*!^ m `#? Y c W |#_!4#K#}#$ ~#U v!T i ",
"m#@ G!k G!G! $e#k Q e $#!$z!E!E!E!E!E!E!#$$$%$&$'$($)$*$+$,$o N#-$_#(#V m .$5!0$$ $ Q S ~#T v!S ",
"W#@ k n#G!k  $1$G!R 2$A#b!t!E!E!E!E!E!3$4$5$6$7$8$9$:$;$<$=$>$?$[ L H!@$b#A$; _!i Q ~ Q U T &#i ",
"W#@ G!G!n#B$ $G!} } C$` .#- O!R!E!E!R!D$E$F$G$H$I$J$K$L$M$N$D!9!U!O$ !I _#b#: Y ; O < T!4#v!5#S ",
"P$@ G!G!G!B$e#} G!e#~ z U!J!- }!R#E!Q$R$S$T$U$V$W$X$Y$Z$[$]$E!~!)!J!v K a 5!b#; ; i K#'#4#L#&## ",
": G!G!n#G!e#G!} G!e#5!W!J s x!^$_$p#`$a$b$c$d$e$f$g$h$i$j$k$E!l$m$*!+ v c V O 5!; ; R Q '#6#5#S ",
"W#G!G!n#e#e#} } e#e#[ n$@$S#b o$p$q$Q$r$s$t$u$v$w$x$y$z${$|$E!]!}$~$:! %!%.$; 5!#%Y ; 4#'#$%5#S ",
"W#G!G!G! $e#} }  $Q Y#M V %%I#&%'%(%q#)%*%+%,%-%.%0%1%2%3%4%E!E!R!n!Z!J!p 5%Y O O 6%T!i 4#G!v!S ",
"W#G!G!1$ $} } }  $7%q W#c#Y c#8%9%x!A!:%;%<%=%>%?%@%A%B%C%D%E!E!E!E!R#E%F%G%`#H%V M 4#5!4#G!v!S ",
"I%G!k } B$} } } 0$- J%b#X##%O . | K%Z L%M%N%O%P%Q%R%S%T%U%R!E!E!E!E!E!V%'!g!W%c#X%0$Y%Z%# k w![%",
"I%G!k e#B$} } } ) ]%K A d##%a (!n %%Q D ^%_%`%a%b%c%d%e%f%V%E!E!E!E!E!R!2!P#^ g%X%h%M X%b#`!i%c#",
"h%G!1$ $} } } j%[#n X H%M O [ z !%k%l%K#k#m%n%o%p%q%r%2!<! #s%E!E!E!E!E!t%| H I#5!$ 0$L o + < d#",
"h%G!}  $} } n#* W!u%_!H%5!v%a!!%w%R l%l%x%M w%`!y%d x!(!u $!z%E!E!E!E!E!{%v |%I#i%h%g + }%'!~%h%",
"h%n#} } 1$} I P#n A#X#5!M B#* c#Y R R  &i ; !&m K K%#&%!x N!D#E!E!E!E!E!Z!v $&N %&I ?#'!'!l!O h%",
"h%1$e#G!1$5!^$&&!%d Y V m s B k j 0$O %% !J _ '&s W!u (&A!)&R!E!E!E!E!E!.!]#6 A ` w *&+&- )!|#Y ",
"I%} e#n#,&* F -&` .&J#P `!3#7#0&1&K ` [ D 2&3&Y#- .!4&V%z!R!E!E!E!E!E!B!!!o N#a!5&6&*!7&6&%!_#7#",
".$Q Z%V @#(!* Y#q 8&9&6 r ^ 6 8#t z :&]#b!;&.!Z!:#*#z!E!E!E!E!E!E!E!Q!<&=&>&6&J!I#l i%?&@&Z#[ A&",
"b I ` 3&B&l!5&?#K!'!v Y#C&8&* D&E& #F&|!p!s%*#R#R!E!E!E!E!E!E!E!E!)&G&E g!*!Z $ H&T T G!I&+!. J&",
"K&o$!!L!~!L&8!M&=#M!<&N&O&u!r!P!P&e!*#,$]!R!E!E!E!E!E!E!E!E!E!R!Q&G#R&=&l!` ~#> > T T v!} S&>&T&",
"U&V&W&h!X&Y&B!Z&s%V%l$[&*#n!R#]!E!E!E!E!E!E!E!E!E!E!E!E!E!E!]&^&)!=&F K!_#k F!> > T T v!5#5%w |#",
",$,$z!z!D!D!R!R!R!E!E!E!E!E!E!E!E!E!E!E!E!E!E!E!E!E!E!E!_&`&a&X!g!D b&P k F!F!> > > T v!5#n#!$I#",
"E!E!E!E!E!E!E!E!E!E!E!E!E!E!E!E!E!E!E!E!E!E!E!E!R!D#@!c&d&R&x!@#` O#6%e&F!F!> T > T > 5#5#5#J! !",
"E!E!E!E!E!E!E!E!E!E!E!E!E!E!E!E!E!E!E!E!E!z!B!O!g#S&^$Y#V!b&f&j Q @  $w!F!F!> > > T v!g&5#5#^ N#",
"E!E!E!E!E!E!E!E!E!E!E!E!E!E!E!E!D!_&h&i&.!j&$!k&]#l&'&` m&n&o&~ B$w! $F!F!F!> > T > &#g&g&5#c#p&",
"E!E!E!E!E!E!E!E!E!Q!:#{%q&r&s&N&G#d&!! %t&8&D b &%u&_!O i U }  $ $F!w!> F!F!> > T v!5#C#g&5#v!%!",
"v&w&s&m$c&M!x&y&z&'!.#^$J!=&#&p ##V!d b&` J O#? h%K# &{&e#} i! $ $F!w!> w!F!> > T v!5#5#5#5#g&[#",
"w v v P#g!F D&p 2&|&D 8#}&~&8%c  'B |#7#O ; i ~ @ } } G!i!} i!!'!'w!w!F!F!#'T > T 5#g&5#5#5#g&F ",
"M#5%B#`!_#e e S#f!k#O#Y : X%~%4#_!$'V#k%,&U @ k G!} } G!i!} i!!'!'w!w!F!F!#'T T T 5#g&g&5#5#g&'&",
" '%'&'% a#L ''('('(')'g%*'l#V c#+','= = -'-'.'.'0'.'1'2'm#3'1'm#M M U#M U#O O 4'4'5!0$0$0$0$%&.&"};